<?xml version="1.0" standalone="no"?>
<!DOCTYPE svg PUBLIC "-//W3C//DTD SVG 1.1//EN" "http://www.w3.org/Graphics/SVG/1.1/DTD/svg11.dtd" >
<svg xmlns="http://www.w3.org/2000/svg" xmlns:xlink="http://www.w3.org/1999/xlink" version="1.1">
<metadata>
Created by FontForge 20201107 at Mon May 14 11:59:58 2012
 By 
2012 Travis Kochel published by FSI FontShop International GmbH
</metadata>
<defs>
<font id="ChartwellPies" horiz-adv-x="0" >
  <font-face 
    font-family="ChartwellPies"
    font-weight="400"
    font-stretch="normal"
    units-per-em="4000"
    panose-1="2 11 5 4 2 1 1 1 1 2"
    ascent="3312"
    descent="-688"
    x-height="2252"
    cap-height="2800"
    bbox="-3057.18 -892 3052 3832"
    underline-thickness="284"
    underline-position="-373"
    unicode-range="U+0020-FEFF"
  />
<missing-glyph horiz-adv-x="1516" 
d="M212 2800h1092v-2800h-1092v2800zM1020 284v2232h-524v-2232h524z" />
    <glyph glyph-name="f_i" unicode="fi" horiz-adv-x="1756" 
d="M1240 2252h304v-2252h-304v2252zM1240 2924h304v-392h-304v392zM792 2684q-36 0 -70 -14t-58 -50t-40 -102t-16 -170v-96h348v-256h-348v-1996h-304v1996h-256v256h256v136q0 284 102 428t362 144q56 0 126 -14t118 -34l-52 -256q-40 12 -76 20t-92 8z" />
    <glyph glyph-name="f_l" unicode="fl" horiz-adv-x="1740" 
d="M1224 2928h304v-2928h-304v2928zM792 2684q-36 0 -70 -14t-58 -50t-40 -102t-16 -170v-96h348v-256h-348v-1996h-304v1996h-256v256h256v136q0 284 102 428t362 144q56 0 126 -14t118 -34l-52 -256q-40 12 -76 20t-92 8z" />
    <glyph glyph-name=".notdef" horiz-adv-x="1516" 
d="M212 2800h1092v-2800h-1092v2800zM1020 284v2232h-524v-2232h524z" />
    <glyph glyph-name=".null" 
 />
    <glyph glyph-name="nonmarkingreturn" horiz-adv-x="600" 
 />
    <glyph glyph-name="space" unicode=" " horiz-adv-x="600" 
 />
    <glyph glyph-name="exclam" unicode="!" horiz-adv-x="808" 
d="M232 2800h344l-60 -2076h-224zM252 392h304v-392h-304v392z" />
    <glyph glyph-name="quotedbl" unicode="&#x22;" horiz-adv-x="1148" 
d="M160 2804h324l-60 -840h-204zM664 2804h324l-60 -840h-204z" />
    <glyph glyph-name="numbersign" unicode="#" horiz-adv-x="1868" 
d="M244 2108h364l96 692h252l-96 -692h364l100 692h252l-100 -692h312v-248h-344l-120 -840h300v-248h-332l-108 -772h-252l108 772h-368l-104 -772h-252l104 772h-340v248h376l116 840h-328v248zM708 1020h364l120 840h-368z" />
    <glyph glyph-name="dollar" unicode="$" horiz-adv-x="1288" 
d="M544 88q-192 36 -302 216t-110 568h284q0 -156 18 -254t52 -156t80 -80t102 -22q40 0 82 14t72 50t50 100t20 168q0 128 -52 246t-130 234t-170 232t-170 236t-130 248t-52 272t32 242t82 162t114 98t128 46v392h228v-392q80 -12 150 -56t124 -134t86 -232t32 -354h-272
q0 276 -56 390t-176 114q-32 0 -64 -8t-60 -38t-44 -84t-16 -150q0 -100 50 -204t128 -216t166 -230t166 -244t128 -262t50 -280q0 -300 -106 -450t-286 -182v-388h-228v388z" />
    <glyph glyph-name="percent" unicode="%" horiz-adv-x="2196" 
d="M572 2840q84 0 158 -26t130 -100t90 -210t34 -356t-34 -354t-90 -208t-130 -100t-158 -26t-158 26t-130 100t-90 208t-34 354t34 356t90 210t130 100t158 26zM572 2616q-32 0 -60 -20t-48 -70t-32 -142t-12 -236t12 -234t32 -142t48 -72t60 -20t60 16t50 66t34 142
t12 244q0 156 -12 248t-34 140t-50 64t-60 16zM1624 1340q84 0 158 -26t130 -100t90 -210t34 -356t-34 -354t-90 -208t-130 -100t-158 -26t-158 26t-130 100t-90 208t-34 354t34 356t90 210t130 100t158 26zM1624 1116q-32 0 -60 -20t-48 -70t-32 -142t-12 -236t12 -234
t32 -142t48 -72t60 -20t60 16t50 66t34 142t12 244q0 156 -12 248t-34 140t-50 64t-60 16zM1676 2800h236l-1400 -2800h-236z" />
    <glyph glyph-name="ampersand" unicode="&#x26;" horiz-adv-x="1712" 
d="M1504 0q-64 72 -124 138t-116 134q-80 -164 -200 -238t-312 -74q-104 0 -208 32t-186 108t-134 206t-52 322q0 140 28 250t76 198t108 160t120 136q-216 456 -216 844q0 172 38 292t104 194t156 106t190 32q196 0 328 -136t132 -432q0 -204 -48 -364t-114 -278t-130 -192
t-96 -106q64 -112 140 -240t180 -268q20 128 22 288t2 368h264q0 -276 -18 -508t-62 -416q68 -92 144 -184t168 -196zM456 672q0 -132 30 -220t78 -142t104 -76t108 -22q104 0 182 58t134 210q-144 188 -256 348t-204 320q-80 -104 -128 -214t-48 -262zM972 2272
q0 136 -50 228t-146 92q-32 0 -68 -14t-68 -52t-52 -106t-20 -176q0 -152 36 -316t128 -372q28 32 70 88t80 142t64 206t26 280z" />
    <glyph glyph-name="quotesingle" unicode="'" horiz-adv-x="644" 
d="M160 2804h324l-60 -840h-204z" />
    <glyph glyph-name="parenleft" unicode="(" horiz-adv-x="928" 
d="M604 -316q-108 216 -188 480q-68 228 -126 530t-58 658q0 376 58 680t126 520q80 252 188 456h260q-96 -220 -168 -484q-64 -228 -114 -526t-50 -646q0 -324 50 -620t114 -532q72 -276 168 -516h-260z" />
    <glyph glyph-name="parenright" unicode=")" horiz-adv-x="924" 
d="M64 -316q92 240 164 516q60 236 112 532t52 620q0 348 -52 646t-112 526q-72 264 -164 484h256q104 -204 184 -456q68 -216 128 -520t60 -680q0 -356 -60 -658t-128 -530q-80 -264 -184 -480h-256z" />
    <glyph glyph-name="asterisk" unicode="*" horiz-adv-x="1124" 
d="M464 1792l12 352l-296 -188l-100 168l312 168l-312 164l96 172l300 -192l-12 356h196l-16 -356l300 192l100 -168l-316 -168l316 -164l-96 -172l-304 188l16 -352h-196z" />
    <glyph glyph-name="plus" unicode="+" horiz-adv-x="1400" 
d="M572 1228h-440v240h440v456h264v-456h436v-240h-436v-456h-264v456z" />
    <glyph glyph-name="comma" unicode="," horiz-adv-x="724" 
d="M200 392h324l-244 -840h-200z" />
    <glyph glyph-name="hyphen" unicode="-" horiz-adv-x="1156" 
d="M936 1180h-716v284h716v-284z" />
    <glyph glyph-name="period" unicode="." horiz-adv-x="724" 
d="M212 392h304v-392h-304v392z" />
    <glyph glyph-name="slash" unicode="/" horiz-adv-x="1064" 
d="M756 3048h260l-708 -3364h-260z" />
    <glyph glyph-name="zero" unicode="0" horiz-adv-x="1520" 
d="M760 2840q124 0 232 -48t190 -202t130 -438t48 -752t-48 -752t-130 -438t-190 -202t-232 -48t-232 48t-190 202t-130 438t-48 752t48 752t130 438t190 202t232 48zM760 2552q-64 0 -114 -40t-84 -162t-52 -348t-18 -602t18 -602t52 -348t84 -162t114 -40t116 34t84 152
t50 346t18 620q0 388 -18 618t-50 348t-84 152t-116 34z" />
    <glyph glyph-name="one" unicode="1" horiz-adv-x="952" 
d="M384 0v2468h-280v192l396 140h192v-2800h-308z" />
    <glyph glyph-name="two" unicode="2" horiz-adv-x="1304" 
d="M160 300q0 208 52 376t130 310t168 272t168 260t130 272t52 314q0 252 -40 350t-132 98q-72 0 -114 -60t-60 -156t-22 -214t-4 -230h-304q0 248 24 426t84 294t158 172t246 56q220 0 352 -166t132 -562q0 -204 -52 -370t-130 -306t-170 -270t-170 -264t-130 -286
t-52 -336h724v-280h-1040v300z" />
    <glyph glyph-name="three" unicode="3" horiz-adv-x="1372" 
d="M860 2168q0 172 -32 278t-148 106q-60 0 -102 -32t-70 -110t-40 -204t-12 -314h-316q0 480 122 714t422 234q144 0 242 -60t154 -156t80 -216t24 -240q0 -312 -78 -466t-250 -226q120 -32 196 -104t120 -168t60 -210t16 -226q0 -232 -48 -386t-128 -248t-180 -134
t-204 -40q-284 0 -418 234t-134 698h316q0 -356 66 -500t182 -144q104 0 164 118t60 398q0 132 -14 228t-56 162t-118 102t-200 52v260q76 24 136 56t102 96t64 172t22 276z" />
    <glyph glyph-name="four" unicode="4" horiz-adv-x="1440" 
d="M812 2800h344v-1940h212v-268h-212v-592h-300v592h-824v268zM856 860v1080q0 64 2 128t4 124t6 104l-552 -1436h540z" />
    <glyph glyph-name="five" unicode="5" horiz-adv-x="1388" 
d="M504 1612q44 44 120 76t152 32q68 0 154 -26t160 -114t126 -258t52 -458q0 -248 -40 -420t-116 -280t-180 -156t-232 -48q-256 0 -394 226t-138 702h316q0 -108 8 -222t34 -208t70 -152t116 -58q136 0 186 150t50 434q0 208 -18 330t-50 184t-74 78t-90 16
q-60 0 -118 -38t-102 -86l-288 40l76 1444h888v-280h-624z" />
    <glyph glyph-name="six" unicode="6" horiz-adv-x="1492" 
d="M780 2552q-64 0 -118 -30t-92 -136t-60 -310t-22 -552q136 168 340 168q76 0 170 -36t176 -132t136 -264t54 -428q0 -236 -42 -400t-120 -270t-186 -154t-236 -48q-140 0 -254 54t-194 204t-126 420t-46 702q0 468 40 760t118 456t194 224t268 60q248 0 382 -226
t134 -722h-316q0 196 -14 322t-42 202t-64 106t-80 30zM784 1416q-92 0 -172 -58t-124 -146q0 -308 24 -496t66 -292t94 -140t108 -36q60 0 108 20t82 82t54 178t20 304q0 192 -26 308t-66 176t-84 80t-84 20z" />
    <glyph glyph-name="seven" unicode="7" horiz-adv-x="1092" 
d="M992 2512q-104 -352 -180 -652t-124 -594t-76 -600t-36 -666h-304q0 372 28 698t82 628t134 594t184 600h-720v280h1012v-288z" />
    <glyph glyph-name="eight" unicode="8" horiz-adv-x="1440" 
d="M740 2840q84 0 180 -30t174 -110t130 -226t52 -374q0 -276 -90 -428t-210 -216q68 -32 130 -88t110 -146t78 -212t30 -286q0 -240 -58 -390t-146 -234t-192 -112t-192 -28q-96 0 -200 30t-190 112t-140 232t-54 390q0 148 24 258t68 192t104 142t136 104q-48 28 -102 80
t-98 134t-72 198t-28 268q0 224 54 368t136 226t180 114t186 32zM736 1288q-136 0 -202 -130t-66 -434q0 -144 22 -240t58 -152t84 -78t104 -22t106 18t86 70t58 148t22 256q0 164 -22 274t-60 174t-88 90t-102 26zM740 2560q-48 0 -92 -22t-76 -74t-50 -140t-18 -224
q0 -144 22 -244t56 -162t76 -90t82 -28q48 0 88 22t70 80t48 160t18 262q0 144 -18 234t-48 140t-70 68t-88 18z" />
    <glyph glyph-name="nine" unicode="9" horiz-adv-x="1496" 
d="M740 248q64 0 114 22t86 124t54 312t18 586q-68 -68 -150 -106t-190 -38q-76 0 -168 30t-170 118t-132 252t-54 428q0 276 60 446t148 262t192 124t188 32q120 0 228 -44t190 -194t130 -438t48 -776q0 -456 -40 -736t-118 -434t-188 -206t-246 -52q-124 0 -226 52
t-176 164t-114 288t-40 424h320q0 -192 20 -316t52 -196t74 -100t90 -28zM724 1420q100 0 172 56t116 128v96q0 248 -22 412t-58 262t-88 138t-112 40q-48 0 -94 -20t-82 -82t-60 -176t-24 -298q0 -180 22 -288t56 -168t80 -80t94 -20z" />
    <glyph glyph-name="colon" unicode=":" horiz-adv-x="724" 
d="M212 392h304v-392h-304v392zM212 2252h304v-392h-304v392z" />
    <glyph glyph-name="semicolon" unicode=";" horiz-adv-x="724" 
d="M208 2252h304v-392h-304v392zM200 392h324l-244 -840h-200z" />
    <glyph glyph-name="less" unicode="&#x3c;" horiz-adv-x="1400" 
d="M436 1336l768 -500v-324l-1008 652v308l1008 688v-332z" />
    <glyph glyph-name="equal" unicode="=" horiz-adv-x="1400" 
d="M1204 1468h-1008v272h1008v-272zM1204 908h-1008v272h1008v-272z" />
    <glyph glyph-name="greater" unicode="&#x3e;" horiz-adv-x="1400" 
d="M964 1336l-768 500v324l1008 -652v-308l-1008 -688v332z" />
    <glyph glyph-name="question" unicode="?" horiz-adv-x="1188" 
d="M436 724l-4 140q0 196 28 336t72 248t92 194t92 172t72 184t28 226q0 168 -56 260t-152 92q-112 0 -174 -146t-62 -478h-268q0 476 134 682t382 206q196 0 330 -148t134 -460q0 -148 -30 -262t-76 -212t-100 -194t-100 -210t-76 -258t-30 -340v-32h-236zM412 392h304
v-392h-304v392z" />
    <glyph glyph-name="at" unicode="@" horiz-adv-x="2704" 
d="M1564 1572q0 124 -10 204t-30 124t-50 62t-70 18q-36 0 -68 -16t-56 -60t-38 -124t-14 -208h-272q0 104 12 222t60 218t140 166t252 66q92 0 168 -30t130 -100t84 -182t30 -280v-964q0 -96 40 -132t96 -36q160 0 222 220t62 600q0 392 -60 650t-168 408t-264 210t-348 60
q-188 0 -360 -60t-302 -218t-208 -436t-78 -714q0 -372 58 -630t182 -418t318 -230t470 -70q128 0 252 14t224 34q116 20 220 48v-232q-96 -28 -212 -48q-100 -20 -236 -34t-296 -14q-112 0 -250 14t-280 68t-274 156t-234 278t-164 434t-62 626q0 348 50 608t138 446
t206 308t254 192t284 98t296 28q536 0 826 -376t290 -1160q0 -324 -44 -534t-122 -332t-188 -172t-242 -50q-116 0 -208 46t-144 174q-48 -80 -124 -150t-204 -70q-48 0 -114 16t-124 68t-98 146t-40 246q0 312 176 470t516 170v164zM1160 784q0 -148 48 -192t124 -44
q60 0 124 62t108 154v436q-124 -8 -202 -40t-124 -86t-62 -128t-16 -162z" />
    <glyph glyph-name="A" unicode="A" horiz-adv-x="1524" 
d="M1044 708h-540l-108 -708h-332l512 2800h408l508 -2800h-336zM552 1004h448l-224 1456z" />
    <glyph glyph-name="B" unicode="B" horiz-adv-x="1600" 
d="M1400 2036q0 -220 -54 -362t-174 -214q140 -64 214 -224t74 -460q0 -224 -36 -372t-108 -238t-184 -128t-260 -38h-624v2800h548q132 0 242 -34t192 -122t126 -234t44 -374zM572 1280v-1004h320q144 0 186 116t42 384q0 156 -12 254t-44 154t-88 76t-144 20h-260z
M572 1552h260q148 0 188 130t40 354q0 144 -14 238t-50 150t-96 78t-148 22h-180v-972z" />
    <glyph glyph-name="C" unicode="C" horiz-adv-x="1540" 
d="M1408 932q0 -280 -46 -466t-126 -298t-190 -160t-238 -48q-148 0 -270 60t-208 220t-134 440t-48 720t50 720t136 440t208 220t266 60q128 0 236 -50t186 -168t120 -316t42 -490h-352q0 376 -52 548t-180 172q-76 0 -134 -48t-96 -174t-58 -348t-20 -566t20 -566t58 -348
t96 -174t134 -48q116 0 178 148t62 520h360z" />
    <glyph glyph-name="D" unicode="D" horiz-adv-x="1624" 
d="M1476 1400q0 -380 -42 -646t-122 -434t-204 -244t-284 -76h-576v2800h580q140 0 258 -60t206 -216t136 -428t48 -696zM572 280h268q156 0 220 266t64 854q0 324 -18 540t-60 346t-106 182t-160 52h-208v-2240z" />
    <glyph glyph-name="E" unicode="E" horiz-adv-x="1348" 
d="M248 2800h932v-296h-608v-964h548v-296h-548v-948h608v-296h-932v2800z" />
    <glyph glyph-name="F" unicode="F" horiz-adv-x="1268" 
d="M248 2800h932v-296h-608v-972h548v-296h-548v-1236h-324v2800z" />
    <glyph glyph-name="G" unicode="G" horiz-adv-x="1636" 
d="M1448 1296v-1296h-220l-60 236q-68 -160 -172 -218t-200 -58q-116 0 -230 48t-208 200t-152 436t-58 756q0 444 56 724t152 438t224 218t272 60q132 0 244 -48t194 -166t126 -316t44 -494h-352q0 376 -58 548t-198 172q-80 0 -146 -48t-112 -176t-70 -348t-24 -564
q0 -352 26 -574t68 -346t100 -170t126 -46q64 0 122 36t100 122t66 228t24 350h-284v296h600z" />
    <glyph glyph-name="H" unicode="H" horiz-adv-x="1736" 
d="M1164 1252h-592v-1252h-324v2800h324v-1252h592v1252h324v-2800h-324v1252z" />
    <glyph glyph-name="I" unicode="I" horiz-adv-x="820" 
d="M248 2800h324v-2800h-324v2800z" />
    <glyph glyph-name="J" unicode="J" horiz-adv-x="888" 
d="M316 2800h324v-2560q0 -144 -28 -254t-92 -196t-166 -154t-250 -124l-112 284q80 44 142 80t102 82t60 110t20 164v2568z" />
    <glyph glyph-name="K" unicode="K" horiz-adv-x="1500" 
d="M248 2800h324v-1236h144l376 1236h344l-460 -1376l520 -1424h-352l-440 1268h-132v-1268h-324v2800z" />
    <glyph glyph-name="L" unicode="L" horiz-adv-x="1232" 
d="M248 2800h324v-2504h608v-296h-932v2800z" />
    <glyph glyph-name="M" unicode="M" horiz-adv-x="2208" 
d="M1960 2800v-2800h-288v1636q0 69 1.5 146t4.5 154.5t7.5 152t10.5 139.5l-484 -2228h-212l-488 2228q4 -65 8.5 -139.5t8 -152t5.5 -154.5t2 -146v-1636h-288v2800h400l456 -2216l456 2216h400z" />
    <glyph glyph-name="N" unicode="N" horiz-adv-x="1748" 
d="M568 2800l664 -2144q-24 328 -24 556v1588h292v-2800h-300l-684 2152q4 -56 10 -134t10 -160t6 -156t2 -114v-1588h-296v2800h320z" />
    <glyph glyph-name="O" unicode="O" horiz-adv-x="1632" 
d="M816 2840q136 0 258 -48t212 -202t144 -438t54 -752t-54 -752t-144 -438t-212 -202t-258 -48t-258 48t-212 202t-144 438t-54 752t54 752t144 438t212 202t258 48zM816 2536q-80 0 -138 -36t-98 -156t-60 -344t-20 -600t20 -600t60 -344t98 -156t138 -36t140 32t100 146
t60 340t20 618q0 388 -20 616t-58 342t-98 146t-144 32z" />
    <glyph glyph-name="P" unicode="P" horiz-adv-x="1512" 
d="M1432 1960q0 -440 -142 -644t-442 -204h-276v-1112h-324v2800h604q128 0 234 -40t184 -136t120 -258t42 -406zM572 1392h292q132 0 180 134t48 434q0 168 -14 276t-48 170t-88 88t-138 26h-232v-1128z" />
    <glyph glyph-name="Q" unicode="Q" horiz-adv-x="1632" 
d="M816 2840q136 0 258 -48t212 -202t144 -438t54 -752q0 -376 -34 -632t-96 -418t-146 -244t-184 -114q76 -148 288 -228l-124 -244q-216 80 -324 188t-152 260q-120 12 -222 78t-178 226t-120 430t-44 698q0 468 54 752t144 438t212 202t258 48zM816 2536q-80 0 -138 -36
t-98 -156t-60 -344t-20 -600t20 -600t60 -344t98 -156t138 -36t140 32t100 146t60 340t20 618q0 388 -20 616t-58 342t-98 146t-144 32z" />
    <glyph glyph-name="R" unicode="R" horiz-adv-x="1600" 
d="M856 1252h-284v-1252h-324v2800h596q132 0 242 -34t188 -120t120 -234t42 -376q0 -260 -66 -442t-210 -270l340 -1324h-344zM572 1532h284q144 0 194 120t50 384q0 140 -14 234t-50 150t-94 78t-146 22h-224v-988z" />
    <glyph glyph-name="S" unicode="S" horiz-adv-x="1360" 
d="M912 2004q0 296 -60 418t-176 122q-32 0 -66 -8t-66 -34t-52 -80t-20 -146q0 -120 58 -244t146 -254t188 -268t188 -284t146 -302t58 -324t-48 -290t-126 -200t-180 -114t-214 -36q-124 0 -228 42t-182 140t-122 260t-44 402h328q0 -168 20 -274t54 -170t80 -88t98 -24
q40 0 84 12t80 48t60 100t24 164q0 132 -58 268t-148 274t-192 280t-192 286t-148 294t-58 306q0 176 56 286t138 170t174 82t164 22q96 0 196 -32t178 -122t128 -254t50 -428h-316z" />
    <glyph glyph-name="T" unicode="T" horiz-adv-x="1340" 
d="M1332 2800v-296h-500v-2504h-324v2504h-500v296h1324z" />
    <glyph glyph-name="U" unicode="U" horiz-adv-x="1704" 
d="M852 -40q-116 0 -226 34t-196 116t-138 218t-52 340v2132h324v-2088q0 -148 22 -238t62 -138t92 -62t112 -14t112 14t90 62t62 138t24 238v2088h324v-2132q0 -204 -52 -340t-138 -218t-196 -116t-226 -34z" />
    <glyph glyph-name="V" unicode="V" horiz-adv-x="1384" 
d="M1028 2800h308l-448 -2800h-396l-444 2800h324l324 -2384z" />
    <glyph glyph-name="W" unicode="W" horiz-adv-x="2272" 
d="M1876 2800h292l-280 -2800h-368l-368 2300l-328 -2300h-384l-348 2800h324l228 -2304l348 2304h316l388 -2304z" />
    <glyph glyph-name="X" unicode="X" horiz-adv-x="1428" 
d="M708 1076l-296 -1076h-332l452 1404l-436 1396h328l300 -1060l296 1060h316l-432 -1372l464 -1428h-344z" />
    <glyph glyph-name="Y" unicode="Y" horiz-adv-x="1304" 
d="M508 1048l-468 1752h340l292 -1340l272 1340h320l-436 -1760v-1040h-320v1048z" />
    <glyph glyph-name="Z" unicode="Z" horiz-adv-x="1284" 
d="M844 2504h-660v296h972v-296l-704 -2208h720v-296h-1048v296z" />
    <glyph glyph-name="bracketleft" unicode="[" horiz-adv-x="996" 
d="M248 3048h628v-264h-344v-2836h344v-264h-628v3364z" />
    <glyph glyph-name="backslash" unicode="\" horiz-adv-x="1048" 
d="M1008 -316h-264l-708 3364h264z" />
    <glyph glyph-name="bracketright" unicode="]" horiz-adv-x="996" 
d="M744 -316h-624v264h340v2836h-340v264h624v-3364z" />
    <glyph glyph-name="asciicircum" unicode="^" horiz-adv-x="1412" 
d="M380 1608h-268l412 1316h372l404 -1316h-272l-324 1124z" />
    <glyph glyph-name="underscore" unicode="_" horiz-adv-x="964" 
d="M964 -516h-964v284h964v-284z" />
    <glyph glyph-name="grave" unicode="`" horiz-adv-x="1456" 
d="M872 2532h-220l-272 448h344z" />
    <glyph glyph-name="a" unicode="a" horiz-adv-x="1440" 
d="M936 1488q0 156 -12 258t-36 162t-62 82t-86 22q-44 0 -82 -20t-68 -72t-46 -148t-16 -244h-300q0 116 14 250t68 248t160 188t290 74q104 0 192 -36t150 -120t98 -222t36 -342v-1568h-220l-64 212q-68 -100 -150 -176t-234 -76q-56 0 -128 22t-138 88t-112 190t-46 324
q0 360 202 542t590 198v164zM460 600q0 -200 56 -272t136 -72t156 66t128 154v628q-148 -8 -240 -50t-144 -108t-72 -156t-20 -190z" />
    <glyph glyph-name="b" unicode="b" horiz-adv-x="1464" 
d="M516 2088q56 76 138 138t198 62q80 0 162 -40t150 -166t110 -356t42 -606q0 -380 -42 -608t-110 -352t-150 -162t-162 -38q-128 0 -214 60t-142 124l-60 -144h-224v2928h304v-840zM1004 1120q0 300 -18 478t-48 270t-72 118t-90 26q-68 0 -142 -70t-118 -138v-1408
q44 -52 118 -106t142 -54q48 0 90 24t72 114t48 266t18 480z" />
    <glyph glyph-name="c" unicode="c" horiz-adv-x="1360" 
d="M1228 732q0 -220 -38 -368t-106 -238t-158 -128t-198 -38q-132 0 -238 48t-182 176t-118 354t-42 582t42 582t118 356t182 180t238 50q108 0 196 -42t152 -138t100 -254t36 -390h-296q0 548 -188 548q-64 0 -114 -42t-84 -144t-52 -274t-18 -432t18 -432t52 -272t84 -140
t114 -40q92 0 144 114t52 382h304z" />
    <glyph glyph-name="d" unicode="d" horiz-adv-x="1464" 
d="M948 2928h304v-2928h-224l-60 216q-56 -88 -142 -172t-214 -84q-80 0 -162 38t-150 162t-110 352t-42 608q0 376 44 606t116 356t164 166t188 40q88 0 160 -30t128 -66v736zM460 1120q0 -296 18 -468t48 -260t72 -112t90 -24q60 0 134 62t126 150v1472q-44 32 -118 62
t-142 30q-48 0 -90 -26t-72 -120t-48 -276t-18 -490z" />
    <glyph glyph-name="e" unicode="e" horiz-adv-x="1396" 
d="M456 996q4 -236 22 -384t50 -232t82 -114t114 -30q48 0 94 18t80 68t54 140t20 230h272q0 -224 -42 -368t-114 -224t-166 -110t-198 -30q-132 0 -238 50t-182 182t-116 362t-40 586q0 368 42 594t118 348t182 164t234 42q140 0 240 -62t162 -210t90 -398t28 -622h-788z
M724 2012q-64 0 -112 -26t-80 -106t-52 -224t-24 -380h500q0 396 -54 566t-178 170z" />
    <glyph glyph-name="f" unicode="f" horiz-adv-x="1012" 
d="M812 2684q-204 0 -204 -220v-212h388v-256h-388v-1996h-304v1996h-256v256h256v232q0 208 110 342t354 134q80 0 154 -14t130 -34l-52 -256l-92 16q-48 12 -96 12z" />
    <glyph glyph-name="g" unicode="g" horiz-adv-x="1448" 
d="M740 2288q56 0 114 -10t114 -34l204 300l220 -212l-268 -212q68 -84 110 -224t42 -356q0 -236 -52 -380t-132 -224t-174 -108t-178 -28q-60 0 -106 8t-74 16q-28 -20 -56 -54t-28 -78q0 -76 68 -110t170 -60t220 -54t220 -88t170 -164t68 -280q0 -288 -172 -456
t-520 -168q-112 0 -214 24t-180 84t-126 156t-48 240q0 168 78 292t206 216q-84 36 -140 106t-56 198q0 92 56 170t124 134q-80 80 -138 224t-58 384t54 386t134 226t174 108t174 28zM740 2032q-44 0 -84 -20t-74 -74t-54 -150t-20 -248t20 -244t54 -146t74 -72t84 -18
q40 0 84 14t78 64t56 144t22 258q0 168 -22 266t-56 148t-78 64t-84 14zM1104 -104q0 104 -38 168t-100 102t-148 58t-182 40q-100 -80 -156 -174t-56 -218q0 -172 86 -240t214 -68q160 0 270 74t110 258z" />
    <glyph glyph-name="h" unicode="h" horiz-adv-x="1516" 
d="M1008 1708q0 176 -52 240t-120 64q-92 0 -166 -56t-154 -148v-1808h-304v2928h304v-848q76 84 174 146t242 62q180 0 280 -130t100 -378v-1780h-304v1708z" />
    <glyph glyph-name="i" unicode="i" horiz-adv-x="728" 
d="M212 2252h304v-2252h-304v2252zM212 2924h304v-392h-304v392z" />
    <glyph glyph-name="j" unicode="j" horiz-adv-x="772" 
d="M256 2252h304v-2200q0 -284 -108 -450t-388 -278l-104 256q76 44 132 82t92 86t54 118t18 178v2208zM256 2924h304v-392h-304v392z" />
    <glyph glyph-name="k" unicode="k" horiz-adv-x="1400" 
d="M212 2928h304v-1604h144l320 928h308l-388 -1064l452 -1188h-324l-388 1068h-124v-1068h-304v2928z" />
    <glyph glyph-name="l" unicode="l" horiz-adv-x="728" 
d="M212 2928h304v-2928h-304v2928z" />
    <glyph glyph-name="m" unicode="m" horiz-adv-x="2212" 
d="M1704 1708q0 180 -44 242t-112 62q-84 0 -152 -40t-136 -112q4 -20 4 -40v-1820h-304v1708q0 180 -44 242t-112 62q-88 0 -152 -56t-136 -148v-1808h-304v2252h244l40 -192q76 92 168 160t236 68q220 0 312 -212q80 88 180 150t252 62q180 0 272 -130t92 -378v-1780h-304
v1708z" />
    <glyph glyph-name="n" unicode="n" horiz-adv-x="1516" 
d="M1008 1708q0 176 -52 240t-120 64q-92 0 -166 -56t-154 -148v-1808h-304v2252h244l40 -192q80 92 182 160t254 68q180 0 280 -130t100 -378v-1780h-304v1708z" />
    <glyph glyph-name="o" unicode="o" horiz-adv-x="1456" 
d="M728 2288q124 0 230 -40t184 -164t122 -354t44 -610q0 -376 -44 -604t-122 -352t-184 -164t-230 -40t-230 40t-184 164t-122 352t-44 604q0 380 44 610t122 354t184 164t230 40zM728 2012q-64 0 -114 -32t-84 -128t-52 -270t-18 -462q0 -280 18 -454t52 -270t84 -130
t114 -34t116 28t86 120t52 268t18 472q0 300 -18 478t-52 270t-86 118t-116 26z" />
    <glyph glyph-name="p" unicode="p" horiz-adv-x="1464" 
d="M852 -40q-116 0 -198 50t-138 110v-796h-304v2928h224l56 -204q48 80 140 160t220 80q80 0 162 -40t150 -166t110 -356t42 -606q0 -380 -42 -608t-110 -352t-150 -162t-162 -38zM1004 1120q0 300 -18 478t-48 270t-72 118t-90 26q-68 0 -142 -70t-118 -138v-1408
q44 -52 118 -106t142 -54q48 0 90 24t72 114t48 266t18 480z" />
    <glyph glyph-name="q" unicode="q" horiz-adv-x="1464" 
d="M612 -40q-80 0 -162 38t-150 162t-110 352t-42 608q0 376 44 606t116 356t164 166t188 40q104 0 190 -36t142 -80l36 80h224v-2928h-304v860q-56 -80 -138 -152t-198 -72zM460 1120q0 -296 18 -468t48 -260t72 -112t90 -24q60 0 134 62t126 150v1472q-44 32 -118 62
t-142 30q-48 0 -90 -26t-72 -120t-48 -276t-18 -490z" />
    <glyph glyph-name="r" unicode="r" horiz-adv-x="1040" 
d="M992 1916q-32 8 -60 12t-72 4q-84 0 -144 -60t-102 -148t-66 -188t-32 -176v-1360h-304v2252h244l40 -408q16 84 44 164t70 142t104 100t150 38q44 0 70 -4t58 -12v-356z" />
    <glyph glyph-name="s" unicode="s" horiz-adv-x="1224" 
d="M800 1552q0 264 -54 366t-138 102q-56 0 -108 -52t-52 -160q0 -148 100 -298t222 -312t222 -346t100 -400q0 -240 -136 -366t-352 -126q-240 0 -370 174t-130 578h288q0 -152 20 -246t52 -148t72 -72t84 -18q72 0 128 50t56 174q0 160 -100 310t-222 310t-222 338
t-100 390q0 132 38 224t102 150t146 86t170 28q144 0 234 -64t140 -168t70 -236t24 -268h-284z" />
    <glyph glyph-name="t" unicode="t" horiz-adv-x="1056" 
d="M756 240q48 0 96 8t92 28l64 -252q-68 -36 -152 -50t-152 -14q-116 0 -196 40t-128 114t-68 182t-20 240v1460h-244v256h244v508h304v-508h360v-256h-360v-1428q0 -204 46 -266t114 -62z" />
    <glyph glyph-name="u" unicode="u" horiz-adv-x="1488" 
d="M508 540q0 -176 52 -240t120 -64q76 0 156 68t136 176v1772h304v-2252h-224l-56 228q-76 -116 -172 -192t-244 -76q-180 0 -278 130t-98 378v1784h304v-1712z" />
    <glyph glyph-name="v" unicode="v" horiz-adv-x="1268" 
d="M940 2252h288l-424 -2252h-348l-416 2252h292l308 -1888z" />
    <glyph glyph-name="w" unicode="w" horiz-adv-x="2140" 
d="M1772 2252h272l-292 -2252h-340l-324 1900l-312 -1900h-356l-336 2252h296l236 -1852l296 1852h356l316 -1852z" />
    <glyph glyph-name="x" unicode="x" horiz-adv-x="1256" 
d="M620 900l-256 -900h-304l384 1156l-392 1096h312l268 -836l232 836h288l-344 -1096l408 -1156h-324z" />
    <glyph glyph-name="y" unicode="y" horiz-adv-x="1296" 
d="M960 2252h284l-540 -2928h-288l120 680l-484 2248h308l324 -1756z" />
    <glyph glyph-name="z" unicode="z" horiz-adv-x="1176" 
d="M780 1996h-640v256h936v-272l-688 -1724h708v-256h-1016v272z" />
    <glyph glyph-name="braceleft" unicode="{" horiz-adv-x="1116" 
d="M368 1036q0 76 -48 132t-160 68v232q96 24 152 78t56 134v1004q0 116 38 188t98 110t134 52t146 14h212v-264h-216q-56 0 -96 -40t-40 -144v-1000q0 -84 -66 -138t-146 -78q88 -20 150 -84t62 -180v-952q0 -124 38 -172t86 -48h228v-264h-204q-88 0 -166 18t-134 62
t-90 124t-34 208v940z" />
    <glyph glyph-name="bar" unicode="|" horiz-adv-x="752" 
d="M252 3160h248v-4052h-248v4052z" />
    <glyph glyph-name="braceright" unicode="}" horiz-adv-x="1116" 
d="M748 1668q0 -76 48 -132t160 -68v-232q-96 -24 -152 -78t-56 -134v-976q0 -116 -38 -188t-98 -112t-134 -52t-146 -12h-212v264h216q56 0 96 40t40 144v972q0 84 66 138t146 78q-88 20 -150 84t-62 180v980q0 124 -38 172t-86 48h-228v264h204q88 0 166 -18t134 -62
t90 -126t34 -206v-968z" />
    <glyph glyph-name="asciitilde" unicode="~" horiz-adv-x="1420" 
d="M436 1316q-68 0 -128 -40t-80 -60l-108 172q64 80 166 138t222 58q72 0 128 -26t108 -56t104 -56t116 -26q68 0 118 34t90 74l128 -144q-44 -76 -146 -154t-230 -78q-80 0 -138 26t-112 56t-110 56t-128 26z" />
    <glyph glyph-name="uni00A0" unicode="&#xa0;" horiz-adv-x="600" 
 />
    <glyph glyph-name="exclamdown" unicode="&#xa1;" horiz-adv-x="808" 
d="M576 -552h-344l60 2076h224zM556 1856h-304v392h304v-392z" />
    <glyph glyph-name="cent" unicode="&#xa2;" horiz-adv-x="1280" 
d="M560 132q-96 20 -172 78t-130 172t-82 294t-28 444t28 444t82 296t130 176t172 80v384h228v-384q152 -32 248 -200t96 -532h-296q0 452 -148 452q-56 0 -98 -32t-72 -114t-44 -220t-14 -350t14 -350t44 -218t72 -110t98 -30q72 0 114 88t42 312h304q0 -172 -28 -294
t-76 -202t-114 -126t-142 -62v-428h-228v432z" />
    <glyph glyph-name="sterling" unicode="&#xa3;" horiz-adv-x="1368" 
d="M320 1292h-224v268h248l60 668q12 148 44 264t92 192t154 116t238 40q80 0 180 -14t176 -34l-52 -264q-68 12 -142 20t-130 8q-120 0 -182 -74t-78 -282l-56 -640h504v-268h-528l-84 -1008h644v-284h-976z" />
    <glyph glyph-name="currency" unicode="&#xa4;" horiz-adv-x="1792" 
d="M1448 1656q100 -156 100 -376q0 -116 -28 -210t-76 -170l228 -228l-172 -168l-228 228q-164 -100 -372 -100q-224 0 -376 100l-228 -228l-168 172l224 224q-48 80 -74 172t-26 208q0 220 96 372l-228 228l168 172l228 -232q80 52 176 80t208 28q216 0 376 -104l220 220
l172 -168zM900 884q180 0 274 112t94 284q0 176 -94 288t-274 112t-272 -112t-92 -288q0 -172 92 -284t272 -112z" />
    <glyph glyph-name="yen" unicode="&#xa5;" horiz-adv-x="1304" 
d="M508 488h-384v260h384v284h-384v260h316l-400 1508h340l292 -1340l272 1340h320l-376 -1508h292v-260h-352v-284h352v-260h-352v-488h-320v488z" />
    <glyph glyph-name="brokenbar" unicode="&#xa6;" horiz-adv-x="752" 
d="M252 1544v1616h248v-1616h-248zM252 1056h248v-1628h-248v1628z" />
    <glyph glyph-name="section" unicode="&#xa7;" horiz-adv-x="1540" 
d="M1028 2104q0 260 -60 360t-144 100q-72 0 -126 -46t-54 -154q0 -96 56 -196t140 -202t184 -210t184 -224t140 -238t56 -254q0 -188 -102 -302t-274 -158q100 -128 168 -262t68 -286q0 -244 -142 -366t-374 -122t-370 172t-138 580h296q0 -156 20 -250t52 -144t72 -68
t84 -18q88 0 148 46t60 170q0 108 -56 208t-138 202t-180 204t-180 214t-138 232t-56 256q0 200 98 306t270 146q-100 120 -168 254t-68 302q0 128 36 220t100 150t152 86t188 28q144 0 238 -64t148 -168t76 -236t26 -268h-292zM512 1356q0 -68 32 -142t80 -146t110 -144
t122 -140q104 8 180 64t76 192q0 148 -106 286t-238 278q-116 -8 -186 -66t-70 -182z" />
    <glyph glyph-name="dieresis" unicode="&#xa8;" horiz-adv-x="1456" 
d="M308 2924h304v-392h-304v392zM848 2924h304v-392h-304v392z" />
    <glyph glyph-name="copyright" unicode="&#xa9;" horiz-adv-x="2400" 
d="M1628 1132q0 -160 -32 -270t-84 -176t-124 -96t-148 -30q-104 0 -190 36t-146 128t-92 256t-32 420t34 420t94 258t144 128t188 34q76 0 144 -32t120 -108t80 -202t28 -314h-256q0 404 -116 404q-44 0 -80 -24t-60 -90t-36 -180t-12 -294q0 -176 12 -290t36 -178t60 -88
t80 -24q56 0 90 66t34 246h264zM1204 2848q184 0 370 -56t334 -212t240 -432t92 -712q0 -456 -94 -744t-244 -450t-334 -222t-364 -60t-366 60t-336 222t-246 450t-96 744q0 436 98 712t250 432t336 212t360 56zM1204 2604q-144 0 -282 -48t-246 -176t-176 -356t-68 -588
q0 -380 68 -620t176 -376t246 -186t282 -50t282 42t246 172t174 372t66 646q0 380 -66 610t-174 354t-246 164t-282 40z" />
    <glyph glyph-name="ordfeminine" unicode="&#xaa;" horiz-adv-x="996" 
d="M612 2464q0 148 -28 202t-84 54t-84 -54t-28 -198h-244q0 104 16 190t56 146t112 94t180 34q156 0 252 -92t96 -328v-916h-196l-36 116q-40 -52 -106 -96t-154 -44q-40 0 -90 12t-92 50t-70 110t-28 192q0 112 30 190t96 126t164 74t238 34v104zM336 1948q0 -92 34 -118
t78 -26t90 22t74 74v280q-164 -12 -220 -66t-56 -166z" />
    <glyph glyph-name="guillemotleft" unicode="&#xab;" horiz-adv-x="1412" 
d="M1012 1148l232 -776h-252l-252 776l236 776h264zM472 1144l232 -776h-252l-252 776l236 776h264z" />
    <glyph glyph-name="logicalnot" unicode="&#xac;" horiz-adv-x="1400" 
d="M1036 948v476h-936v240h1176v-716h-240z" />
    <glyph glyph-name="uni00AD" unicode="&#xad;" horiz-adv-x="1156" 
d="M936 1180h-716v284h716v-284z" />
    <glyph glyph-name="registered" unicode="&#xae;" horiz-adv-x="1296" 
d="M1028 2268q0 164 -34 266t-88 160t-122 78t-136 20t-134 -22t-120 -82t-88 -162t-34 -258q0 -168 34 -276t88 -172t120 -88t134 -24t136 22t122 82t88 170t34 286zM120 2268q0 204 48 332t126 202t170 100t184 26q96 0 190 -26t168 -100t122 -202t48 -332
q0 -216 -48 -350t-124 -212t-170 -106t-186 -28t-186 28t-170 106t-124 212t-48 350zM676 2160h-76v-272h-148v744h212q108 0 160 -62t52 -170q0 -92 -18 -132t-38 -64l64 -316h-156zM600 2292h72q32 0 42 30t10 78q0 104 -68 104h-56v-212z" />
    <glyph glyph-name="macron" unicode="&#xaf;" horiz-adv-x="1456" 
d="M360 2784h740v-252h-740v252z" />
    <glyph glyph-name="degree" unicode="&#xb0;" horiz-adv-x="1216" 
d="M604 2844q204 0 328 -120t124 -324q0 -200 -124 -320t-328 -120q-200 0 -322 116t-122 324q0 204 122 324t322 120zM604 2620q-92 0 -144 -60t-52 -160q0 -92 52 -152t144 -60q88 0 138 60t50 152q0 100 -50 160t-138 60z" />
    <glyph glyph-name="plusminus" unicode="&#xb1;" horiz-adv-x="1400" 
d="M572 1424h-440v240h440v456h264v-456h436v-240h-436v-456h-264v456zM128 549v240h1148v-240h-1148z" />
    <glyph glyph-name="twosuperior" unicode="&#xb2;" horiz-adv-x="840" 
d="M96 1668q0 124 66 234t146 212t146 196t66 190q0 52 -14 96t-66 44q-44 0 -80 -52t-36 -204h-220q0 252 88 354t240 102q140 0 222 -80t82 -268q0 -124 -64 -234t-142 -210t-142 -188t-64 -164h404v-204h-632v176z" />
    <glyph glyph-name="threesuperior" unicode="&#xb3;" horiz-adv-x="904" 
d="M552 2476q0 24 -2 52t-12 54t-28 44t-50 18q-56 0 -94 -70t-38 -226h-212q0 252 84 372t264 120q92 0 156 -30t102 -80t54 -114t16 -128q0 -132 -38 -196t-130 -96q128 -32 166 -134t38 -214t-32 -186t-82 -120t-116 -64t-134 -18q-176 0 -264 116t-88 364h216
q0 -156 44 -218t100 -62q124 0 124 188q0 116 -38 166t-150 66v184q64 20 104 56t40 156z" />
    <glyph glyph-name="acute" unicode="&#xb4;" horiz-adv-x="1456" 
d="M760 2980h344l-272 -448h-220z" />
    <glyph glyph-name="mu" unicode="&#xb5;" horiz-adv-x="1488" 
d="M508 540q0 -176 52 -240t120 -64q76 0 156 68t136 176v1772h304v-2252h-224l-56 228q-76 -116 -172 -192t-244 -76q-64 0 -124 24q8 -52 12 -108t4 -116v-436h-268v2928h304v-1712z" />
    <glyph glyph-name="paragraph" unicode="&#xb6;" horiz-adv-x="1868" 
d="M132 1880q0 288 40 468t112 280t176 136t232 36h324v-3100h-304v1260q-144 0 -252 48t-182 156t-110 284t-36 432zM1316 2800h304v-3100h-304v3100z" />
    <glyph glyph-name="periodcentered" unicode="&#xb7;" horiz-adv-x="524" 
d="M108 1728h304v-392h-304v392z" />
    <glyph glyph-name="cedilla" unicode="&#xb8;" horiz-adv-x="872" 
d="M504 76l-72 -272q152 -4 216 -62t64 -174q0 -80 -32 -132t-82 -84t-112 -44t-122 -12q-56 0 -96 6t-84 18v180q96 -28 164 -28t122 18t54 78q0 56 -54 76t-158 20h-36q-20 0 -52 -4v124l112 292h168z" />
    <glyph glyph-name="onesuperior" unicode="&#xb9;" horiz-adv-x="784" 
d="M316 1492v1004h-216v164l280 140h172v-1308h-236z" />
    <glyph glyph-name="ordmasculine" unicode="&#xba;" horiz-adv-x="1160" 
d="M588 2928q80 0 154 -26t132 -100t92 -210t34 -352q0 -208 -36 -334t-94 -194t-134 -90t-156 -22t-156 22t-134 90t-94 194t-36 334q0 216 36 352t96 210t138 100t158 26zM580 2696q-36 0 -66 -18t-54 -68t-36 -138t-12 -232q0 -140 12 -226t36 -136t54 -68t66 -18t68 16
t56 64t36 136t12 232q0 148 -12 238t-36 138t-56 64t-68 16z" />
    <glyph glyph-name="guillemotright" unicode="&#xbb;" horiz-adv-x="1412" 
d="M172 1924h264l236 -776l-252 -776h-252l232 776zM712 1920h264l236 -776l-252 -776h-252l232 776z" />
    <glyph glyph-name="onequarter" unicode="&#xbc;" horiz-adv-x="2080" 
d="M316 1492v1004h-216v164l280 140h172v-1308h-236zM1580 2800h236l-1400 -2800h-236zM1372 404h236v376q0 48 2 124t6 132zM1160 404l384 904h268v-904h152v-176h-152v-228h-204v228h-448v176z" />
    <glyph glyph-name="onehalf" unicode="&#xbd;" horiz-adv-x="2080" 
d="M316 1492v1004h-216v164l280 140h172v-1308h-236zM1560 2800h236l-1400 -2800h-236zM1296 177q0 124 66 234t146 212t146 196t66 190q0 52 -14 96t-66 44q-44 0 -80 -52t-36 -204h-220q0 252 88 354t240 102q140 0 222 -80t82 -268q0 -124 -64 -234t-142 -210t-142 -188
t-64 -164h404v-204h-632v176z" />
    <glyph glyph-name="threequarters" unicode="&#xbe;" horiz-adv-x="2252" 
d="M552 2476q0 24 -2 52t-12 54t-28 44t-50 18q-56 0 -94 -70t-38 -226h-212q0 252 84 372t264 120q92 0 156 -30t102 -80t54 -114t16 -128q0 -132 -38 -196t-130 -96q128 -32 166 -134t38 -214t-32 -186t-82 -120t-116 -64t-134 -18q-176 0 -264 116t-88 364h216
q0 -156 44 -218t100 -62q124 0 124 188q0 116 -38 166t-150 66v184q64 20 104 56t40 156zM1712 2800h236l-1400 -2800h-236zM1492 404h236v376q0 48 2 124t6 132zM1280 404l384 904h268v-904h152v-176h-152v-228h-204v228h-448v176z" />
    <glyph glyph-name="questiondown" unicode="&#xbf;" horiz-adv-x="1188" 
d="M752 1524l4 -140q0 -196 -28 -336t-72 -248t-92 -194t-92 -172t-72 -184t-28 -226q0 -168 56 -260t152 -92q112 0 174 146t62 478h268q0 -476 -134 -682t-382 -206q-196 0 -330 148t-134 460q0 148 30 262t76 212t100 194t100 210t76 258t30 340v32h236zM776 1856h-304
v392h304v-392z" />
    <glyph glyph-name="Agrave" unicode="&#xc0;" horiz-adv-x="1524" 
d="M1044 708h-540l-108 -708h-332l512 2800h408l508 -2800h-336zM552 1004h448l-224 1456zM956 3032h-272l-392 400h396z" />
    <glyph glyph-name="Aacute" unicode="&#xc1;" horiz-adv-x="1524" 
d="M1044 708h-540l-108 -708h-332l512 2800h408l508 -2800h-336zM552 1004h448l-224 1456zM872 3432h396l-392 -400h-272z" />
    <glyph glyph-name="Acircumflex" unicode="&#xc2;" horiz-adv-x="1524" 
d="M1044 708h-540l-108 -708h-332l512 2800h408l508 -2800h-336zM552 1004h448l-224 1456zM632 3432h284l276 -400h-276l-148 220l-148 -220h-260z" />
    <glyph glyph-name="Atilde" unicode="&#xc3;" horiz-adv-x="1524" 
d="M1044 708h-540l-108 -708h-332l512 2800h408l508 -2800h-336zM552 1004h448l-224 1456zM1228 3416q0 -132 -26 -210t-66 -120t-86 -56t-94 -14q-64 0 -118 22t-122 94l-56 56q-28 28 -52 28q-36 0 -66 -40t-30 -144h-196q0 128 28 208t70 122t94 56t96 14q72 0 122 -32
t106 -92t78 -72t42 -12q40 0 60 38t20 154h196z" />
    <glyph glyph-name="Adieresis" unicode="&#xc4;" horiz-adv-x="1524" 
d="M1044 708h-540l-108 -708h-332l512 2800h408l508 -2800h-336zM552 1004h448l-224 1456zM356 3424h304v-392h-304v392zM896 3424h304v-392h-304v392z" />
    <glyph glyph-name="Aring" unicode="&#xc5;" horiz-adv-x="1524" 
d="M1044 708h-540l-108 -708h-332l512 2800h408l508 -2800h-336zM552 1004h448l-224 1456zM776 3140q52 0 76 30t24 74t-24 74t-76 30t-76 -30t-24 -74t24 -74t76 -30zM776 3000q-116 0 -200 64t-84 180t84 182t200 66t200 -66t84 -182t-84 -180t-200 -64z" />
    <glyph glyph-name="AE" unicode="&#xc6;" horiz-adv-x="2200" 
d="M1120 708h-544l-216 -708h-320l928 2800h1064v-296h-616v-964h556v-296h-556v-948h616v-296h-912v708zM1120 1004v1468l-452 -1468h452z" />
    <glyph glyph-name="Ccedilla" unicode="&#xc7;" horiz-adv-x="1540" 
d="M1408 932q0 -280 -46 -466t-126 -298t-190 -160t-238 -48q-148 0 -270 60t-208 220t-134 440t-48 720t50 720t136 440t208 220t266 60q128 0 236 -50t186 -168t120 -316t42 -490h-352q0 376 -52 548t-180 172q-76 0 -134 -48t-96 -174t-58 -348t-20 -566t20 -566t58 -348
t96 -174t134 -48q116 0 178 148t62 520h360zM904 76l-72 -272q152 -4 216 -62t64 -174q0 -80 -32 -132t-82 -84t-112 -44t-122 -12q-56 0 -96 6t-84 18v180q96 -28 164 -28t122 18t54 78q0 56 -54 76t-158 20h-36q-20 0 -52 -4v124l112 292h168z" />
    <glyph glyph-name="Egrave" unicode="&#xc8;" horiz-adv-x="1348" 
d="M248 2800h932v-296h-608v-964h548v-296h-548v-948h608v-296h-932v2800zM936 3032h-272l-392 400h396z" />
    <glyph glyph-name="Eacute" unicode="&#xc9;" horiz-adv-x="1348" 
d="M248 2800h932v-296h-608v-964h548v-296h-548v-948h608v-296h-932v2800zM796 3432h396l-392 -400h-272z" />
    <glyph glyph-name="Ecircumflex" unicode="&#xca;" horiz-adv-x="1348" 
d="M248 2800h932v-296h-608v-964h548v-296h-548v-948h608v-296h-932v2800zM560 3432h284l276 -400h-276l-148 220l-148 -220h-260z" />
    <glyph glyph-name="Edieresis" unicode="&#xcb;" horiz-adv-x="1348" 
d="M248 2800h932v-296h-608v-964h548v-296h-548v-948h608v-296h-932v2800zM284 3424h304v-392h-304v392zM824 3424h304v-392h-304v392z" />
    <glyph glyph-name="Igrave" unicode="&#xcc;" horiz-adv-x="820" 
d="M248 2800h324v-2800h-324v2800zM552 3032h-272l-392 400h396z" />
    <glyph glyph-name="Iacute" unicode="&#xcd;" horiz-adv-x="820" 
d="M248 2800h324v-2800h-324v2800zM532 3432h396l-392 -400h-272z" />
    <glyph glyph-name="Icircumflex" unicode="&#xce;" horiz-adv-x="820" 
d="M248 2800h324v-2800h-324v2800zM260 3432h284l276 -400h-276l-148 220l-148 -220h-260z" />
    <glyph glyph-name="Idieresis" unicode="&#xcf;" horiz-adv-x="820" 
d="M248 2800h324v-2800h-324v2800zM-20 3424h304v-392h-304v392zM520 3424h304v-392h-304v392z" />
    <glyph glyph-name="Eth" unicode="&#xd0;" horiz-adv-x="1688" 
d="M1540 1400q0 -380 -42 -646t-122 -434t-204 -244t-284 -76h-576v1272h-200v244h200v1284h580q140 0 258 -60t206 -216t136 -428t48 -696zM636 1516h232v-244h-232v-992h268q156 0 220 266t64 854q0 324 -18 540t-60 346t-106 182t-160 52h-208v-1004z" />
    <glyph glyph-name="Ntilde" unicode="&#xd1;" horiz-adv-x="1748" 
d="M568 2800l664 -2144q-24 328 -24 556v1588h292v-2800h-300l-684 2152q4 -56 10 -134t10 -160t6 -156t2 -114v-1588h-296v2800h320zM1348 3416q0 -132 -26 -210t-66 -120t-86 -56t-94 -14q-64 0 -118 22t-122 94l-56 56q-28 28 -52 28q-36 0 -66 -40t-30 -144h-196
q0 128 28 208t70 122t94 56t96 14q72 0 122 -32t106 -92t78 -72t42 -12q40 0 60 38t20 154h196z" />
    <glyph glyph-name="Ograve" unicode="&#xd2;" horiz-adv-x="1632" 
d="M816 2840q136 0 258 -48t212 -202t144 -438t54 -752t-54 -752t-144 -438t-212 -202t-258 -48t-258 48t-212 202t-144 438t-54 752t54 752t144 438t212 202t258 48zM816 2536q-80 0 -138 -36t-98 -156t-60 -344t-20 -600t20 -600t60 -344t98 -156t138 -36t140 32t100 146
t60 340t20 618q0 388 -20 616t-58 342t-98 146t-144 32zM1000 3032h-272l-392 400h396z" />
    <glyph glyph-name="Oacute" unicode="&#xd3;" horiz-adv-x="1632" 
d="M816 2840q136 0 258 -48t212 -202t144 -438t54 -752t-54 -752t-144 -438t-212 -202t-258 -48t-258 48t-212 202t-144 438t-54 752t54 752t144 438t212 202t258 48zM816 2536q-80 0 -138 -36t-98 -156t-60 -344t-20 -600t20 -600t60 -344t98 -156t138 -36t140 32t100 146
t60 340t20 618q0 388 -20 616t-58 342t-98 146t-144 32zM892 3432h396l-392 -400h-272z" />
    <glyph glyph-name="Ocircumflex" unicode="&#xd4;" horiz-adv-x="1632" 
d="M816 2840q136 0 258 -48t212 -202t144 -438t54 -752t-54 -752t-144 -438t-212 -202t-258 -48t-258 48t-212 202t-144 438t-54 752t54 752t144 438t212 202t258 48zM816 2536q-80 0 -138 -36t-98 -156t-60 -344t-20 -600t20 -600t60 -344t98 -156t138 -36t140 32t100 146
t60 340t20 618q0 388 -20 616t-58 342t-98 146t-144 32zM676 3432h284l276 -400h-276l-148 220l-148 -220h-260z" />
    <glyph glyph-name="Otilde" unicode="&#xd5;" horiz-adv-x="1632" 
d="M816 2840q136 0 258 -48t212 -202t144 -438t54 -752t-54 -752t-144 -438t-212 -202t-258 -48t-258 48t-212 202t-144 438t-54 752t54 752t144 438t212 202t258 48zM816 2536q-80 0 -138 -36t-98 -156t-60 -344t-20 -600t20 -600t60 -344t98 -156t138 -36t140 32t100 146
t60 340t20 618q0 388 -20 616t-58 342t-98 146t-144 32zM1280 3416q0 -132 -26 -210t-66 -120t-86 -56t-94 -14q-64 0 -118 22t-122 94l-56 56q-28 28 -52 28q-36 0 -66 -40t-30 -144h-196q0 128 28 208t70 122t94 56t96 14q72 0 122 -32t106 -92t78 -72t42 -12q40 0 60 38
t20 154h196z" />
    <glyph glyph-name="Odieresis" unicode="&#xd6;" horiz-adv-x="1632" 
d="M816 2840q136 0 258 -48t212 -202t144 -438t54 -752t-54 -752t-144 -438t-212 -202t-258 -48t-258 48t-212 202t-144 438t-54 752t54 752t144 438t212 202t258 48zM816 2536q-80 0 -138 -36t-98 -156t-60 -344t-20 -600t20 -600t60 -344t98 -156t138 -36t140 32t100 146
t60 340t20 618q0 388 -20 616t-58 342t-98 146t-144 32zM396 3424h304v-392h-304v392zM936 3424h304v-392h-304v392z" />
    <glyph glyph-name="multiply" unicode="&#xd7;" horiz-adv-x="1400" 
d="M868 1368l320 -316l-172 -168l-316 316l-320 -320l-168 172l316 316l-316 320l168 172l320 -320l316 316l172 -168z" />
    <glyph glyph-name="Oslash" unicode="&#xd8;" horiz-adv-x="1632" 
d="M816 2840q116 0 208 -32l40 184h204l-64 -296q64 -64 116 -168t88 -260t56 -370t20 -498q0 -468 -54 -752t-144 -438t-212 -202t-258 -48q-56 0 -108 6t-100 26l-40 -184h-204l64 292q-64 64 -116 168t-88 260t-56 372t-20 500q0 468 54 752t144 438t212 202t258 48z
M1144 1400q0 292 -12 490t-36 326l-420 -1920q32 -24 66 -32t74 -8q80 0 140 32t102 150t64 344t22 618zM816 2544q-80 0 -140 -38t-100 -158t-62 -346t-22 -602q0 -280 12 -474t32 -322l420 1908q-52 32 -140 32z" />
    <glyph glyph-name="Ugrave" unicode="&#xd9;" horiz-adv-x="1704" 
d="M852 -40q-116 0 -226 34t-196 116t-138 218t-52 340v2132h324v-2088q0 -148 22 -238t62 -138t92 -62t112 -14t112 14t90 62t62 138t24 238v2088h324v-2132q0 -204 -52 -340t-138 -218t-196 -116t-226 -34zM1060 3032h-272l-392 400h396z" />
    <glyph glyph-name="Uacute" unicode="&#xda;" horiz-adv-x="1704" 
d="M852 -40q-116 0 -226 34t-196 116t-138 218t-52 340v2132h324v-2088q0 -148 22 -238t62 -138t92 -62t112 -14t112 14t90 62t62 138t24 238v2088h324v-2132q0 -204 -52 -340t-138 -218t-196 -116t-226 -34zM920 3432h396l-392 -400h-272z" />
    <glyph glyph-name="Ucircumflex" unicode="&#xdb;" horiz-adv-x="1704" 
d="M852 -40q-116 0 -226 34t-196 116t-138 218t-52 340v2132h324v-2088q0 -148 22 -238t62 -138t92 -62t112 -14t112 14t90 62t62 138t24 238v2088h324v-2132q0 -204 -52 -340t-138 -218t-196 -116t-226 -34zM708 3432h284l276 -400h-276l-148 220l-148 -220h-260z" />
    <glyph glyph-name="Udieresis" unicode="&#xdc;" horiz-adv-x="1704" 
d="M852 -40q-116 0 -226 34t-196 116t-138 218t-52 340v2132h324v-2088q0 -148 22 -238t62 -138t92 -62t112 -14t112 14t90 62t62 138t24 238v2088h324v-2132q0 -204 -52 -340t-138 -218t-196 -116t-226 -34zM436 3424h304v-392h-304v392zM976 3424h304v-392h-304v392z" />
    <glyph glyph-name="Yacute" unicode="&#xdd;" horiz-adv-x="1304" 
d="M508 1048l-468 1752h340l292 -1340l272 1340h320l-436 -1760v-1040h-320v1048zM752 3432h396l-392 -400h-272z" />
    <glyph glyph-name="Thorn" unicode="&#xde;" horiz-adv-x="1400" 
d="M248 2800h324v-648h200q120 0 218 -36t170 -122t112 -226t40 -348q0 -376 -134 -554t-410 -178h-196v-688h-324v2800zM572 1896v-952h212q132 0 174 108t42 368q0 144 -12 236t-44 146t-84 74t-136 20h-152z" />
    <glyph glyph-name="germandbls" unicode="&#xdf;" horiz-adv-x="1512" 
d="M212 2368q0 272 112 432t400 160q256 0 378 -176t122 -512q0 -196 -64 -354t-204 -226q84 -20 156 -76t126 -156t84 -248t30 -352q0 -288 -44 -458t-128 -260t-206 -116t-278 -26v240q96 0 162 22t106 88t58 188t18 326q0 344 -82 492t-262 168v248q132 24 174 138
t42 358q0 428 -188 428q-108 0 -158 -80t-50 -296v-2320h-304v2368z" />
    <glyph glyph-name="agrave" unicode="&#xe0;" horiz-adv-x="1440" 
d="M936 1488q0 156 -12 258t-36 162t-62 82t-86 22q-44 0 -82 -20t-68 -72t-46 -148t-16 -244h-300q0 116 14 250t68 248t160 188t290 74q104 0 192 -36t150 -120t98 -222t36 -342v-1568h-220l-64 212q-68 -100 -150 -176t-234 -76q-56 0 -128 22t-138 88t-112 190t-46 324
q0 360 202 542t590 198v164zM460 600q0 -200 56 -272t136 -72t156 66t128 154v628q-148 -8 -240 -50t-144 -108t-72 -156t-20 -190zM916 2532h-220l-272 448h344z" />
    <glyph glyph-name="aacute" unicode="&#xe1;" horiz-adv-x="1440" 
d="M936 1488q0 156 -12 258t-36 162t-62 82t-86 22q-44 0 -82 -20t-68 -72t-46 -148t-16 -244h-300q0 116 14 250t68 248t160 188t290 74q104 0 192 -36t150 -120t98 -222t36 -342v-1568h-220l-64 212q-68 -100 -150 -176t-234 -76q-56 0 -128 22t-138 88t-112 190t-46 324
q0 360 202 542t590 198v164zM460 600q0 -200 56 -272t136 -72t156 66t128 154v628q-148 -8 -240 -50t-144 -108t-72 -156t-20 -190zM764 2980h344l-272 -448h-220z" />
    <glyph glyph-name="acircumflex" unicode="&#xe2;" horiz-adv-x="1440" 
d="M936 1488q0 156 -12 258t-36 162t-62 82t-86 22q-44 0 -82 -20t-68 -72t-46 -148t-16 -244h-300q0 116 14 250t68 248t160 188t290 74q104 0 192 -36t150 -120t98 -222t36 -342v-1568h-220l-64 212q-68 -100 -150 -176t-234 -76q-56 0 -128 22t-138 88t-112 190t-46 324
q0 360 202 542t590 198v164zM460 600q0 -200 56 -272t136 -72t156 66t128 154v628q-148 -8 -240 -50t-144 -108t-72 -156t-20 -190zM600 2980h284l224 -448h-256l-116 256l-116 -256h-240z" />
    <glyph glyph-name="atilde" unicode="&#xe3;" horiz-adv-x="1440" 
d="M936 1488q0 156 -12 258t-36 162t-62 82t-86 22q-44 0 -82 -20t-68 -72t-46 -148t-16 -244h-300q0 116 14 250t68 248t160 188t290 74q104 0 192 -36t150 -120t98 -222t36 -342v-1568h-220l-64 212q-68 -100 -150 -176t-234 -76q-56 0 -128 22t-138 88t-112 190t-46 324
q0 360 202 542t590 198v164zM460 600q0 -200 56 -272t136 -72t156 66t128 154v628q-148 -8 -240 -50t-144 -108t-72 -156t-20 -190zM1200 2964q0 -140 -26 -226t-66 -132t-86 -60t-94 -14q-64 0 -118 22t-118 94q-36 44 -62 72t-50 28q-36 0 -66 -42t-30 -158h-196
q0 140 28 224t70 130t94 62t96 16q72 0 122 -32t106 -100q52 -64 76 -78t44 -14q40 0 60 40t20 168h196z" />
    <glyph glyph-name="adieresis" unicode="&#xe4;" horiz-adv-x="1440" 
d="M936 1488q0 156 -12 258t-36 162t-62 82t-86 22q-44 0 -82 -20t-68 -72t-46 -148t-16 -244h-300q0 116 14 250t68 248t160 188t290 74q104 0 192 -36t150 -120t98 -222t36 -342v-1568h-220l-64 212q-68 -100 -150 -176t-234 -76q-56 0 -128 22t-138 88t-112 190t-46 324
q0 360 202 542t590 198v164zM460 600q0 -200 56 -272t136 -72t156 66t128 154v628q-148 -8 -240 -50t-144 -108t-72 -156t-20 -190zM316 2924h304v-392h-304v392zM856 2924h304v-392h-304v392z" />
    <glyph glyph-name="aring" unicode="&#xe5;" horiz-adv-x="1440" 
d="M936 1488q0 156 -12 258t-36 162t-62 82t-86 22q-44 0 -82 -20t-68 -72t-46 -148t-16 -244h-300q0 116 14 250t68 248t160 188t290 74q104 0 192 -36t150 -120t98 -222t36 -342v-1568h-220l-64 212q-68 -100 -150 -176t-234 -76q-56 0 -128 22t-138 88t-112 190t-46 324
q0 360 202 542t590 198v164zM460 600q0 -200 56 -272t136 -72t156 66t128 154v628q-148 -8 -240 -50t-144 -108t-72 -156t-20 -190zM740 2640q52 0 76 30t24 74t-24 74t-76 30t-76 -30t-24 -74t24 -74t76 -30zM740 2500q-116 0 -200 64t-84 180t84 182t200 66t200 -66
t84 -182t-84 -180t-200 -64z" />
    <glyph glyph-name="ae" unicode="&#xe6;" horiz-adv-x="2192" 
d="M1252 1068q4 -248 22 -406t50 -250t82 -128t114 -36q48 0 94 16t82 64t56 136t20 228h268q0 -224 -42 -368t-114 -224t-166 -110t-198 -30q-116 0 -228 56t-196 220q-96 -116 -214 -196t-306 -80q-64 0 -138 22t-140 88t-110 190t-44 324q0 344 204 504t588 196v204
q0 156 -12 258t-36 162t-62 82t-86 22q-44 0 -82 -20t-68 -72t-48 -148t-18 -244h-296q0 116 14 250t68 248t160 188t290 74q112 0 206 -50t162 -174q80 120 178 172t214 52q140 0 240 -56t162 -194t90 -374t28 -596h-788zM452 600q0 -104 16 -172t44 -108t64 -56t76 -16
q192 0 352 240q-56 224 -60 580q-152 -12 -248 -52t-150 -102t-74 -142t-20 -172zM1520 2012q-64 0 -112 -28t-80 -108t-52 -220t-24 -360h504q0 376 -56 546t-180 170z" />
    <glyph glyph-name="ccedilla" unicode="&#xe7;" horiz-adv-x="1360" 
d="M1228 732q0 -220 -38 -368t-106 -238t-158 -128t-198 -38q-132 0 -238 48t-182 176t-118 354t-42 582t42 582t118 356t182 180t238 50q108 0 196 -42t152 -138t100 -254t36 -390h-296q0 548 -188 548q-64 0 -114 -42t-84 -144t-52 -274t-18 -432t18 -432t52 -272t84 -140
t114 -40q92 0 144 114t52 382h304zM828 76l-72 -272q152 -4 216 -62t64 -174q0 -80 -32 -132t-82 -84t-112 -44t-122 -12q-56 0 -96 6t-84 18v180q96 -28 164 -28t122 18t54 78q0 56 -54 76t-158 20h-36q-20 0 -52 -4v124l112 292h168z" />
    <glyph glyph-name="egrave" unicode="&#xe8;" horiz-adv-x="1396" 
d="M456 996q4 -236 22 -384t50 -232t82 -114t114 -30q48 0 94 18t80 68t54 140t20 230h272q0 -224 -42 -368t-114 -224t-166 -110t-198 -30q-132 0 -238 50t-182 182t-116 362t-40 586q0 368 42 594t118 348t182 164t234 42q140 0 240 -62t162 -210t90 -398t28 -622h-788z
M724 2012q-64 0 -112 -26t-80 -106t-52 -224t-24 -380h500q0 396 -54 566t-178 170zM840 2532h-220l-272 448h344z" />
    <glyph glyph-name="eacute" unicode="&#xe9;" horiz-adv-x="1396" 
d="M456 996q4 -236 22 -384t50 -232t82 -114t114 -30q48 0 94 18t80 68t54 140t20 230h272q0 -224 -42 -368t-114 -224t-166 -110t-198 -30q-132 0 -238 50t-182 182t-116 362t-40 586q0 368 42 594t118 348t182 164t234 42q140 0 240 -62t162 -210t90 -398t28 -622h-788z
M724 2012q-64 0 -112 -26t-80 -106t-52 -224t-24 -380h500q0 396 -54 566t-178 170zM724 2980h344l-272 -448h-220z" />
    <glyph glyph-name="ecircumflex" unicode="&#xea;" horiz-adv-x="1396" 
d="M456 996q4 -236 22 -384t50 -232t82 -114t114 -30q48 0 94 18t80 68t54 140t20 230h272q0 -224 -42 -368t-114 -224t-166 -110t-198 -30q-132 0 -238 50t-182 182t-116 362t-40 586q0 368 42 594t118 348t182 164t234 42q140 0 240 -62t162 -210t90 -398t28 -622h-788z
M724 2012q-64 0 -112 -26t-80 -106t-52 -224t-24 -380h500q0 396 -54 566t-178 170zM560 2980h284l224 -448h-256l-116 256l-116 -256h-240z" />
    <glyph glyph-name="edieresis" unicode="&#xeb;" horiz-adv-x="1396" 
d="M456 996q4 -236 22 -384t50 -232t82 -114t114 -30q48 0 94 18t80 68t54 140t20 230h272q0 -224 -42 -368t-114 -224t-166 -110t-198 -30q-132 0 -238 50t-182 182t-116 362t-40 586q0 368 42 594t118 348t182 164t234 42q140 0 240 -62t162 -210t90 -398t28 -622h-788z
M724 2012q-64 0 -112 -26t-80 -106t-52 -224t-24 -380h500q0 396 -54 566t-178 170zM280 2924h304v-392h-304v392zM820 2924h304v-392h-304v392z" />
    <glyph glyph-name="igrave" unicode="&#xec;" horiz-adv-x="728" 
d="M212 2252h304v-2252h-304v2252zM468 2532h-220l-272 448h344z" />
    <glyph glyph-name="iacute" unicode="&#xed;" horiz-adv-x="728" 
d="M212 2252h304v-2252h-304v2252zM384 2980h344l-272 -448h-220z" />
    <glyph glyph-name="icircumflex" unicode="&#xee;" horiz-adv-x="728" 
d="M212 2252h304v-2252h-304v2252zM220 2980h284l224 -448h-256l-116 256l-116 -256h-240z" />
    <glyph glyph-name="idieresis" unicode="&#xef;" horiz-adv-x="728" 
d="M212 2252h304v-2252h-304v2252zM-56 2924h304v-392h-304v392zM484 2924h304v-392h-304v392z" />
    <glyph glyph-name="eth" unicode="&#xf0;" horiz-adv-x="1460" 
d="M1224 2496l-204 -76q124 -252 206 -588t82 -752q0 -368 -44 -588t-122 -338t-184 -156t-230 -38t-230 36t-184 144t-122 304t-44 516q0 328 48 526t124 306t172 142t196 34q96 0 192 -52q-64 200 -164 396l-284 -100v264l160 56q-132 204 -288 396h380q52 -56 106 -128
t106 -156l328 116v-264zM1000 1068q0 132 -10 254t-30 238q-44 64 -102 90t-130 26q-64 0 -114 -24t-84 -100t-52 -218t-18 -374q0 -228 18 -366t52 -214t84 -102t114 -26t116 22t86 104t52 244t18 446z" />
    <glyph glyph-name="ntilde" unicode="&#xf1;" horiz-adv-x="1516" 
d="M1008 1708q0 176 -52 240t-120 64q-92 0 -166 -56t-154 -148v-1808h-304v2252h244l40 -192q80 92 182 160t254 68q180 0 280 -130t100 -378v-1780h-304v1708zM1224 2964q0 -140 -26 -226t-66 -132t-86 -60t-94 -14q-64 0 -118 22t-118 94q-36 44 -62 72t-50 28
q-36 0 -66 -42t-30 -158h-196q0 140 28 224t70 130t94 62t96 16q72 0 122 -32t106 -100q52 -64 76 -78t44 -14q40 0 60 40t20 168h196z" />
    <glyph glyph-name="ograve" unicode="&#xf2;" horiz-adv-x="1456" 
d="M728 2288q124 0 230 -40t184 -164t122 -354t44 -610q0 -376 -44 -604t-122 -352t-184 -164t-230 -40t-230 40t-184 164t-122 352t-44 604q0 380 44 610t122 354t184 164t230 40zM728 2012q-64 0 -114 -32t-84 -128t-52 -270t-18 -462q0 -280 18 -454t52 -270t84 -130
t114 -34t116 28t86 120t52 268t18 472q0 300 -18 478t-52 270t-86 118t-116 26zM868 2532h-220l-272 448h344z" />
    <glyph glyph-name="oacute" unicode="&#xf3;" horiz-adv-x="1456" 
d="M728 2288q124 0 230 -40t184 -164t122 -354t44 -610q0 -376 -44 -604t-122 -352t-184 -164t-230 -40t-230 40t-184 164t-122 352t-44 604q0 380 44 610t122 354t184 164t230 40zM728 2012q-64 0 -114 -32t-84 -128t-52 -270t-18 -462q0 -280 18 -454t52 -270t84 -130
t114 -34t116 28t86 120t52 268t18 472q0 300 -18 478t-52 270t-86 118t-116 26zM716 2980h344l-272 -448h-220z" />
    <glyph glyph-name="ocircumflex" unicode="&#xf4;" horiz-adv-x="1456" 
d="M728 2288q124 0 230 -40t184 -164t122 -354t44 -610q0 -376 -44 -604t-122 -352t-184 -164t-230 -40t-230 40t-184 164t-122 352t-44 604q0 380 44 610t122 354t184 164t230 40zM728 2012q-64 0 -114 -32t-84 -128t-52 -270t-18 -462q0 -280 18 -454t52 -270t84 -130
t114 -34t116 28t86 120t52 268t18 472q0 300 -18 478t-52 270t-86 118t-116 26zM584 2980h284l224 -448h-256l-116 256l-116 -256h-240z" />
    <glyph glyph-name="otilde" unicode="&#xf5;" horiz-adv-x="1456" 
d="M728 2288q124 0 230 -40t184 -164t122 -354t44 -610q0 -376 -44 -604t-122 -352t-184 -164t-230 -40t-230 40t-184 164t-122 352t-44 604q0 380 44 610t122 354t184 164t230 40zM728 2012q-64 0 -114 -32t-84 -128t-52 -270t-18 -462q0 -280 18 -454t52 -270t84 -130
t114 -34t116 28t86 120t52 268t18 472q0 300 -18 478t-52 270t-86 118t-116 26zM1196 2964q0 -140 -26 -226t-66 -132t-86 -60t-94 -14q-64 0 -118 22t-118 94q-36 44 -62 72t-50 28q-36 0 -66 -42t-30 -158h-196q0 140 28 224t70 130t94 62t96 16q72 0 122 -32t106 -100
q52 -64 76 -78t44 -14q40 0 60 40t20 168h196z" />
    <glyph glyph-name="odieresis" unicode="&#xf6;" horiz-adv-x="1456" 
d="M728 2288q124 0 230 -40t184 -164t122 -354t44 -610q0 -376 -44 -604t-122 -352t-184 -164t-230 -40t-230 40t-184 164t-122 352t-44 604q0 380 44 610t122 354t184 164t230 40zM728 2012q-64 0 -114 -32t-84 -128t-52 -270t-18 -462q0 -280 18 -454t52 -270t84 -130
t114 -34t116 28t86 120t52 268t18 472q0 300 -18 478t-52 270t-86 118t-116 26zM316 2924h304v-392h-304v392zM856 2924h304v-392h-304v392z" />
    <glyph glyph-name="divide" unicode="&#xf7;" horiz-adv-x="1400" 
d="M568 1644v292h264v-292h-264zM568 1008h264v-292h-264v292zM164 1228v240h1072v-240h-1072z" />
    <glyph glyph-name="oslash" unicode="&#xf8;" horiz-adv-x="1456" 
d="M728 2288q92 0 160 -16l44 216h164l-60 -288q60 -48 110 -130t86 -210t56 -310t20 -430q0 -376 -44 -604t-122 -352t-184 -164t-230 -40q-88 0 -152 16l-44 -208h-164l56 276q-64 48 -114 128t-86 208t-56 310t-20 430q0 380 44 610t122 354t184 164t230 40zM728 2020
q-64 0 -116 -34t-88 -130t-54 -272t-18 -464q0 -248 14 -410t42 -266l324 1556q-40 20 -104 20zM1008 1120q0 256 -14 420t-42 264l-320 -1560q36 -20 96 -20q64 0 116 30t88 124t56 270t20 472z" />
    <glyph glyph-name="ugrave" unicode="&#xf9;" horiz-adv-x="1488" 
d="M508 540q0 -176 52 -240t120 -64q76 0 156 68t136 176v1772h304v-2252h-224l-56 228q-76 -116 -172 -192t-244 -76q-180 0 -278 130t-98 378v1784h304v-1712zM888 2532h-220l-272 448h344z" />
    <glyph glyph-name="uacute" unicode="&#xfa;" horiz-adv-x="1488" 
d="M508 540q0 -176 52 -240t120 -64q76 0 156 68t136 176v1772h304v-2252h-224l-56 228q-76 -116 -172 -192t-244 -76q-180 0 -278 130t-98 378v1784h304v-1712zM776 2980h344l-272 -448h-220z" />
    <glyph glyph-name="ucircumflex" unicode="&#xfb;" horiz-adv-x="1488" 
d="M508 540q0 -176 52 -240t120 -64q76 0 156 68t136 176v1772h304v-2252h-224l-56 228q-76 -116 -172 -192t-244 -76q-180 0 -278 130t-98 378v1784h304v-1712zM592 2980h284l224 -448h-256l-116 256l-116 -256h-240z" />
    <glyph glyph-name="udieresis" unicode="&#xfc;" horiz-adv-x="1488" 
d="M508 540q0 -176 52 -240t120 -64q76 0 156 68t136 176v1772h304v-2252h-224l-56 228q-76 -116 -172 -192t-244 -76q-180 0 -278 130t-98 378v1784h304v-1712zM316 2924h304v-392h-304v392zM856 2924h304v-392h-304v392z" />
    <glyph glyph-name="yacute" unicode="&#xfd;" horiz-adv-x="1296" 
d="M960 2252h284l-540 -2928h-288l120 680l-484 2248h308l324 -1756zM668 2980h344l-272 -448h-220z" />
    <glyph glyph-name="thorn" unicode="&#xfe;" horiz-adv-x="1464" 
d="M516 2084q52 76 136 140t200 64q80 0 162 -40t150 -166t110 -356t42 -606q0 -380 -42 -608t-110 -352t-150 -162t-162 -38q-116 0 -198 50t-138 110v-796h-304v3604h304v-844zM1004 1120q0 300 -18 478t-48 270t-72 118t-90 26q-68 0 -142 -70t-118 -138v-1408
q44 -52 118 -106t142 -54q48 0 90 24t72 114t48 266t18 480z" />
    <glyph glyph-name="ydieresis" unicode="&#xff;" horiz-adv-x="1296" 
d="M960 2252h284l-540 -2928h-288l120 680l-484 2248h308l324 -1756zM232 2924h304v-392h-304v392zM772 2924h304v-392h-304v392z" />
    <glyph glyph-name="Amacron" unicode="&#x100;" horiz-adv-x="1524" 
d="M1044 708h-540l-108 -708h-332l512 2800h408l508 -2800h-336zM552 1004h448l-224 1456zM396 3284h740v-252h-740v252z" />
    <glyph glyph-name="amacron" unicode="&#x101;" horiz-adv-x="1440" 
d="M936 1488q0 156 -12 258t-36 162t-62 82t-86 22q-44 0 -82 -20t-68 -72t-46 -148t-16 -244h-300q0 116 14 250t68 248t160 188t290 74q104 0 192 -36t150 -120t98 -222t36 -342v-1568h-220l-64 212q-68 -100 -150 -176t-234 -76q-56 0 -128 22t-138 88t-112 190t-46 324
q0 360 202 542t590 198v164zM460 600q0 -200 56 -272t136 -72t156 66t128 154v628q-148 -8 -240 -50t-144 -108t-72 -156t-20 -190zM380 2784h740v-252h-740v252z" />
    <glyph glyph-name="Abreve" unicode="&#x102;" horiz-adv-x="1524" 
d="M1044 708h-540l-108 -708h-332l512 2800h408l508 -2800h-336zM552 1004h448l-224 1456zM768 3000q-172 0 -282 98t-110 334h240q0 -120 42 -176t110 -56t110 56t42 176h240q0 -236 -114 -334t-278 -98z" />
    <glyph glyph-name="abreve" unicode="&#x103;" horiz-adv-x="1440" 
d="M936 1488q0 156 -12 258t-36 162t-62 82t-86 22q-44 0 -82 -20t-68 -72t-46 -148t-16 -244h-300q0 116 14 250t68 248t160 188t290 74q104 0 192 -36t150 -120t98 -222t36 -342v-1568h-220l-64 212q-68 -100 -150 -176t-234 -76q-56 0 -128 22t-138 88t-112 190t-46 324
q0 360 202 542t590 198v164zM460 600q0 -200 56 -272t136 -72t156 66t128 154v628q-148 -8 -240 -50t-144 -108t-72 -156t-20 -190zM748 2472q-164 0 -268 100t-104 360h240q0 -140 40 -200t92 -60t92 56t40 204h240q0 -128 -28 -216t-80 -142t-120 -78t-144 -24z" />
    <glyph glyph-name="Aogonek" unicode="&#x104;" horiz-adv-x="1524" 
d="M908 -392q0 136 68 228t176 172l-108 700h-540l-108 -708h-332l512 2800h408l508 -2800q-188 -84 -272 -168t-84 -172q0 -152 120 -152q72 0 152 20v-200q-40 -12 -92 -20t-108 -8q-152 0 -226 86t-74 222zM552 1004h448l-224 1456z" />
    <glyph glyph-name="aogonek" unicode="&#x105;" horiz-adv-x="1440" 
d="M936 1488q0 156 -12 258t-36 162t-62 82t-86 22q-44 0 -82 -20t-68 -72t-46 -148t-16 -244h-300q0 116 14 250t68 248t160 188t290 74q104 0 192 -36t150 -120t98 -222t36 -342v-1568q-152 -92 -214 -172t-62 -168q0 -152 120 -152q72 0 152 20v-200q-40 -12 -92 -20
t-108 -8q-152 0 -226 86t-74 222q0 152 80 250t196 162l-56 192q-68 -100 -150 -176t-234 -76q-56 0 -128 22t-138 88t-112 190t-46 324q0 360 202 542t590 198v164zM460 600q0 -200 56 -272t136 -72t156 66t128 154v628q-148 -8 -240 -50t-144 -108t-72 -156t-20 -190z" />
    <glyph glyph-name="Cacute" unicode="&#x106;" horiz-adv-x="1540" 
d="M1408 932q0 -280 -46 -466t-126 -298t-190 -160t-238 -48q-148 0 -270 60t-208 220t-134 440t-48 720t50 720t136 440t208 220t266 60q128 0 236 -50t186 -168t120 -316t42 -490h-352q0 376 -52 548t-180 172q-76 0 -134 -48t-96 -174t-58 -348t-20 -566t20 -566t58 -348
t96 -174t134 -48q116 0 178 148t62 520h360zM888 3432h396l-392 -400h-272z" />
    <glyph glyph-name="cacute" unicode="&#x107;" horiz-adv-x="1360" 
d="M1228 732q0 -220 -38 -368t-106 -238t-158 -128t-198 -38q-132 0 -238 48t-182 176t-118 354t-42 582t42 582t118 356t182 180t238 50q108 0 196 -42t152 -138t100 -254t36 -390h-296q0 548 -188 548q-64 0 -114 -42t-84 -144t-52 -274t-18 -432t18 -432t52 -272t84 -140
t114 -40q92 0 144 114t52 382h304zM712 2980h344l-272 -448h-220z" />
    <glyph glyph-name="Ccircumflex" unicode="&#x108;" horiz-adv-x="1540" 
d="M1408 932q0 -280 -46 -466t-126 -298t-190 -160t-238 -48q-148 0 -270 60t-208 220t-134 440t-48 720t50 720t136 440t208 220t266 60q128 0 236 -50t186 -168t120 -316t42 -490h-352q0 376 -52 548t-180 172q-76 0 -134 -48t-96 -174t-58 -348t-20 -566t20 -566t58 -348
t96 -174t134 -48q116 0 178 148t62 520h360zM664 3432h284l276 -400h-276l-148 220l-148 -220h-260z" />
    <glyph glyph-name="ccircumflex" unicode="&#x109;" horiz-adv-x="1360" 
d="M1228 732q0 -220 -38 -368t-106 -238t-158 -128t-198 -38q-132 0 -238 48t-182 176t-118 354t-42 582t42 582t118 356t182 180t238 50q108 0 196 -42t152 -138t100 -254t36 -390h-296q0 548 -188 548q-64 0 -114 -42t-84 -144t-52 -274t-18 -432t18 -432t52 -272t84 -140
t114 -40q92 0 144 114t52 382h304zM568 2980h284l224 -448h-256l-116 256l-116 -256h-240z" />
    <glyph glyph-name="Cdotaccent" unicode="&#x10a;" horiz-adv-x="1540" 
d="M1408 932q0 -280 -46 -466t-126 -298t-190 -160t-238 -48q-148 0 -270 60t-208 220t-134 440t-48 720t50 720t136 440t208 220t266 60q128 0 236 -50t186 -168t120 -316t42 -490h-352q0 376 -52 548t-180 172q-76 0 -134 -48t-96 -174t-58 -348t-20 -566t20 -566t58 -348
t96 -174t134 -48q116 0 178 148t62 520h360zM648 3424h304v-392h-304v392z" />
    <glyph glyph-name="cdotaccent" unicode="&#x10b;" horiz-adv-x="1360" 
d="M1228 732q0 -220 -38 -368t-106 -238t-158 -128t-198 -38q-132 0 -238 48t-182 176t-118 354t-42 582t42 582t118 356t182 180t238 50q108 0 196 -42t152 -138t100 -254t36 -390h-296q0 548 -188 548q-64 0 -114 -42t-84 -144t-52 -274t-18 -432t18 -432t52 -272t84 -140
t114 -40q92 0 144 114t52 382h304zM568 2924h304v-392h-304v392z" />
    <glyph glyph-name="Ccaron" unicode="&#x10c;" horiz-adv-x="1540" 
d="M1408 932q0 -280 -46 -466t-126 -298t-190 -160t-238 -48q-148 0 -270 60t-208 220t-134 440t-48 720t50 720t136 440t208 220t266 60q128 0 236 -50t186 -168t120 -316t42 -490h-352q0 376 -52 548t-180 172q-76 0 -134 -48t-96 -174t-58 -348t-20 -566t20 -566t58 -348
t96 -174t134 -48q116 0 178 148t62 520h360zM940 3032h-284l-268 400h276l140 -220l156 220h260z" />
    <glyph glyph-name="ccaron" unicode="&#x10d;" horiz-adv-x="1360" 
d="M1228 732q0 -220 -38 -368t-106 -238t-158 -128t-198 -38q-132 0 -238 48t-182 176t-118 354t-42 582t42 582t118 356t182 180t238 50q108 0 196 -42t152 -138t100 -254t36 -390h-296q0 548 -188 548q-64 0 -114 -42t-84 -144t-52 -274t-18 -432t18 -432t52 -272t84 -140
t114 -40q92 0 144 114t52 382h304zM848 2532h-284l-216 448h256l108 -256l124 256h240z" />
    <glyph glyph-name="Dcaron" unicode="&#x10e;" horiz-adv-x="1624" 
d="M1476 1400q0 -380 -42 -646t-122 -434t-204 -244t-284 -76h-576v2800h580q140 0 258 -60t206 -216t136 -428t48 -696zM572 280h268q156 0 220 266t64 854q0 324 -18 540t-60 346t-106 182t-160 52h-208v-2240zM880 3032h-284l-268 400h276l140 -220l156 220h260z" />
    <glyph glyph-name="dcaron" unicode="&#x10f;" horiz-adv-x="1704" 
d="M948 2928h304v-2928h-224l-60 216q-56 -88 -142 -172t-214 -84q-80 0 -162 38t-150 162t-110 352t-42 608q0 376 44 606t116 356t164 166t188 40q88 0 160 -30t128 -66v736zM460 1120q0 -296 18 -468t48 -260t72 -112t90 -24q60 0 134 62t126 150v1472q-44 32 -118 62
t-142 30q-48 0 -90 -26t-72 -120t-48 -276t-18 -490zM1440 2928h324l-124 -504h-200v504z" />
    <glyph glyph-name="Dcroat" unicode="&#x110;" horiz-adv-x="1688" 
d="M1540 1400q0 -380 -42 -646t-122 -434t-204 -244t-284 -76h-576v1272h-200v244h200v1284h580q140 0 258 -60t206 -216t136 -428t48 -696zM636 1516h232v-244h-232v-992h268q156 0 220 266t64 854q0 324 -18 540t-60 346t-106 182t-160 52h-208v-1004z" />
    <glyph glyph-name="dcroat" unicode="&#x111;" horiz-adv-x="1492" 
d="M948 2488h-360v232h360v208h304v-208h200v-232h-200v-2488h-224l-60 216q-56 -88 -142 -172t-214 -84q-80 0 -162 38t-150 162t-110 352t-42 608q0 376 44 606t116 356t164 166t188 40q88 0 160 -30t128 -66v296zM460 1120q0 -296 18 -468t48 -260t72 -112t90 -24
q60 0 134 62t126 150v1472q-44 32 -118 62t-142 30q-48 0 -90 -26t-72 -120t-48 -276t-18 -490z" />
    <glyph glyph-name="Emacron" unicode="&#x112;" horiz-adv-x="1348" 
d="M248 2800h932v-296h-608v-964h548v-296h-548v-948h608v-296h-932v2800zM332 3284h740v-252h-740v252z" />
    <glyph glyph-name="emacron" unicode="&#x113;" horiz-adv-x="1396" 
d="M456 996q4 -236 22 -384t50 -232t82 -114t114 -30q48 0 94 18t80 68t54 140t20 230h272q0 -224 -42 -368t-114 -224t-166 -110t-198 -30q-132 0 -238 50t-182 182t-116 362t-40 586q0 368 42 594t118 348t182 164t234 42q140 0 240 -62t162 -210t90 -398t28 -622h-788z
M724 2012q-64 0 -112 -26t-80 -106t-52 -224t-24 -380h500q0 396 -54 566t-178 170zM336 2784h740v-252h-740v252z" />
    <glyph glyph-name="Ebreve" unicode="&#x114;" horiz-adv-x="1348" 
d="M248 2800h932v-296h-608v-964h548v-296h-548v-948h608v-296h-932v2800zM720 3000q-172 0 -282 98t-110 334h240q0 -120 42 -176t110 -56t110 56t42 176h240q0 -236 -114 -334t-278 -98z" />
    <glyph glyph-name="ebreve" unicode="&#x115;" horiz-adv-x="1396" 
d="M456 996q4 -236 22 -384t50 -232t82 -114t114 -30q48 0 94 18t80 68t54 140t20 230h272q0 -224 -42 -368t-114 -224t-166 -110t-198 -30q-132 0 -238 50t-182 182t-116 362t-40 586q0 368 42 594t118 348t182 164t234 42q140 0 240 -62t162 -210t90 -398t28 -622h-788z
M724 2012q-64 0 -112 -26t-80 -106t-52 -224t-24 -380h500q0 396 -54 566t-178 170zM692 2472q-164 0 -268 100t-104 360h240q0 -140 40 -200t92 -60t92 56t40 204h240q0 -128 -28 -216t-80 -142t-120 -78t-144 -24z" />
    <glyph glyph-name="Edotaccent" unicode="&#x116;" horiz-adv-x="1348" 
d="M248 2800h932v-296h-608v-964h548v-296h-548v-948h608v-296h-932v2800zM576 3424h304v-392h-304v392z" />
    <glyph glyph-name="edotaccent" unicode="&#x117;" horiz-adv-x="1396" 
d="M456 996q4 -236 22 -384t50 -232t82 -114t114 -30q48 0 94 18t80 68t54 140t20 230h272q0 -224 -42 -368t-114 -224t-166 -110t-198 -30q-132 0 -238 50t-182 182t-116 362t-40 586q0 368 42 594t118 348t182 164t234 42q140 0 240 -62t162 -210t90 -398t28 -622h-788z
M724 2012q-64 0 -112 -26t-80 -106t-52 -224t-24 -380h500q0 396 -54 566t-178 170zM552 2924h304v-392h-304v392z" />
    <glyph glyph-name="Eogonek" unicode="&#x118;" horiz-adv-x="1348" 
d="M248 2800h932v-296h-608v-964h548v-296h-548v-948h608v-296q-152 -92 -212 -172t-60 -168q0 -152 120 -152q72 0 152 20v-200q-40 -12 -92 -20t-108 -8q-152 0 -226 86t-74 222q0 140 68 234t172 158h-672v2800z" />
    <glyph glyph-name="eogonek" unicode="&#x119;" horiz-adv-x="1396" 
d="M456 996q4 -236 22 -384t50 -232t82 -114t114 -30q48 0 94 18t80 68t54 140t20 230h272q0 -160 -20 -272t-56 -194t-90 -138t-118 -104q-196 -140 -196 -324q0 -152 120 -152q72 0 152 20v-200q-40 -12 -92 -20t-108 -8q-152 0 -226 86t-74 222q0 104 38 194t90 162
q-120 8 -216 68t-162 194t-102 356t-36 558q0 368 42 594t118 348t182 164t234 42q140 0 240 -62t162 -210t90 -398t28 -622h-788zM724 2012q-64 0 -112 -26t-80 -106t-52 -224t-24 -380h500q0 396 -54 566t-178 170z" />
    <glyph glyph-name="Ecaron" unicode="&#x11a;" horiz-adv-x="1348" 
d="M248 2800h932v-296h-608v-964h548v-296h-548v-948h608v-296h-932v2800zM864 3032h-284l-268 400h276l140 -220l156 220h260z" />
    <glyph glyph-name="ecaron" unicode="&#x11b;" horiz-adv-x="1396" 
d="M456 996q4 -236 22 -384t50 -232t82 -114t114 -30q48 0 94 18t80 68t54 140t20 230h272q0 -224 -42 -368t-114 -224t-166 -110t-198 -30q-132 0 -238 50t-182 182t-116 362t-40 586q0 368 42 594t118 348t182 164t234 42q140 0 240 -62t162 -210t90 -398t28 -622h-788z
M724 2012q-64 0 -112 -26t-80 -106t-52 -224t-24 -380h500q0 396 -54 566t-178 170zM836 2532h-284l-216 448h256l108 -256l124 256h240z" />
    <glyph glyph-name="Gcircumflex" unicode="&#x11c;" horiz-adv-x="1636" 
d="M1448 1296v-1296h-220l-60 236q-68 -160 -172 -218t-200 -58q-116 0 -230 48t-208 200t-152 436t-58 756q0 444 56 724t152 438t224 218t272 60q132 0 244 -48t194 -166t126 -316t44 -494h-352q0 376 -58 548t-198 172q-80 0 -146 -48t-112 -176t-70 -348t-24 -564
q0 -352 26 -574t68 -346t100 -170t126 -46q64 0 122 36t100 122t66 228t24 350h-284v296h600zM716 3432h284l276 -400h-276l-148 220l-148 -220h-260z" />
    <glyph glyph-name="gcircumflex" unicode="&#x11d;" horiz-adv-x="1448" 
d="M740 2288q56 0 114 -10t114 -34l204 300l220 -212l-268 -212q68 -84 110 -224t42 -356q0 -236 -52 -380t-132 -224t-174 -108t-178 -28q-60 0 -106 8t-74 16q-28 -20 -56 -54t-28 -78q0 -76 68 -110t170 -60t220 -54t220 -88t170 -164t68 -280q0 -288 -172 -456
t-520 -168q-112 0 -214 24t-180 84t-126 156t-48 240q0 168 78 292t206 216q-84 36 -140 106t-56 198q0 92 56 170t124 134q-80 80 -138 224t-58 384t54 386t134 226t174 108t174 28zM740 2032q-44 0 -84 -20t-74 -74t-54 -150t-20 -248t20 -244t54 -146t74 -72t84 -18
q40 0 84 14t78 64t56 144t22 258q0 168 -22 266t-56 148t-78 64t-84 14zM1104 -104q0 104 -38 168t-100 102t-148 58t-182 40q-100 -80 -156 -174t-56 -218q0 -172 86 -240t214 -68q160 0 270 74t110 258zM564 2980h284l224 -448h-256l-116 256l-116 -256h-240z" />
    <glyph glyph-name="Gbreve" unicode="&#x11e;" horiz-adv-x="1636" 
d="M1448 1296v-1296h-220l-60 236q-68 -160 -172 -218t-200 -58q-116 0 -230 48t-208 200t-152 436t-58 756q0 444 56 724t152 438t224 218t272 60q132 0 244 -48t194 -166t126 -316t44 -494h-352q0 376 -58 548t-198 172q-80 0 -146 -48t-112 -176t-70 -348t-24 -564
q0 -352 26 -574t68 -346t100 -170t126 -46q64 0 122 36t100 122t66 228t24 350h-284v296h600zM844 3000q-172 0 -282 98t-110 334h240q0 -120 42 -176t110 -56t110 56t42 176h240q0 -236 -114 -334t-278 -98z" />
    <glyph glyph-name="gbreve" unicode="&#x11f;" horiz-adv-x="1448" 
d="M740 2288q56 0 114 -10t114 -34l204 300l220 -212l-268 -212q68 -84 110 -224t42 -356q0 -236 -52 -380t-132 -224t-174 -108t-178 -28q-60 0 -106 8t-74 16q-28 -20 -56 -54t-28 -78q0 -76 68 -110t170 -60t220 -54t220 -88t170 -164t68 -280q0 -288 -172 -456
t-520 -168q-112 0 -214 24t-180 84t-126 156t-48 240q0 168 78 292t206 216q-84 36 -140 106t-56 198q0 92 56 170t124 134q-80 80 -138 224t-58 384t54 386t134 226t174 108t174 28zM740 2032q-44 0 -84 -20t-74 -74t-54 -150t-20 -248t20 -244t54 -146t74 -72t84 -18
q40 0 84 14t78 64t56 144t22 258q0 168 -22 266t-56 148t-78 64t-84 14zM1104 -104q0 104 -38 168t-100 102t-148 58t-182 40q-100 -80 -156 -174t-56 -218q0 -172 86 -240t214 -68q160 0 270 74t110 258zM736 2472q-164 0 -268 100t-104 360h240q0 -140 40 -200t92 -60
t92 56t40 204h240q0 -128 -28 -216t-80 -142t-120 -78t-144 -24z" />
    <glyph glyph-name="Gdotaccent" unicode="&#x120;" horiz-adv-x="1636" 
d="M1448 1296v-1296h-220l-60 236q-68 -160 -172 -218t-200 -58q-116 0 -230 48t-208 200t-152 436t-58 756q0 444 56 724t152 438t224 218t272 60q132 0 244 -48t194 -166t126 -316t44 -494h-352q0 376 -58 548t-198 172q-80 0 -146 -48t-112 -176t-70 -348t-24 -564
q0 -352 26 -574t68 -346t100 -170t126 -46q64 0 122 36t100 122t66 228t24 350h-284v296h600zM688 3424h304v-392h-304v392z" />
    <glyph glyph-name="gdotaccent" unicode="&#x121;" horiz-adv-x="1448" 
d="M740 2288q56 0 114 -10t114 -34l204 300l220 -212l-268 -212q68 -84 110 -224t42 -356q0 -236 -52 -380t-132 -224t-174 -108t-178 -28q-60 0 -106 8t-74 16q-28 -20 -56 -54t-28 -78q0 -76 68 -110t170 -60t220 -54t220 -88t170 -164t68 -280q0 -288 -172 -456
t-520 -168q-112 0 -214 24t-180 84t-126 156t-48 240q0 168 78 292t206 216q-84 36 -140 106t-56 198q0 92 56 170t124 134q-80 80 -138 224t-58 384t54 386t134 226t174 108t174 28zM740 2032q-44 0 -84 -20t-74 -74t-54 -150t-20 -248t20 -244t54 -146t74 -72t84 -18
q40 0 84 14t78 64t56 144t22 258q0 168 -22 266t-56 148t-78 64t-84 14zM1104 -104q0 104 -38 168t-100 102t-148 58t-182 40q-100 -80 -156 -174t-56 -218q0 -172 86 -240t214 -68q160 0 270 74t110 258zM588 2924h304v-392h-304v392z" />
    <glyph glyph-name="Gcommaaccent" unicode="&#x122;" horiz-adv-x="1636" 
d="M1448 1296v-1296h-220l-60 236q-68 -160 -172 -218t-200 -58q-116 0 -230 48t-208 200t-152 436t-58 756q0 444 56 724t152 438t224 218t272 60q132 0 244 -48t194 -166t126 -316t44 -494h-352q0 376 -58 548t-198 172q-80 0 -146 -48t-112 -176t-70 -348t-24 -564
q0 -352 26 -574t68 -346t100 -170t126 -46q64 0 122 36t100 122t66 228t24 350h-284v296h600zM720 -204h312l-200 -620h-188z" />
    <glyph glyph-name="gcommaaccent" unicode="&#x123;" horiz-adv-x="1448" 
d="M740 2288q56 0 114 -10t114 -34l204 300l220 -212l-268 -212q68 -84 110 -224t42 -356q0 -236 -52 -380t-132 -224t-174 -108t-178 -28q-60 0 -106 8t-74 16q-28 -20 -56 -54t-28 -78q0 -76 68 -110t170 -60t220 -54t220 -88t170 -164t68 -280q0 -288 -172 -456
t-520 -168q-112 0 -214 24t-180 84t-126 156t-48 240q0 168 78 292t206 216q-84 36 -140 106t-56 198q0 92 56 170t124 134q-80 80 -138 224t-58 384t54 386t134 226t174 108t174 28zM740 2032q-44 0 -84 -20t-74 -74t-54 -150t-20 -248t20 -244t54 -146t74 -72t84 -18
q40 0 84 14t78 64t56 144t22 258q0 168 -22 266t-56 148t-78 64t-84 14zM1104 -104q0 104 -38 168t-100 102t-148 58t-182 40q-100 -80 -156 -174t-56 -218q0 -172 86 -240t214 -68q160 0 270 74t110 258zM880 2564h-312l200 620h188z" />
    <glyph glyph-name="Hcircumflex" unicode="&#x124;" horiz-adv-x="1736" 
d="M1164 1252h-592v-1252h-324v2800h324v-1252h592v1252h324v-2800h-324v1252zM712 3432h284l276 -400h-276l-148 220l-148 -220h-260z" />
    <glyph glyph-name="hcircumflex" unicode="&#x125;" horiz-adv-x="1516" 
d="M1008 1708q0 176 -52 240t-120 64q-92 0 -166 -56t-154 -148v-1808h-304v2928h304v-848q76 84 174 146t242 62q180 0 280 -130t100 -378v-1780h-304v1708zM632 3432h284l276 -400h-276l-148 220l-148 -220h-260z" />
    <glyph glyph-name="Hbar" unicode="&#x126;" horiz-adv-x="1864" 
d="M1228 1252h-592v-1252h-324v2048h-160v244h160v508h324v-508h592v508h324v-508h160v-244h-160v-2048h-324v1252zM1228 1548v500h-592v-500h592z" />
    <glyph glyph-name="hbar" unicode="&#x127;" horiz-adv-x="1544" 
d="M1036 1708q0 176 -52 240t-120 64q-92 0 -166 -56t-154 -148v-1808h-304v2488h-200v232h200v208h304v-208h332v-232h-332v-408q76 84 174 146t242 62q180 0 280 -130t100 -378v-1780h-304v1708z" />
    <glyph glyph-name="Itilde" unicode="&#x128;" horiz-adv-x="820" 
d="M248 2800h324v-2800h-324v2800zM860 3416q0 -132 -26 -210t-66 -120t-86 -56t-94 -14q-64 0 -118 22t-122 94l-56 56q-28 28 -52 28q-36 0 -66 -40t-30 -144h-196q0 128 28 208t70 122t94 56t96 14q72 0 122 -32t106 -92t78 -72t42 -12q40 0 60 38t20 154h196z" />
    <glyph glyph-name="itilde" unicode="&#x129;" horiz-adv-x="728" 
d="M212 2252h304v-2252h-304v2252zM812 2964q0 -140 -26 -226t-66 -132t-86 -60t-94 -14q-64 0 -118 22t-118 94q-36 44 -62 72t-50 28q-36 0 -66 -42t-30 -158h-196q0 140 28 224t70 130t94 62t96 16q72 0 122 -32t106 -100q52 -64 76 -78t44 -14q40 0 60 40t20 168h196z
" />
    <glyph glyph-name="Imacron" unicode="&#x12a;" horiz-adv-x="820" 
d="M248 2800h324v-2800h-324v2800zM32 3284h740v-252h-740v252z" />
    <glyph glyph-name="imacron" unicode="&#x12b;" horiz-adv-x="728" 
d="M212 2252h304v-2252h-304v2252zM-4 2784h740v-252h-740v252z" />
    <glyph glyph-name="Ibreve" unicode="&#x12c;" horiz-adv-x="820" 
d="M248 2800h324v-2800h-324v2800zM404 3000q-172 0 -282 98t-110 334h240q0 -120 42 -176t110 -56t110 56t42 176h240q0 -236 -114 -334t-278 -98z" />
    <glyph glyph-name="ibreve" unicode="&#x12d;" horiz-adv-x="728" 
d="M212 2252h304v-2252h-304v2252zM368 2472q-164 0 -268 100t-104 360h240q0 -140 40 -200t92 -60t92 56t40 204h240q0 -128 -28 -216t-80 -142t-120 -78t-144 -24z" />
    <glyph glyph-name="Iogonek" unicode="&#x12e;" horiz-adv-x="820" 
d="M248 2800h324v-2800q-140 -60 -192 -134t-52 -178q0 -88 32 -134t88 -46q40 0 76 4t76 16v-200q-40 -12 -92 -20t-108 -8q-124 0 -212 82t-88 262q0 124 42 206t106 150v2800z" />
    <glyph glyph-name="iogonek" unicode="&#x12f;" horiz-adv-x="728" 
d="M212 2252h304v-2252q-132 -72 -170 -150t-38 -162q0 -88 32 -134t88 -46q40 0 76 4t76 16v-200q-40 -12 -92 -20t-108 -8q-124 0 -212 82t-88 262q0 124 42 208t90 152v2248zM212 2924h304v-392h-304v392z" />
    <glyph glyph-name="Idotaccent" unicode="&#x130;" horiz-adv-x="820" 
d="M248 2800h324v-2800h-324v2800zM248 3424h304v-392h-304v392z" />
    <glyph glyph-name="dotlessi" unicode="&#x131;" horiz-adv-x="728" 
d="M212 2252h304v-2252h-304v2252z" />
    <glyph glyph-name="IJ" unicode="&#x132;" horiz-adv-x="1756" 
d="M248 2800h324v-2800h-324v2800zM1184 2800h324v-2560q0 -144 -28 -254t-92 -196t-166 -154t-250 -124l-112 284q80 44 142 80t102 82t60 110t20 164v2568z" />
    <glyph glyph-name="ij" unicode="&#x133;" horiz-adv-x="1500" 
d="M212 2252h304v-2252h-304v2252zM212 2924h304v-392h-304v392zM984 2252h304v-2200q0 -284 -108 -450t-388 -278l-104 256q76 44 132 82t92 86t54 118t18 178v2208zM984 2924h304v-392h-304v392z" />
    <glyph glyph-name="Jcircumflex" unicode="&#x134;" horiz-adv-x="888" 
d="M316 2800h324v-2560q0 -144 -28 -254t-92 -196t-166 -154t-250 -124l-112 284q80 44 142 80t102 82t60 110t20 164v2568zM316 3432h284l276 -400h-276l-148 220l-148 -220h-260z" />
    <glyph glyph-name="jcircumflex" unicode="&#x135;" horiz-adv-x="772" 
d="M252 2980h284l224 -448h-256l-116 256l-116 -256h-240zM256 2252h304v-2200q0 -284 -108 -450t-388 -278l-104 256q76 44 132 82t92 86t54 118t18 178v2208z" />
    <glyph glyph-name="Kcommaaccent" unicode="&#x136;" horiz-adv-x="1500" 
d="M248 2800h324v-1236h144l376 1236h344l-460 -1376l520 -1424h-352l-440 1268h-132v-1268h-324v2800zM628 -204h312l-200 -620h-188z" />
    <glyph glyph-name="kcommaaccent" unicode="&#x137;" horiz-adv-x="1400" 
d="M212 2928h304v-1604h144l320 928h308l-388 -1064l452 -1188h-324l-388 1068h-124v-1068h-304v2928zM584 -204h312l-200 -620h-188z" />
    <glyph glyph-name="kgreenlandic" unicode="&#x138;" horiz-adv-x="1400" 
d="M212 2252h304v-928h144l320 928h308l-388 -1064l452 -1188h-324l-388 1068h-124v-1068h-304v2252z" />
    <glyph glyph-name="Lacute" unicode="&#x139;" horiz-adv-x="1232" 
d="M248 2800h324v-2504h608v-296h-932v2800zM544 3432h396l-392 -400h-272z" />
    <glyph glyph-name="lacute" unicode="&#x13a;" horiz-adv-x="728" 
d="M212 2928h304v-2928h-304v2928zM484 3504h396l-392 -400h-272z" />
    <glyph glyph-name="Lcommaaccent" unicode="&#x13b;" horiz-adv-x="1232" 
d="M248 2800h324v-2504h608v-296h-932v2800zM540 -204h312l-200 -620h-188z" />
    <glyph glyph-name="lcommaaccent" unicode="&#x13c;" horiz-adv-x="728" 
d="M212 2928h304v-2928h-304v2928zM200 -204h312l-200 -620h-188z" />
    <glyph glyph-name="Lcaron" unicode="&#x13d;" horiz-adv-x="1232" 
d="M248 2800h324v-2504h608v-296h-932v2800zM784 2801h324l-124 -504h-200v504z" />
    <glyph glyph-name="lcaron" unicode="&#x13e;" horiz-adv-x="964" 
d="M212 2928h304v-2928h-304v2928zM728 2928h324l-124 -504h-200v504z" />
    <glyph glyph-name="Ldot" unicode="&#x13f;" horiz-adv-x="1232" 
d="M248 2800h324v-2504h608v-296h-932v2800zM848 1728h304v-392h-304v392z" />
    <glyph glyph-name="ldot" unicode="&#x140;" horiz-adv-x="984" 
d="M212 2928h304v-2928h-304v2928zM692 1728h304v-392h-304v392z" />
    <glyph glyph-name="Lslash" unicode="&#x141;" horiz-adv-x="1296" 
d="M312 1224l-236 -84v256l236 84v1320h324v-1200l280 104v-256l-280 -104v-1048h608v-296h-932v1224z" />
    <glyph glyph-name="lslash" unicode="&#x142;" horiz-adv-x="784" 
d="M240 1228l-240 -88v256l240 88v1444h304v-1336l224 84v-256l-224 -84v-1336h-304v1228z" />
    <glyph glyph-name="Nacute" unicode="&#x143;" horiz-adv-x="1748" 
d="M568 2800l664 -2144q-24 328 -24 556v1588h292v-2800h-300l-684 2152q4 -56 10 -134t10 -160t6 -156t2 -114v-1588h-296v2800h320zM988 3432h396l-392 -400h-272z" />
    <glyph glyph-name="nacute" unicode="&#x144;" horiz-adv-x="1516" 
d="M1008 1708q0 176 -52 240t-120 64q-92 0 -166 -56t-154 -148v-1808h-304v2252h244l40 -192q80 92 182 160t254 68q180 0 280 -130t100 -378v-1780h-304v1708zM740 2980h344l-272 -448h-220z" />
    <glyph glyph-name="Ncommaaccent" unicode="&#x145;" horiz-adv-x="1748" 
d="M568 2800l664 -2144q-24 328 -24 556v1588h292v-2800h-300l-684 2152q4 -56 10 -134t10 -160t6 -156t2 -114v-1588h-296v2800h320zM748 -204h312l-200 -620h-188z" />
    <glyph glyph-name="ncommaaccent" unicode="&#x146;" horiz-adv-x="1516" 
d="M1008 1708q0 176 -52 240t-120 64q-92 0 -166 -56t-154 -148v-1808h-304v2252h244l40 -192q80 92 182 160t254 68q180 0 280 -130t100 -378v-1780h-304v1708zM612 -204h312l-200 -620h-188z" />
    <glyph glyph-name="Ncaron" unicode="&#x147;" horiz-adv-x="1748" 
d="M568 2800l664 -2144q-24 328 -24 556v1588h292v-2800h-300l-684 2152q4 -56 10 -134t10 -160t6 -156t2 -114v-1588h-296v2800h320zM1048 3032h-284l-268 400h276l140 -220l156 220h260z" />
    <glyph glyph-name="ncaron" unicode="&#x148;" horiz-adv-x="1516" 
d="M1008 1708q0 176 -52 240t-120 64q-92 0 -166 -56t-154 -148v-1808h-304v2252h244l40 -192q80 92 182 160t254 68q180 0 280 -130t100 -378v-1780h-304v1708zM900 2532h-284l-216 448h256l108 -256l124 256h240z" />
    <glyph glyph-name="napostrophe" unicode="&#x149;" horiz-adv-x="1980" 
d="M240 2840h324l-244 -840h-200zM1472 1708q0 176 -52 240t-120 64q-92 0 -166 -56t-154 -148v-1808h-304v2252h244l40 -192q80 92 182 160t254 68q180 0 280 -130t100 -378v-1780h-304v1708z" />
    <glyph glyph-name="Eng" unicode="&#x14a;" horiz-adv-x="1748" 
d="M568 2800l664 -2144q-4 64 -8 140l-8 152q-4 76 -6 144t-2 120v1588h292v-2748q0 -284 -108 -450t-388 -278l-104 256q72 40 126 78t90 84t56 110t24 160l-680 2140q4 -56 10 -134t10 -160t6 -156t2 -114v-1588h-296v2800h320z" />
    <glyph glyph-name="eng" unicode="&#x14b;" horiz-adv-x="1516" 
d="M1008 1708q0 176 -52 240t-120 64q-92 0 -166 -56t-154 -148v-1808h-304v2252h244l40 -192q80 92 182 160t254 68q180 0 280 -130t100 -378v-1740q0 -288 -116 -448t-380 -268l-104 256q72 40 124 76t90 82t58 108t24 154v1708z" />
    <glyph glyph-name="Omacron" unicode="&#x14c;" horiz-adv-x="1632" 
d="M816 2840q136 0 258 -48t212 -202t144 -438t54 -752t-54 -752t-144 -438t-212 -202t-258 -48t-258 48t-212 202t-144 438t-54 752t54 752t144 438t212 202t258 48zM816 2536q-80 0 -138 -36t-98 -156t-60 -344t-20 -600t20 -600t60 -344t98 -156t138 -36t140 32t100 146
t60 340t20 618q0 388 -20 616t-58 342t-98 146t-144 32zM452 3284h740v-252h-740v252z" />
    <glyph glyph-name="omacron" unicode="&#x14d;" horiz-adv-x="1456" 
d="M728 2288q124 0 230 -40t184 -164t122 -354t44 -610q0 -376 -44 -604t-122 -352t-184 -164t-230 -40t-230 40t-184 164t-122 352t-44 604q0 380 44 610t122 354t184 164t230 40zM728 2012q-64 0 -114 -32t-84 -128t-52 -270t-18 -462q0 -280 18 -454t52 -270t84 -130
t114 -34t116 28t86 120t52 268t18 472q0 300 -18 478t-52 270t-86 118t-116 26zM360 2784h740v-252h-740v252z" />
    <glyph glyph-name="Obreve" unicode="&#x14e;" horiz-adv-x="1632" 
d="M816 2840q136 0 258 -48t212 -202t144 -438t54 -752t-54 -752t-144 -438t-212 -202t-258 -48t-258 48t-212 202t-144 438t-54 752t54 752t144 438t212 202t258 48zM816 2536q-80 0 -138 -36t-98 -156t-60 -344t-20 -600t20 -600t60 -344t98 -156t138 -36t140 32t100 146
t60 340t20 618q0 388 -20 616t-58 342t-98 146t-144 32zM820 3000q-172 0 -282 98t-110 334h240q0 -120 42 -176t110 -56t110 56t42 176h240q0 -236 -114 -334t-278 -98z" />
    <glyph glyph-name="obreve" unicode="&#x14f;" horiz-adv-x="1456" 
d="M728 2288q124 0 230 -40t184 -164t122 -354t44 -610q0 -376 -44 -604t-122 -352t-184 -164t-230 -40t-230 40t-184 164t-122 352t-44 604q0 380 44 610t122 354t184 164t230 40zM728 2012q-64 0 -114 -32t-84 -128t-52 -270t-18 -462q0 -280 18 -454t52 -270t84 -130
t114 -34t116 28t86 120t52 268t18 472q0 300 -18 478t-52 270t-86 118t-116 26zM728 2472q-164 0 -268 100t-104 360h240q0 -140 40 -200t92 -60t92 56t40 204h240q0 -128 -28 -216t-80 -142t-120 -78t-144 -24z" />
    <glyph glyph-name="Ohungarumlaut" unicode="&#x150;" horiz-adv-x="1632" 
d="M816 2840q136 0 258 -48t212 -202t144 -438t54 -752t-54 -752t-144 -438t-212 -202t-258 -48t-258 48t-212 202t-144 438t-54 752t54 752t144 438t212 202t258 48zM816 2536q-80 0 -138 -36t-98 -156t-60 -344t-20 -600t20 -600t60 -344t98 -156t138 -36t140 32t100 146
t60 340t20 618q0 388 -20 616t-58 342t-98 146t-144 32zM592 3432h324l-196 -400h-200zM1120 3432h324l-316 -400h-200z" />
    <glyph glyph-name="ohungarumlaut" unicode="&#x151;" horiz-adv-x="1456" 
d="M728 2288q124 0 230 -40t184 -164t122 -354t44 -610q0 -376 -44 -604t-122 -352t-184 -164t-230 -40t-230 40t-184 164t-122 352t-44 604q0 380 44 610t122 354t184 164t230 40zM728 2012q-64 0 -114 -32t-84 -128t-52 -270t-18 -462q0 -280 18 -454t52 -270t84 -130
t114 -34t116 28t86 120t52 268t18 472q0 300 -18 478t-52 270t-86 118t-116 26zM532 2980h324l-224 -448h-200zM1060 2980h324l-344 -448h-200z" />
    <glyph glyph-name="OE" unicode="&#x152;" horiz-adv-x="2032" 
d="M748 0q-128 0 -238 48t-190 196t-126 424t-46 732t46 732t126 424t190 196t238 48h1116v-296h-608v-964h548v-296h-548v-948h608v-296h-1116zM468 1400q0 -360 18 -580t54 -340t88 -158t120 -38h204v2232h-204q-68 0 -120 -38t-88 -158t-54 -340t-18 -580z" />
    <glyph glyph-name="oe" unicode="&#x153;" horiz-adv-x="2272" 
d="M1332 996q4 -236 22 -384t50 -230t82 -112t114 -30q48 0 94 18t82 68t58 138t22 228h264q0 -224 -42 -368t-114 -224t-166 -110t-198 -30q-144 0 -254 68t-178 256q-36 -100 -84 -164t-104 -100t-120 -48t-132 -12q-124 0 -230 40t-184 164t-122 352t-44 604
q0 380 44 610t122 354t184 164t230 40q136 0 248 -60t188 -256q68 192 182 254t254 62t240 -62t162 -210t90 -398t28 -622h-788zM728 2004q-64 0 -116 -30t-88 -124t-54 -268t-18 -462q0 -280 18 -452t54 -266t88 -126t116 -32t116 26t86 116t52 264t18 470q0 300 -18 476
t-52 266t-86 116t-116 26zM1600 2008q-64 0 -112 -28t-80 -108t-52 -224t-24 -380h508q0 396 -58 568t-182 172z" />
    <glyph glyph-name="Racute" unicode="&#x154;" horiz-adv-x="1600" 
d="M856 1252h-284v-1252h-324v2800h596q132 0 242 -34t188 -120t120 -234t42 -376q0 -260 -66 -442t-210 -270l340 -1324h-344zM572 1532h284q144 0 194 120t50 384q0 140 -14 234t-50 150t-94 78t-146 22h-224v-988zM860 3432h396l-392 -400h-272z" />
    <glyph glyph-name="racute" unicode="&#x155;" horiz-adv-x="1040" 
d="M992 1916q-32 8 -60 12t-72 4q-84 0 -144 -60t-102 -148t-66 -188t-32 -176v-1360h-304v2252h244l40 -408q16 84 44 164t70 142t104 100t150 38q44 0 70 -4t58 -12v-356zM600 2980h344l-272 -448h-220z" />
    <glyph glyph-name="Rcommaaccent" unicode="&#x156;" horiz-adv-x="1600" 
d="M856 1252h-284v-1252h-324v2800h596q132 0 242 -34t188 -120t120 -234t42 -376q0 -260 -66 -442t-210 -270l340 -1324h-344zM572 1532h284q144 0 194 120t50 384q0 140 -14 234t-50 150t-94 78t-146 22h-224v-988zM676 -204h312l-200 -620h-188z" />
    <glyph glyph-name="rcommaaccent" unicode="&#x157;" horiz-adv-x="1040" 
d="M992 1916q-32 8 -60 12t-72 4q-84 0 -144 -60t-102 -148t-66 -188t-32 -176v-1360h-304v2252h244l40 -408q16 84 44 164t70 142t104 100t150 38q44 0 70 -4t58 -12v-356zM200 -204h312l-200 -620h-188z" />
    <glyph glyph-name="Rcaron" unicode="&#x158;" horiz-adv-x="1600" 
d="M856 1252h-284v-1252h-324v2800h596q132 0 242 -34t188 -120t120 -234t42 -376q0 -260 -66 -442t-210 -270l340 -1324h-344zM572 1532h284q144 0 194 120t50 384q0 140 -14 234t-50 150t-94 78t-146 22h-224v-988zM948 3032h-284l-268 400h276l140 -220l156 220h260z" />
    <glyph glyph-name="rcaron" unicode="&#x159;" horiz-adv-x="1040" 
d="M992 1916q-32 8 -60 12t-72 4q-84 0 -144 -60t-102 -148t-66 -188t-32 -176v-1360h-304v2252h244l40 -408q16 84 44 164t70 142t104 100t150 38q44 0 70 -4t58 -12v-356zM684 2532h-284l-216 448h256l108 -256l124 256h240z" />
    <glyph glyph-name="Sacute" unicode="&#x15a;" horiz-adv-x="1360" 
d="M912 2004q0 296 -60 418t-176 122q-32 0 -66 -8t-66 -34t-52 -80t-20 -146q0 -120 58 -244t146 -254t188 -268t188 -284t146 -302t58 -324t-48 -290t-126 -200t-180 -114t-214 -36q-124 0 -228 42t-182 140t-122 260t-44 402h328q0 -168 20 -274t54 -170t80 -88t98 -24
q40 0 84 12t80 48t60 100t24 164q0 132 -58 268t-148 274t-192 280t-192 286t-148 294t-58 306q0 176 56 286t138 170t174 82t164 22q96 0 196 -32t178 -122t128 -254t50 -428h-316zM728 3432h396l-392 -400h-272z" />
    <glyph glyph-name="sacute" unicode="&#x15b;" horiz-adv-x="1224" 
d="M800 1552q0 264 -54 366t-138 102q-56 0 -108 -52t-52 -160q0 -148 100 -298t222 -312t222 -346t100 -400q0 -240 -136 -366t-352 -126q-240 0 -370 174t-130 578h288q0 -152 20 -246t52 -148t72 -72t84 -18q72 0 128 50t56 174q0 160 -100 310t-222 310t-222 338
t-100 390q0 132 38 224t102 150t146 86t170 28q144 0 234 -64t140 -168t70 -236t24 -268h-284zM608 2980h344l-272 -448h-220z" />
    <glyph glyph-name="Scircumflex" unicode="&#x15c;" horiz-adv-x="1360" 
d="M912 2004q0 296 -60 418t-176 122q-32 0 -66 -8t-66 -34t-52 -80t-20 -146q0 -120 58 -244t146 -254t188 -268t188 -284t146 -302t58 -324t-48 -290t-126 -200t-180 -114t-214 -36q-124 0 -228 42t-182 140t-122 260t-44 402h328q0 -168 20 -274t54 -170t80 -88t98 -24
q40 0 84 12t80 48t60 100t24 164q0 132 -58 268t-148 274t-192 280t-192 286t-148 294t-58 306q0 176 56 286t138 170t174 82t164 22q96 0 196 -32t178 -122t128 -254t50 -428h-316zM512 3432h284l276 -400h-276l-148 220l-148 -220h-260z" />
    <glyph glyph-name="scircumflex" unicode="&#x15d;" horiz-adv-x="1224" 
d="M800 1552q0 264 -54 366t-138 102q-56 0 -108 -52t-52 -160q0 -148 100 -298t222 -312t222 -346t100 -400q0 -240 -136 -366t-352 -126q-240 0 -370 174t-130 578h288q0 -152 20 -246t52 -148t72 -72t84 -18q72 0 128 50t56 174q0 160 -100 310t-222 310t-222 338
t-100 390q0 132 38 224t102 150t146 86t170 28q144 0 234 -64t140 -168t70 -236t24 -268h-284zM452 2980h284l224 -448h-256l-116 256l-116 -256h-240z" />
    <glyph glyph-name="Scedilla" unicode="&#x15e;" horiz-adv-x="1360" 
d="M912 2004q0 296 -60 418t-176 122q-32 0 -66 -8t-66 -34t-52 -80t-20 -146q0 -120 58 -244t146 -254t188 -268t188 -284t146 -302t58 -324t-48 -290t-126 -200t-180 -114t-214 -36q-124 0 -228 42t-182 140t-122 260t-44 402h328q0 -168 20 -274t54 -170t80 -88t98 -24
q40 0 84 12t80 48t60 100t24 164q0 132 -58 268t-148 274t-192 280t-192 286t-148 294t-58 306q0 176 56 286t138 170t174 82t164 22q96 0 196 -32t178 -122t128 -254t50 -428h-316zM772 76l-72 -272q152 -4 216 -62t64 -174q0 -80 -32 -132t-82 -84t-112 -44t-122 -12
q-56 0 -96 6t-84 18v180q96 -28 164 -28t122 18t54 78q0 56 -54 76t-158 20h-36q-20 0 -52 -4v124l112 292h168z" />
    <glyph glyph-name="scedilla" unicode="&#x15f;" horiz-adv-x="1224" 
d="M800 1552q0 264 -54 366t-138 102q-56 0 -108 -52t-52 -160q0 -148 100 -298t222 -312t222 -346t100 -400q0 -240 -136 -366t-352 -126q-240 0 -370 174t-130 578h288q0 -152 20 -246t52 -148t72 -72t84 -18q72 0 128 50t56 174q0 160 -100 310t-222 310t-222 338
t-100 390q0 132 38 224t102 150t146 86t170 28q144 0 234 -64t140 -168t70 -236t24 -268h-284zM728 76l-72 -272q152 -4 216 -62t64 -174q0 -80 -32 -132t-82 -84t-112 -44t-122 -12q-56 0 -96 6t-84 18v180q96 -28 164 -28t122 18t54 78q0 56 -54 76t-158 20h-36
q-20 0 -52 -4v124l112 292h168z" />
    <glyph glyph-name="Scaron" unicode="&#x160;" horiz-adv-x="1360" 
d="M912 2004q0 296 -60 418t-176 122q-32 0 -66 -8t-66 -34t-52 -80t-20 -146q0 -120 58 -244t146 -254t188 -268t188 -284t146 -302t58 -324t-48 -290t-126 -200t-180 -114t-214 -36q-124 0 -228 42t-182 140t-122 260t-44 402h328q0 -168 20 -274t54 -170t80 -88t98 -24
q40 0 84 12t80 48t60 100t24 164q0 132 -58 268t-148 274t-192 280t-192 286t-148 294t-58 306q0 176 56 286t138 170t174 82t164 22q96 0 196 -32t178 -122t128 -254t50 -428h-316zM800 3032h-284l-268 400h276l140 -220l156 220h260z" />
    <glyph glyph-name="scaron" unicode="&#x161;" horiz-adv-x="1224" 
d="M800 1552q0 264 -54 366t-138 102q-56 0 -108 -52t-52 -160q0 -148 100 -298t222 -312t222 -346t100 -400q0 -240 -136 -366t-352 -126q-240 0 -370 174t-130 578h288q0 -152 20 -246t52 -148t72 -72t84 -18q72 0 128 50t56 174q0 160 -100 310t-222 310t-222 338
t-100 390q0 132 38 224t102 150t146 86t170 28q144 0 234 -64t140 -168t70 -236t24 -268h-284zM724 2532h-284l-216 448h256l108 -256l124 256h240z" />
    <glyph glyph-name="Tcommaaccent" unicode="&#x162;" horiz-adv-x="1340" 
d="M1332 2800v-296h-500v-2504h-324v2504h-500v296h1324zM748 76l-72 -272q152 -4 216 -62t64 -174q0 -80 -32 -132t-82 -84t-112 -44t-122 -12q-56 0 -96 6t-84 18v180q96 -28 164 -28t122 18t54 78q0 56 -54 76t-158 20h-36q-20 0 -52 -4v124l112 292h168z" />
    <glyph glyph-name="tcommaaccent" unicode="&#x163;" horiz-adv-x="1056" 
d="M756 240q48 0 96 8t92 28l64 -252q-68 -36 -152 -50t-152 -14q-116 0 -196 40t-128 114t-68 182t-20 240v1460h-244v256h244v508h304v-508h360v-256h-360v-1428q0 -204 46 -266t114 -62zM684 76l-72 -272q152 -4 216 -62t64 -174q0 -80 -32 -132t-82 -84t-112 -44
t-122 -12q-56 0 -96 6t-84 18v180q96 -28 164 -28t122 18t54 78q0 56 -54 76t-158 20h-36q-20 0 -52 -4v124l112 292h168z" />
    <glyph glyph-name="Tcaron" unicode="&#x164;" horiz-adv-x="1340" 
d="M1332 2800v-296h-500v-2504h-324v2504h-500v296h1324zM808 3032h-284l-268 400h276l140 -220l156 220h260z" />
    <glyph glyph-name="tcaron" unicode="&#x165;" horiz-adv-x="1088" 
d="M756 240q48 0 96 8t92 28l64 -252q-68 -36 -152 -50t-152 -14q-116 0 -196 40t-128 114t-68 182t-20 240v1460h-244v256h244v508h304v-508h360v-256h-360v-1428q0 -204 46 -266t114 -62zM772 2928h324l-124 -504h-200v504z" />
    <glyph glyph-name="Tbar" unicode="&#x166;" horiz-adv-x="1340" 
d="M1332 2800v-296h-500v-772h344v-284h-344v-1448h-324v1448h-340v284h340v772h-500v296h1324z" />
    <glyph glyph-name="tbar" unicode="&#x167;" horiz-adv-x="1056" 
d="M756 240q48 0 96 8t92 28l64 -252q-68 -36 -152 -50t-152 -14q-116 0 -196 40t-128 114t-68 182t-20 240v640h-244v276h244v544h-244v256h244v508h304v-508h360v-256h-360v-544h360v-276h-360v-608q0 -204 46 -266t114 -62z" />
    <glyph glyph-name="Utilde" unicode="&#x168;" horiz-adv-x="1704" 
d="M852 -40q-116 0 -226 34t-196 116t-138 218t-52 340v2132h324v-2088q0 -148 22 -238t62 -138t92 -62t112 -14t112 14t90 62t62 138t24 238v2088h324v-2132q0 -204 -52 -340t-138 -218t-196 -116t-226 -34zM1320 3416q0 -132 -26 -210t-66 -120t-86 -56t-94 -14
q-64 0 -118 22t-122 94l-56 56q-28 28 -52 28q-36 0 -66 -40t-30 -144h-196q0 128 28 208t70 122t94 56t96 14q72 0 122 -32t106 -92t78 -72t42 -12q40 0 60 38t20 154h196z" />
    <glyph glyph-name="utilde" unicode="&#x169;" horiz-adv-x="1488" 
d="M508 540q0 -176 52 -240t120 -64q76 0 156 68t136 176v1772h304v-2252h-224l-56 228q-76 -116 -172 -192t-244 -76q-180 0 -278 130t-98 378v1784h304v-1712zM1208 2964q0 -140 -26 -226t-66 -132t-86 -60t-94 -14q-64 0 -118 22t-118 94q-36 44 -62 72t-50 28
q-36 0 -66 -42t-30 -158h-196q0 140 28 224t70 130t94 62t96 16q72 0 122 -32t106 -100q52 -64 76 -78t44 -14q40 0 60 40t20 168h196z" />
    <glyph glyph-name="Umacron" unicode="&#x16a;" horiz-adv-x="1704" 
d="M852 -40q-116 0 -226 34t-196 116t-138 218t-52 340v2132h324v-2088q0 -148 22 -238t62 -138t92 -62t112 -14t112 14t90 62t62 138t24 238v2088h324v-2132q0 -204 -52 -340t-138 -218t-196 -116t-226 -34zM488 3284h740v-252h-740v252z" />
    <glyph glyph-name="umacron" unicode="&#x16b;" horiz-adv-x="1488" 
d="M508 540q0 -176 52 -240t120 -64q76 0 156 68t136 176v1772h304v-2252h-224l-56 228q-76 -116 -172 -192t-244 -76q-180 0 -278 130t-98 378v1784h304v-1712zM368 2784h740v-252h-740v252z" />
    <glyph glyph-name="Ubreve" unicode="&#x16c;" horiz-adv-x="1704" 
d="M852 -40q-116 0 -226 34t-196 116t-138 218t-52 340v2132h324v-2088q0 -148 22 -238t62 -138t92 -62t112 -14t112 14t90 62t62 138t24 238v2088h324v-2132q0 -204 -52 -340t-138 -218t-196 -116t-226 -34zM860 3000q-172 0 -282 98t-110 334h240q0 -120 42 -176t110 -56
t110 56t42 176h240q0 -236 -114 -334t-278 -98z" />
    <glyph glyph-name="ubreve" unicode="&#x16d;" horiz-adv-x="1488" 
d="M508 540q0 -176 52 -240t120 -64q76 0 156 68t136 176v1772h304v-2252h-224l-56 228q-76 -116 -172 -192t-244 -76q-180 0 -278 130t-98 378v1784h304v-1712zM740 2472q-164 0 -268 100t-104 360h240q0 -140 40 -200t92 -60t92 56t40 204h240q0 -128 -28 -216t-80 -142
t-120 -78t-144 -24z" />
    <glyph glyph-name="Uring" unicode="&#x16e;" horiz-adv-x="1704" 
d="M852 -40q-116 0 -226 34t-196 116t-138 218t-52 340v2132h324v-2088q0 -148 22 -238t62 -138t92 -62t112 -14t112 14t90 62t62 138t24 238v2088h324v-2132q0 -204 -52 -340t-138 -218t-196 -116t-226 -34zM856 3140q52 0 76 30t24 74t-24 74t-76 30t-76 -30t-24 -74
t24 -74t76 -30zM856 3000q-116 0 -200 64t-84 180t84 182t200 66t200 -66t84 -182t-84 -180t-200 -64z" />
    <glyph glyph-name="uring" unicode="&#x16f;" horiz-adv-x="1488" 
d="M508 540q0 -176 52 -240t120 -64q76 0 156 68t136 176v1772h304v-2252h-224l-56 228q-76 -116 -172 -192t-244 -76q-180 0 -278 130t-98 378v1784h304v-1712zM740 2640q52 0 76 30t24 74t-24 74t-76 30t-76 -30t-24 -74t24 -74t76 -30zM740 2500q-116 0 -200 64t-84 180
t84 182t200 66t200 -66t84 -182t-84 -180t-200 -64z" />
    <glyph glyph-name="Uhungarumlaut" unicode="&#x170;" horiz-adv-x="1704" 
d="M852 -40q-116 0 -226 34t-196 116t-138 218t-52 340v2132h324v-2088q0 -148 22 -238t62 -138t92 -62t112 -14t112 14t90 62t62 138t24 238v2088h324v-2132q0 -204 -52 -340t-138 -218t-196 -116t-226 -34zM612 3432h324l-196 -400h-200zM1140 3432h324l-316 -400h-200z
" />
    <glyph glyph-name="uhungarumlaut" unicode="&#x171;" horiz-adv-x="1488" 
d="M508 540q0 -176 52 -240t120 -64q76 0 156 68t136 176v1772h304v-2252h-224l-56 228q-76 -116 -172 -192t-244 -76q-180 0 -278 130t-98 378v1784h304v-1712zM548 2980h324l-224 -448h-200zM1076 2980h324l-344 -448h-200z" />
    <glyph glyph-name="Uogonek" unicode="&#x172;" horiz-adv-x="1704" 
d="M660 -392q0 116 36 202t96 154q-108 8 -208 46t-176 120t-122 214t-46 324v2132h324v-2088q0 -148 22 -238t62 -138t92 -62t112 -14t112 14t90 62t62 138t24 238v2088h324v-2132q0 -156 -28 -266t-78 -188t-116 -134t-142 -100q-212 -128 -212 -320q0 -152 120 -152
q72 0 152 20v-200q-40 -12 -92 -20t-108 -8q-152 0 -226 86t-74 222z" />
    <glyph glyph-name="uogonek" unicode="&#x173;" horiz-adv-x="1488" 
d="M508 540q0 -176 52 -240t120 -64q76 0 156 68t136 176v1768h304v-2248q-148 -92 -212 -172t-64 -168q0 -152 120 -152q72 0 152 20v-200q-40 -12 -92 -20t-108 -8q-152 0 -226 86t-74 222q0 152 78 248t194 164l-48 208q-76 -116 -172 -192t-244 -76q-180 0 -278 130
t-98 378v1780h304v-1708z" />
    <glyph glyph-name="Wcircumflex" unicode="&#x174;" horiz-adv-x="2272" 
d="M1876 2800h292l-280 -2800h-368l-368 2300l-328 -2300h-384l-348 2800h324l228 -2304l348 2304h316l388 -2304zM1008 3432h284l276 -400h-276l-148 220l-148 -220h-260z" />
    <glyph glyph-name="wcircumflex" unicode="&#x175;" horiz-adv-x="2140" 
d="M1772 2252h272l-292 -2252h-340l-324 1900l-312 -1900h-356l-336 2252h296l236 -1852l296 1852h356l316 -1852zM944 2980h284l224 -448h-256l-116 256l-116 -256h-240z" />
    <glyph glyph-name="Ycircumflex" unicode="&#x176;" horiz-adv-x="1304" 
d="M508 1048l-468 1752h340l292 -1340l272 1340h320l-436 -1760v-1040h-320v1048zM508 3432h284l276 -400h-276l-148 220l-148 -220h-260z" />
    <glyph glyph-name="ycircumflex" unicode="&#x177;" horiz-adv-x="1296" 
d="M960 2252h284l-540 -2928h-288l120 680l-484 2248h308l324 -1756zM516 2980h284l224 -448h-256l-116 256l-116 -256h-240z" />
    <glyph glyph-name="Ydieresis" unicode="&#x178;" horiz-adv-x="1304" 
d="M508 1048l-468 1752h340l292 -1340l272 1340h320l-436 -1760v-1040h-320v1048zM252 3424h304v-392h-304v392zM792 3424h304v-392h-304v392z" />
    <glyph glyph-name="Zacute" unicode="&#x179;" horiz-adv-x="1284" 
d="M844 2504h-660v296h972v-296l-704 -2208h720v-296h-1048v296zM752 3432h396l-392 -400h-272z" />
    <glyph glyph-name="zacute" unicode="&#x17a;" horiz-adv-x="1176" 
d="M780 1996h-640v256h936v-272l-688 -1724h708v-256h-1016v272zM608 2980h344l-272 -448h-220z" />
    <glyph glyph-name="Zdotaccent" unicode="&#x17b;" horiz-adv-x="1284" 
d="M844 2504h-660v296h972v-296l-704 -2208h720v-296h-1048v296zM524 3424h304v-392h-304v392z" />
    <glyph glyph-name="zdotaccent" unicode="&#x17c;" horiz-adv-x="1176" 
d="M780 1996h-640v256h936v-272l-688 -1724h708v-256h-1016v272zM452 2924h304v-392h-304v392z" />
    <glyph glyph-name="Zcaron" unicode="&#x17d;" horiz-adv-x="1284" 
d="M844 2504h-660v296h972v-296l-704 -2208h720v-296h-1048v296zM820 3032h-284l-268 400h276l140 -220l156 220h260z" />
    <glyph glyph-name="zcaron" unicode="&#x17e;" horiz-adv-x="1176" 
d="M780 1996h-640v256h936v-272l-688 -1724h708v-256h-1016v272zM748 2532h-284l-216 448h256l108 -256l124 256h240z" />
    <glyph glyph-name="longs" unicode="&#x17f;" horiz-adv-x="984" 
d="M800 2672q-80 0 -136 -70t-56 -282v-2320h-304v1976h-256v276h256v116q0 292 102 442t362 150q80 0 154 -14t130 -34l-52 -268q-48 12 -100 20t-100 8z" />
    <glyph glyph-name="uni018F" unicode="&#x18f;" horiz-adv-x="1460" 
d="M980 1532q-4 340 -26 542t-58 308t-86 138t-102 32t-94 -36t-72 -122t-46 -228t-16 -354h-296q0 328 44 530t116 314t166 148t198 36q132 0 238 -62t184 -224t120 -444t42 -722q0 -464 -46 -744t-126 -432t-186 -202t-226 -50q-140 0 -242 70t-168 248t-98 482t-32 772
h812zM708 248q60 0 110 32t84 136t54 302t24 534h-508q0 -276 14 -466t44 -310t74 -174t104 -54z" />
    <glyph glyph-name="florin" unicode="&#x192;" horiz-adv-x="1424" 
d="M548 1224h-336v256h352l52 812q12 176 38 302t82 208t146 120t222 38q76 0 160 -12t140 -36l-52 -268q-44 8 -90 18t-110 10q-92 0 -152 -72t-76 -280l-56 -840h372v-256h-388l-88 -1332q-8 -136 -34 -242t-84 -178t-150 -110t-236 -38q-64 0 -146 12t-134 36l52 268
q44 -8 90 -18t110 -10q48 0 88 8t70 38t48 92t26 166z" />
    <glyph glyph-name="Aringacute" unicode="&#x1fa;" horiz-adv-x="1524" 
d="M1044 708h-540l-108 -708h-332l512 2800h408l508 -2800h-336zM552 1004h448l-224 1456zM752 3021q52 0 76 30t24 74t-24 74t-76 30t-76 -30t-24 -74t24 -74t76 -30zM752 2881q-116 0 -200 64t-84 180t84 182t200 66t200 -66t84 -182t-84 -180t-200 -64zM852 3832h396
l-392 -400h-272z" />
    <glyph glyph-name="aringacute" unicode="&#x1fb;" horiz-adv-x="1440" 
d="M936 1488q0 156 -12 258t-36 162t-62 82t-86 22q-44 0 -82 -20t-68 -72t-46 -148t-16 -244h-300q0 116 14 250t68 248t160 188t290 74q104 0 192 -36t150 -120t98 -222t36 -342v-1568h-220l-64 212q-68 -100 -150 -176t-234 -76q-56 0 -128 22t-138 88t-112 190t-46 324
q0 360 202 542t590 198v164zM460 600q0 -200 56 -272t136 -72t156 66t128 154v628q-148 -8 -240 -50t-144 -108t-72 -156t-20 -190zM732 2561q52 0 76 30t24 74t-24 74t-76 30t-76 -30t-24 -74t24 -74t76 -30zM732 2421q-116 0 -200 64t-84 180t84 182t200 66t200 -66
t84 -182t-84 -180t-200 -64zM736 3460h344l-272 -448h-220z" />
    <glyph glyph-name="AEacute" unicode="&#x1fc;" horiz-adv-x="2200" 
d="M1120 708h-544l-216 -708h-320l928 2800h1064v-296h-616v-964h556v-296h-556v-948h616v-296h-912v708zM1120 1004v1468l-452 -1468h452zM1448 3432h396l-392 -400h-272z" />
    <glyph glyph-name="aeacute" unicode="&#x1fd;" horiz-adv-x="2192" 
d="M1252 1068q4 -248 22 -406t50 -250t82 -128t114 -36q48 0 94 16t82 64t56 136t20 228h268q0 -224 -42 -368t-114 -224t-166 -110t-198 -30q-116 0 -228 56t-196 220q-96 -116 -214 -196t-306 -80q-64 0 -138 22t-140 88t-110 190t-44 324q0 344 204 504t588 196v204
q0 156 -12 258t-36 162t-62 82t-86 22q-44 0 -82 -20t-68 -72t-48 -148t-18 -244h-296q0 116 14 250t68 248t160 188t290 74q112 0 206 -50t162 -174q80 120 178 172t214 52q140 0 240 -56t162 -194t90 -374t28 -596h-788zM452 600q0 -104 16 -172t44 -108t64 -56t76 -16
q192 0 352 240q-56 224 -60 580q-152 -12 -248 -52t-150 -102t-74 -142t-20 -172zM1520 2012q-64 0 -112 -28t-80 -108t-52 -220t-24 -360h504q0 376 -56 546t-180 170zM1132 2980h344l-272 -448h-220z" />
    <glyph glyph-name="Oslashacute" unicode="&#x1fe;" horiz-adv-x="1632" 
d="M816 2840q116 0 208 -32l40 184h204l-64 -296q64 -64 116 -168t88 -260t56 -370t20 -498q0 -468 -54 -752t-144 -438t-212 -202t-258 -48q-56 0 -108 6t-100 26l-40 -184h-204l64 292q-64 64 -116 168t-88 260t-56 372t-20 500q0 468 54 752t144 438t212 202t258 48z
M1144 1400q0 292 -12 490t-36 326l-420 -1920q32 -24 66 -32t74 -8q80 0 140 32t102 150t64 344t22 618zM816 2544q-80 0 -140 -38t-100 -158t-62 -346t-22 -602q0 -280 12 -474t32 -322l420 1908q-52 32 -140 32zM880 3432h396l-392 -400h-272z" />
    <glyph glyph-name="oslashacute" unicode="&#x1ff;" horiz-adv-x="1456" 
d="M740 2980h344l-272 -448h-220zM728 2288q92 0 160 -16l44 216h164l-60 -288q60 -48 110 -130t86 -210t56 -310t20 -430q0 -376 -44 -604t-122 -352t-184 -164t-230 -40q-88 0 -152 16l-44 -208h-164l56 276q-64 48 -114 128t-86 208t-56 310t-20 430q0 380 44 610
t122 354t184 164t230 40zM728 2020q-64 0 -116 -34t-88 -130t-54 -272t-18 -464q0 -248 14 -410t42 -266l324 1556q-40 20 -104 20zM1008 1120q0 256 -14 420t-42 264l-320 -1560q36 -20 96 -20q64 0 116 30t88 124t56 270t20 472z" />
    <glyph glyph-name="Scommaaccent" unicode="&#x218;" horiz-adv-x="1360" 
d="M912 2004q0 296 -60 418t-176 122q-32 0 -66 -8t-66 -34t-52 -80t-20 -146q0 -120 58 -244t146 -254t188 -268t188 -284t146 -302t58 -324t-48 -290t-126 -200t-180 -114t-214 -36q-124 0 -228 42t-182 140t-122 260t-44 402h328q0 -168 20 -274t54 -170t80 -88t98 -24
q40 0 84 12t80 48t60 100t24 164q0 132 -58 268t-148 274t-192 280t-192 286t-148 294t-58 306q0 176 56 286t138 170t174 82t164 22q96 0 196 -32t178 -122t128 -254t50 -428h-316zM528 -204h312l-200 -620h-188z" />
    <glyph glyph-name="scommaaccent" unicode="&#x219;" horiz-adv-x="1224" 
d="M800 1552q0 264 -54 366t-138 102q-56 0 -108 -52t-52 -160q0 -148 100 -298t222 -312t222 -346t100 -400q0 -240 -136 -366t-352 -126q-240 0 -370 174t-130 578h288q0 -152 20 -246t52 -148t72 -72t84 -18q72 0 128 50t56 174q0 160 -100 310t-222 310t-222 338
t-100 390q0 132 38 224t102 150t146 86t170 28q144 0 234 -64t140 -168t70 -236t24 -268h-284zM516 -204h312l-200 -620h-188z" />
    <glyph glyph-name="uni021A" unicode="&#x21a;" horiz-adv-x="1340" 
d="M1332 2800v-296h-500v-2504h-324v2504h-500v296h1324zM512 -204h312l-200 -620h-188z" />
    <glyph glyph-name="uni021B" unicode="&#x21b;" horiz-adv-x="1056" 
d="M756 240q48 0 96 8t92 28l64 -252q-68 -36 -152 -50t-152 -14q-116 0 -196 40t-128 114t-68 182t-20 240v1460h-244v256h244v508h304v-508h360v-256h-360v-1428q0 -204 46 -266t114 -62zM424 -204h312l-200 -620h-188z" />
    <glyph glyph-name="uni0237" unicode="&#x237;" horiz-adv-x="772" 
d="M256 2252h304v-2200q0 -284 -108 -450t-388 -278l-104 256q76 44 132 82t92 86t54 118t18 178v2208z" />
    <glyph glyph-name="uni0259" unicode="&#x259;" horiz-adv-x="1404" 
d="M948 1252q-4 216 -22 362t-48 232t-76 124t-110 38q-112 0 -168 -106t-56 -346h-280q0 236 48 380t124 222t164 104t168 26q132 0 236 -50t176 -180t112 -354t40 -576q0 -372 -42 -602t-118 -356t-180 -168t-228 -42q-156 0 -260 60t-164 206t-86 396t-26 630h796z
M684 252q64 0 110 26t80 104t52 220t22 370h-504q0 -236 16 -378t46 -218t76 -100t102 -24z" />
    <glyph glyph-name="uni02BB" unicode="&#x2bb;" horiz-adv-x="644" 
d="M404 2000h-324l244 840h200z" />
    <glyph glyph-name="afii57929" unicode="&#x2bc;" horiz-adv-x="644" 
d="M240 2840h324l-244 -840h-200z" />
    <glyph glyph-name="circumflex" unicode="&#x2c6;" horiz-adv-x="1456" 
d="M584 2980h284l224 -448h-256l-116 256l-116 -256h-240z" />
    <glyph glyph-name="caron" unicode="&#x2c7;" horiz-adv-x="1456" 
d="M864 2532h-284l-216 448h256l108 -256l124 256h240z" />
    <glyph glyph-name="breve" unicode="&#x2d8;" horiz-adv-x="1456" 
d="M728 2472q-164 0 -268 100t-104 360h240q0 -140 40 -200t92 -60t92 56t40 204h240q0 -128 -28 -216t-80 -142t-120 -78t-144 -24z" />
    <glyph glyph-name="dotaccent" unicode="&#x2d9;" horiz-adv-x="1456" 
d="M576 2924h304v-392h-304v392z" />
    <glyph glyph-name="ring" unicode="&#x2da;" horiz-adv-x="1456" 
d="M728 2640q52 0 76 30t24 74t-24 74t-76 30t-76 -30t-24 -74t24 -74t76 -30zM728 2500q-116 0 -200 64t-84 180t84 182t200 66t200 -66t84 -182t-84 -180t-200 -64z" />
    <glyph glyph-name="ogonek" unicode="&#x2db;" horiz-adv-x="1456" 
d="M1004 44q-192 -108 -270 -198t-78 -186q0 -152 120 -152q72 0 152 20v-200q-40 -12 -92 -20t-108 -8q-152 0 -226 86t-74 222q0 164 94 266t226 170h256z" />
    <glyph glyph-name="tilde" unicode="&#x2dc;" horiz-adv-x="1456" 
d="M1184 2964q0 -140 -26 -226t-66 -132t-86 -60t-94 -14q-64 0 -118 22t-118 94q-36 44 -62 72t-50 28q-36 0 -66 -42t-30 -158h-196q0 140 28 224t70 130t94 62t96 16q72 0 122 -32t106 -100q52 -64 76 -78t44 -14q40 0 60 40t20 168h196z" />
    <glyph glyph-name="hungarumlaut" unicode="&#x2dd;" horiz-adv-x="1456" 
d="M524 2980h324l-224 -448h-200zM1052 2980h324l-344 -448h-200z" />
    <glyph glyph-name="gravecomb" unicode="&#x300;" horiz-adv-x="4" 
d="M-584 2532h-220l-272 448h344z" />
    <glyph glyph-name="acutecomb" unicode="&#x301;" horiz-adv-x="4" 
d="M-696 2980h344l-272 -448h-220z" />
    <glyph glyph-name="uni0302" unicode="&#x302;" horiz-adv-x="4" 
d="M-872 2980h284l224 -448h-256l-116 256l-116 -256h-240z" />
    <glyph glyph-name="tildecomb" unicode="&#x303;" horiz-adv-x="4" 
d="M-272 2964q0 -140 -26 -226t-66 -132t-86 -60t-94 -14q-64 0 -118 22t-118 94q-36 44 -62 72t-50 28q-36 0 -66 -42t-30 -158h-196q0 140 28 224t70 130t94 62t96 16q72 0 122 -32t106 -100q52 -64 76 -78t44 -14q40 0 60 40t20 168h196z" />
    <glyph glyph-name="uni0304" unicode="&#x304;" horiz-adv-x="4" 
d="M-1096 2784h740v-252h-740v252z" />
    <glyph glyph-name="uni0306" unicode="&#x306;" horiz-adv-x="4" 
d="M-728 2472q-164 0 -268 100t-104 360h240q0 -140 40 -200t92 -60t92 56t40 204h240q0 -128 -28 -216t-80 -142t-120 -78t-144 -24z" />
    <glyph glyph-name="uni0307" unicode="&#x307;" horiz-adv-x="4" 
d="M-880 2924h304v-392h-304v392z" />
    <glyph glyph-name="uni0308" unicode="&#x308;" horiz-adv-x="4" 
d="M-1148 2924h304v-392h-304v392zM-608 2924h304v-392h-304v392z" />
    <glyph glyph-name="uni030A" unicode="&#x30a;" horiz-adv-x="4" 
d="M-728 2640q52 0 76 30t24 74t-24 74t-76 30t-76 -30t-24 -74t24 -74t76 -30zM-728 2500q-116 0 -200 64t-84 180t84 182t200 66t200 -66t84 -182t-84 -180t-200 -64z" />
    <glyph glyph-name="uni030B" unicode="&#x30b;" horiz-adv-x="4" 
d="M-932 2980h324l-224 -448h-200zM-404 2980h324l-344 -448h-200z" />
    <glyph glyph-name="uni030C" unicode="&#x30c;" horiz-adv-x="4" 
d="M-592 2532h-284l-216 448h256l108 -256l124 256h240z" />
    <glyph glyph-name="uni0312" unicode="&#x312;" horiz-adv-x="4" 
d="M-564 2564h-312l200 620h188z" />
    <glyph glyph-name="uni0326" unicode="&#x326;" horiz-adv-x="4" 
d="M-1036 -204h312l-200 -620h-188z" />
    <glyph glyph-name="uni0327" unicode="&#x327;" horiz-adv-x="4" 
d="M-368 76l-72 -272q152 -4 216 -62t64 -174q0 -80 -32 -132t-82 -84t-112 -44t-122 -12q-56 0 -96 6t-84 18v180q96 -28 164 -28t122 18t54 78q0 56 -54 76t-158 20h-36q-20 0 -52 -4v124l112 292h168z" />
    <glyph glyph-name="uni0328" unicode="&#x328;" horiz-adv-x="4" 
d="M-452 44q-192 -108 -270 -198t-78 -186q0 -152 120 -152q72 0 152 20v-200q-40 -12 -92 -20t-108 -8q-152 0 -226 86t-74 222q0 164 94 266t226 170h256z" />
    <glyph glyph-name="uni0394" unicode="&#x394;" horiz-adv-x="1916" 
d="M112 0l672 2928h316l676 -2928h-1664zM500 304h884l-444 2084z" />
    <glyph glyph-name="uni03A9" unicode="&#x3a9;" horiz-adv-x="1536" 
d="M876 268q84 164 134 458t50 762q0 376 -20 588t-56 318t-90 130t-126 24q-68 0 -122 -30t-90 -138t-56 -320t-20 -572q0 -236 14 -424t40 -334t58 -260t68 -202v-268h-488v268h224q-92 192 -160 488t-68 732q0 456 46 724t126 408t190 180t238 40t238 -40t190 -180
t126 -408t46 -724q0 -472 -74 -768t-158 -452h228v-268h-488v268z" />
    <glyph glyph-name="uni03BC" unicode="&#x3bc;" horiz-adv-x="1488" 
d="M508 540q0 -176 52 -240t120 -64q76 0 156 68t136 176v1772h304v-2252h-224l-56 228q-76 -116 -172 -192t-244 -76q-64 0 -124 24q8 -52 12 -108t4 -116v-436h-268v2928h304v-1712z" />
    <glyph glyph-name="pi" unicode="&#x3c0;" horiz-adv-x="1756" 
d="M1608 -28q-72 -12 -140 -12q-116 0 -194 40t-126 114t-68 182t-20 240v1440h-424v-1976h-300v1976h-248v276h1564v-276h-292v-1400q0 -204 46 -266t114 -62h40q24 0 44 4z" />
    <glyph glyph-name="Wgrave" unicode="&#x1e80;" horiz-adv-x="2272" 
d="M1876 2800h292l-280 -2800h-368l-368 2300l-328 -2300h-384l-348 2800h324l228 -2304l348 2304h316l388 -2304zM1292 3032h-272l-392 400h396z" />
    <glyph glyph-name="wgrave" unicode="&#x1e81;" horiz-adv-x="2140" 
d="M1772 2252h272l-292 -2252h-340l-324 1900l-312 -1900h-356l-336 2252h296l236 -1852l296 1852h356l316 -1852zM1224 2532h-220l-272 448h344z" />
    <glyph glyph-name="Wacute" unicode="&#x1e82;" horiz-adv-x="2272" 
d="M1876 2800h292l-280 -2800h-368l-368 2300l-328 -2300h-384l-348 2800h324l228 -2304l348 2304h316l388 -2304zM1280 3432h396l-392 -400h-272z" />
    <glyph glyph-name="wacute" unicode="&#x1e83;" horiz-adv-x="2140" 
d="M1772 2252h272l-292 -2252h-340l-324 1900l-312 -1900h-356l-336 2252h296l236 -1852l296 1852h356l316 -1852zM1084 2980h344l-272 -448h-220z" />
    <glyph glyph-name="Wdieresis" unicode="&#x1e84;" horiz-adv-x="2272" 
d="M1876 2800h292l-280 -2800h-368l-368 2300l-328 -2300h-384l-348 2800h324l228 -2304l348 2304h316l388 -2304zM736 3424h304v-392h-304v392zM1276 3424h304v-392h-304v392z" />
    <glyph glyph-name="wdieresis" unicode="&#x1e85;" horiz-adv-x="2140" 
d="M1772 2252h272l-292 -2252h-340l-324 1900l-312 -1900h-356l-336 2252h296l236 -1852l296 1852h356l316 -1852zM672 2924h304v-392h-304v392zM1212 2924h304v-392h-304v392z" />
    <glyph glyph-name="Ygrave" unicode="&#x1ef2;" horiz-adv-x="1304" 
d="M508 1048l-468 1752h340l292 -1340l272 1340h320l-436 -1760v-1040h-320v1048zM848 3032h-272l-392 400h396z" />
    <glyph glyph-name="ygrave" unicode="&#x1ef3;" horiz-adv-x="1296" 
d="M960 2252h284l-540 -2928h-288l120 680l-484 2248h308l324 -1756zM784 2532h-220l-272 448h344z" />
    <glyph glyph-name="uni2007" unicode="&#x2007;" horiz-adv-x="1520" 
 />
    <glyph glyph-name="uni2008" unicode="&#x2008;" horiz-adv-x="724" 
 />
    <glyph glyph-name="uni200B" unicode="&#x200b;" 
 />
    <glyph glyph-name="endash" unicode="&#x2013;" horiz-adv-x="1556" 
d="M1336 1140h-1116v256h1116v-256z" />
    <glyph glyph-name="emdash" unicode="&#x2014;" horiz-adv-x="2024" 
d="M1792 1172h-1584v224h1584v-224z" />
    <glyph glyph-name="quoteleft" unicode="&#x2018;" horiz-adv-x="644" 
d="M404 2000h-324l244 840h200z" />
    <glyph glyph-name="quoteright" unicode="&#x2019;" horiz-adv-x="644" 
d="M240 2840h324l-244 -840h-200z" />
    <glyph glyph-name="quotesinglbase" unicode="&#x201a;" horiz-adv-x="724" 
d="M200 392h324l-244 -840h-200z" />
    <glyph glyph-name="quotedblleft" unicode="&#x201c;" horiz-adv-x="1180" 
d="M404 2000h-324l244 840h200zM940 2000h-324l244 840h200z" />
    <glyph glyph-name="quotedblright" unicode="&#x201d;" horiz-adv-x="1180" 
d="M240 2840h324l-244 -840h-200zM776 2840h324l-244 -840h-200z" />
    <glyph glyph-name="quotedblbase" unicode="&#x201e;" horiz-adv-x="1260" 
d="M200 392h324l-244 -840h-200zM736 392h324l-244 -840h-200z" />
    <glyph glyph-name="dagger" unicode="&#x2020;" horiz-adv-x="1484" 
d="M888 1752l-24 -1992h-248l-28 1992l-448 -16v276l448 -20v808h304v-808l452 20v-276z" />
    <glyph glyph-name="daggerdbl" unicode="&#x2021;" horiz-adv-x="1484" 
d="M880 960l-16 -1200h-248l-16 1200l-460 -16v276l456 -20l-8 552l-448 -16v276l448 -20v808h304v-808l452 20v-276l-456 16l-4 -552l460 20v-276z" />
    <glyph glyph-name="bullet" unicode="&#x2022;" horiz-adv-x="652" 
d="M108 1560h436v-500h-436v500z" />
    <glyph glyph-name="ellipsis" unicode="&#x2026;" horiz-adv-x="1532" 
d="M108 392h304v-392h-304v392zM612 392h304v-392h-304v392zM1116 392h304v-392h-304v392z" />
    <glyph glyph-name="perthousand" unicode="&#x2030;" horiz-adv-x="3172" 
d="M2600 1340q84 0 158 -26t130 -100t90 -210t34 -356t-34 -354t-90 -208t-130 -100t-158 -26t-158 26t-130 100t-90 208t-34 354t34 356t90 210t130 100t158 26zM2600 1104q-32 0 -60 -18t-48 -66t-32 -138t-12 -234t12 -232t32 -138t48 -68t60 -18t60 14t50 62t34 138
t12 242q0 156 -12 246t-34 136t-50 60t-60 14zM572 2840q84 0 158 -26t130 -100t90 -210t34 -356t-34 -354t-90 -208t-130 -100t-158 -26t-158 26t-130 100t-90 208t-34 354t34 356t90 210t130 100t158 26zM572 2616q-32 0 -60 -20t-48 -70t-32 -142t-12 -236t12 -234
t32 -142t48 -72t60 -20t60 16t50 66t34 142t12 244q0 156 -12 248t-34 140t-50 64t-60 16zM1624 1340q84 0 158 -26t130 -100t90 -210t34 -356t-34 -354t-90 -208t-130 -100t-158 -26t-158 26t-130 100t-90 208t-34 354t34 356t90 210t130 100t158 26zM1624 1116
q-32 0 -60 -20t-48 -70t-32 -142t-12 -236t12 -234t32 -142t48 -72t60 -20t60 16t50 66t34 142t12 244q0 156 -12 248t-34 140t-50 64t-60 16zM1676 2800h236l-1400 -2800h-236z" />
    <glyph glyph-name="guilsinglleft" unicode="&#x2039;" horiz-adv-x="872" 
d="M472 1144l232 -776h-252l-252 776l236 776h264z" />
    <glyph glyph-name="guilsinglright" unicode="&#x203a;" horiz-adv-x="872" 
d="M172 1920h264l236 -776l-252 -776h-252l232 776z" />
    <glyph glyph-name="fraction" unicode="&#x2044;" horiz-adv-x="600" 
d="M884 2800h236l-1400 -2800h-236z" />
    <glyph glyph-name="uni2074" unicode="&#x2074;" horiz-adv-x="904" 
d="M244 1896h236v376q0 48 2 124t6 132zM32 1896l384 904h268v-904h152v-176h-152v-228h-204v228h-448v176z" />
    <glyph glyph-name="Euro" unicode="&#x20ac;" horiz-adv-x="1448" 
d="M60 1792h264q24 316 88 518t160 320t222 164t278 46q92 0 164 -6t128 -14v-264q-68 8 -146 10t-146 2q-88 0 -160 -36t-128 -126t-94 -238t-54 -376h544v-260h-556v-272h556v-260h-544q16 -224 54 -372t94 -236t128 -124t160 -36q72 0 150 6t146 18v-268
q-64 -12 -140 -20t-156 -8q-152 0 -278 44t-222 162t-160 320t-88 514h-264v260h252v272h-252v260z" />
    <glyph glyph-name="trademark" unicode="&#x2122;" horiz-adv-x="1824" 
d="M680 2800v-172h-188v-832h-188v832h-184v172h560zM1084 2800l112 -604l40 -236h12l40 236l112 604h304v-1004h-168v756l4 84h-12l-16 -88l-144 -752h-252l-148 752l-24 88h-8l4 -92v-748h-168v1004h312z" />
    <glyph glyph-name="Omega" unicode="&#x2126;" horiz-adv-x="1536" 
d="M876 268q84 164 134 458t50 762q0 376 -20 588t-56 318t-90 130t-126 24q-68 0 -122 -30t-90 -138t-56 -320t-20 -572q0 -236 14 -424t40 -334t58 -260t68 -202v-268h-488v268h224q-92 192 -160 488t-68 732q0 456 46 724t126 408t190 180t238 40t238 -40t190 -180
t126 -408t46 -724q0 -472 -74 -768t-158 -452h228v-268h-488v268z" />
    <glyph glyph-name="partialdiff" unicode="&#x2202;" horiz-adv-x="1416" 
d="M632 2952q144 0 262 -54t200 -204t128 -418t46 -692q0 -564 -46 -890t-128 -488t-188 -204t-226 -42q-96 0 -196 32t-180 132t-132 288t-52 504t54 500t136 280t176 122t174 26q84 0 156 -26t144 -74q0 292 -24 478t-70 292t-110 144t-140 38q-104 0 -186 -44t-134 -88
l-124 208q60 48 182 114t278 66zM680 1580q-48 0 -94 -18t-82 -86t-60 -200t-24 -360q0 -240 24 -374t60 -202t84 -84t96 -16q60 0 110 32t88 144t58 324t20 572v144q-56 52 -122 88t-158 36z" />
    <glyph glyph-name="Delta" unicode="&#x2206;" horiz-adv-x="1916" 
d="M112 0l672 2928h316l676 -2928h-1664zM500 304h884l-444 2084z" />
    <glyph glyph-name="product" unicode="&#x220f;" horiz-adv-x="1668" 
d="M1588 3192v-272h-252v-3300h-300v3300h-404v-3300h-300v3300h-252v272h1508z" />
    <glyph glyph-name="summation" unicode="&#x2211;" horiz-adv-x="1172" 
d="M132 -380v276l464 1496l-464 1524v276h932v-276h-612l460 -1512l-468 -1508h660v-276h-972z" />
    <glyph glyph-name="minus" unicode="&#x2212;" horiz-adv-x="1400" 
d="M128 1224v240h1148v-240h-1148z" />
    <glyph glyph-name="uni2219" unicode="&#x2219;" horiz-adv-x="1400" 
d="M480 1560h436v-500h-436v500z" />
    <glyph glyph-name="radical" unicode="&#x221a;" horiz-adv-x="1560" 
d="M556 1380l208 -904l412 2452h304l-532 -2928h-336l-304 1124h-188v256h436z" />
    <glyph glyph-name="infinity" unicode="&#x221e;" horiz-adv-x="1912" 
d="M936 1076l-36 -80q-56 -128 -154 -196t-250 -68q-92 0 -172 30t-138 100t-92 182t-34 276q0 320 132 452t332 132q160 0 248 -68t156 -212l32 -68l36 68q56 108 144 194t264 86q200 0 324 -136t124 -444q0 -164 -34 -276t-98 -182t-150 -102t-186 -32q-136 0 -232 56
t-176 208zM1084 1304l84 -160q48 -92 102 -130t110 -38q104 0 154 76t50 264q0 204 -54 278t-146 74q-76 0 -120 -54t-88 -138zM524 976q64 0 104 30t84 122l100 200l-96 192q-76 148 -196 148q-80 0 -136 -72t-56 -276q0 -188 50 -266t146 -78z" />
    <glyph glyph-name="integral" unicode="&#x222b;" horiz-adv-x="1092" 
d="M184 -108q40 0 74 16t60 54t42 106t16 176v2420q0 296 104 444t368 148q64 0 146 -12t138 -36l-52 -268q-44 8 -90 18t-110 10q-80 0 -136 -70t-56 -282v-2420q0 -296 -104 -444t-368 -148q-64 0 -146 12t-138 36l52 268q44 -8 90 -18t110 -10z" />
    <glyph glyph-name="approxequal" unicode="&#x2248;" horiz-adv-x="1400" 
d="M196 1700q48 28 128 62t176 34q64 0 118 -16t104 -34t100 -34t106 -16q124 0 224 64l52 -252q-72 -48 -136 -74t-156 -26q-56 0 -104 16t-98 34t-104 34t-118 16q-72 0 -138 -20t-114 -52zM196 1148q48 28 128 62t176 34q64 0 118 -16t104 -34t100 -34t106 -16
q124 0 224 64l52 -252q-72 -48 -136 -74t-156 -26q-56 0 -104 16t-98 34t-104 34t-118 16q-72 0 -138 -20t-114 -52z" />
    <glyph glyph-name="notequal" unicode="&#x2260;" horiz-adv-x="1400" 
d="M1204 908h-468l-68 -304h-264l68 304h-276v248h332l72 336h-404v248h460l68 304h264l-68 -304h284v-248h-340l-72 -336h412v-248z" />
    <glyph glyph-name="lessequal" unicode="&#x2264;" horiz-adv-x="1400" 
d="M1204 384h-1008v260h1008v-260zM436 1452l768 -360v-304l-1008 492v308l1008 528v-304z" />
    <glyph glyph-name="greaterequal" unicode="&#x2265;" horiz-adv-x="1400" 
d="M1204 384h-1008v260h1008v-260zM964 1448l-768 356v308l1008 -492v-308l-1008 -528v304z" />
    <glyph glyph-name="dotmath" unicode="&#x22c5;" horiz-adv-x="1400" 
d="M548 1529h304v-392h-304v392z" />
    <glyph glyph-name="lozenge" unicode="&#x25ca;" horiz-adv-x="1480" 
d="M860 2800l580 -1432l-560 -1368h-256l-584 1368l552 1432h268zM728 2416l-364 -1048l392 -1000l376 1000z" />
    <glyph glyph-name="fi" unicode="&#xfb01;" horiz-adv-x="1756" 
d="M1240 2252h304v-2252h-304v2252zM1240 2924h304v-392h-304v392zM792 2684q-36 0 -70 -14t-58 -50t-40 -102t-16 -170v-96h348v-256h-348v-1996h-304v1996h-256v256h256v136q0 284 102 428t362 144q56 0 126 -14t118 -34l-52 -256q-40 12 -76 20t-92 8z" />
    <glyph glyph-name="fl" unicode="&#xfb02;" horiz-adv-x="1740" 
d="M1224 2928h304v-2928h-304v2928zM792 2684q-36 0 -70 -14t-58 -50t-40 -102t-16 -170v-96h348v-256h-348v-1996h-304v1996h-256v256h256v136q0 284 102 428t362 144q56 0 126 -14t118 -34l-52 -256q-40 12 -76 20t-92 8z" />
    <glyph glyph-name="uniFEFF" unicode="&#xfeff;" 
 />
    <glyph glyph-name="uni030C.alt001" horiz-adv-x="764" 
d="M204 2928h324l-124 -504h-200v504z" />
    <glyph glyph-name="i.latn_TRK" horiz-adv-x="728" 
d="M212 2252h304v-2252h-304v2252zM212 2924h304v-392h-304v392z" />
    <glyph glyph-name="Ldot.latn_CAT" horiz-adv-x="1232" 
d="M248 2800h324v-2504h608v-296h-932v2800zM848 1728h304v-392h-304v392z" />
    <glyph glyph-name="ldot.latn_CAT" horiz-adv-x="984" 
d="M212 2928h304v-2928h-304v2928zM692 1728h304v-392h-304v392z" />
    <glyph glyph-name="dollar.tf" horiz-adv-x="1400" 
d="M588 88q-192 36 -302 216t-110 568h284q0 -156 18 -254t52 -156t80 -80t102 -22q40 0 82 14t72 50t50 100t20 168q0 128 -52 246t-130 234t-170 232t-170 236t-130 248t-52 272t32 242t82 162t114 98t128 46v392h228v-392q80 -12 150 -56t124 -134t86 -232t32 -354h-272
q0 276 -56 390t-176 114q-32 0 -64 -8t-60 -38t-44 -84t-16 -150q0 -100 50 -204t128 -216t166 -230t166 -244t128 -262t50 -280q0 -300 -106 -450t-286 -182v-388h-228v388z" />
    <glyph glyph-name="zero.tf" horiz-adv-x="1400" 
d="M720 2840q116 0 218 -48t180 -202t124 -438t46 -752t-46 -752t-124 -438t-180 -202t-218 -48t-218 48t-180 202t-124 438t-46 752t46 752t124 438t180 202t218 48zM720 2536q-56 0 -100 -36t-74 -156t-46 -344t-16 -600t16 -600t46 -344t74 -156t100 -36t100 32t74 146
t46 340t16 618q0 388 -16 616t-46 342t-74 146t-100 32z" />
    <glyph glyph-name="one.tf" horiz-adv-x="1400" 
d="M612 280v2204l-368 -48v264l484 100h192v-2520h340v-280h-1024v280h376z" />
    <glyph glyph-name="two.tf" horiz-adv-x="1400" 
d="M244 300q0 208 52 376t130 310t168 272t168 260t130 272t52 314q0 252 -40 350t-132 98q-72 0 -114 -60t-60 -156t-22 -214t-4 -230h-304q0 248 24 426t84 294t158 172t246 56q220 0 352 -166t132 -562q0 -204 -52 -370t-130 -306t-170 -270t-170 -264t-130 -286
t-52 -336h724v-280h-1040v300z" />
    <glyph glyph-name="three.tf" horiz-adv-x="1400" 
d="M924 2168q0 172 -32 278t-148 106q-60 0 -102 -32t-70 -110t-40 -204t-12 -314h-316q0 480 122 714t422 234q144 0 242 -60t154 -156t80 -216t24 -240q0 -312 -78 -466t-250 -226q120 -32 196 -104t120 -168t60 -210t16 -226q0 -232 -48 -386t-128 -248t-180 -134
t-204 -40q-284 0 -418 234t-134 698h316q0 -356 66 -500t182 -144q104 0 164 118t60 398q0 132 -14 228t-56 162t-118 102t-200 52v260q76 24 136 56t102 96t64 172t22 276z" />
    <glyph glyph-name="four.tf" horiz-adv-x="1400" 
d="M784 2800h348v-1932h200v-268h-200v-600h-296v600h-752v268zM836 868v892q0 132 4 268t8 236l-480 -1396h468z" />
    <glyph glyph-name="five.tf" horiz-adv-x="1400" 
d="M497 1612q44 44 120 76t152 32q68 0 154 -26t160 -114t126 -258t52 -458q0 -248 -40 -420t-116 -280t-180 -156t-232 -48q-256 0 -394 226t-138 702h316q0 -108 8 -222t34 -208t70 -152t116 -58q136 0 186 150t50 434q0 208 -18 330t-50 184t-74 78t-90 16
q-60 0 -118 -38t-102 -86l-288 40l76 1444h888v-280h-624z" />
    <glyph glyph-name="six.tf" horiz-adv-x="1400" 
d="M776 2552q-64 0 -114 -30t-86 -136t-54 -308t-18 -550q64 80 138 124t178 44q76 0 166 -38t166 -134t126 -264t50 -428q0 -468 -150 -670t-402 -202q-136 0 -246 54t-186 204t-116 420t-40 702q0 464 34 756t106 458t184 226t264 60q248 0 370 -226t122 -722h-304
q0 196 -14 322t-38 202t-58 106t-78 30zM776 1424q-92 0 -160 -60t-112 -144q0 -304 22 -494t58 -296t86 -144t106 -38q60 0 104 20t76 82t48 178t16 304q0 192 -24 308t-60 180t-78 84t-82 20z" />
    <glyph glyph-name="seven.tf" horiz-adv-x="1400" 
d="M1216 2512q-104 -352 -178 -652t-124 -594t-76 -600t-34 -666h-308q0 372 28 698t80 628t132 594t184 600h-716v280h1012v-288z" />
    <glyph glyph-name="eight.tf" horiz-adv-x="1400" 
d="M728 2840q84 0 178 -30t170 -110t126 -226t50 -374q0 -276 -88 -428t-208 -216q68 -32 130 -88t110 -146t76 -212t28 -286q0 -240 -56 -390t-142 -234t-188 -112t-190 -28q-96 0 -198 30t-186 112t-136 232t-52 390q0 148 22 258t62 192t98 142t134 104q-48 28 -100 80
t-92 134t-66 198t-26 268q0 224 52 368t132 226t176 114t184 32zM724 1276q-136 0 -202 -124t-66 -428q0 -144 22 -240t58 -152t84 -78t104 -22t106 18t86 70t58 148t22 256q0 164 -22 272t-60 170t-88 86t-102 24zM728 2564q-100 0 -168 -98t-68 -366q0 -144 22 -242
t56 -158t76 -86t82 -26q48 0 88 20t70 76t48 156t18 260q0 144 -18 234t-48 142t-70 70t-88 18z" />
    <glyph glyph-name="nine.tf" horiz-adv-x="1400" 
d="M700 248q64 0 110 26t76 128t46 310t16 568q-68 -68 -140 -110t-176 -42q-76 0 -164 30t-164 124t-126 264t-50 446q0 272 56 438t140 258t182 122t182 30q116 0 222 -42t186 -196t126 -452t46 -810q0 -436 -38 -706t-110 -420t-180 -202t-244 -52q-124 0 -222 52
t-166 164t-104 288t-36 424h308q0 -192 18 -316t48 -196t70 -100t88 -28zM676 1396q100 0 164 56t108 128v80q0 256 -18 428t-52 276t-80 148t-106 44q-48 0 -94 -14t-82 -72t-56 -170t-20 -308q0 -192 18 -310t52 -180t76 -84t90 -22z" />
    <glyph glyph-name="cent.tf" horiz-adv-x="1400" 
d="M624 132q-96 20 -172 78t-130 172t-82 294t-28 444t28 444t82 296t130 176t172 80v384h228v-384q152 -32 248 -200t96 -532h-296q0 452 -148 452q-56 0 -98 -32t-72 -114t-44 -220t-14 -350t14 -350t44 -218t72 -110t98 -30q72 0 114 88t42 312h304q0 -172 -28 -294
t-76 -202t-114 -126t-142 -62v-428h-228v432z" />
    <glyph glyph-name="sterling.tf" horiz-adv-x="1400" 
d="M352 1292h-224v268h248l60 668q12 148 44 264t92 192t154 116t238 40q80 0 180 -14t176 -34l-52 -264q-68 12 -142 20t-130 8q-120 0 -182 -74t-78 -282l-56 -640h504v-268h-528l-84 -1008h644v-284h-976z" />
    <glyph glyph-name="currency.tf" horiz-adv-x="1400" 
d="M1172 1628q88 -140 88 -316q0 -184 -92 -320l176 -172l-160 -156l-176 176q-128 -80 -296 -80q-180 0 -316 92l-188 -188l-144 156l180 180q-40 68 -62 144t-22 168q0 168 76 296l-176 184l152 156l176 -180q68 44 150 70t174 26q164 0 304 -88l168 168l148 -156z
M712 988q148 0 224 92t76 232q0 144 -76 236t-224 92q-144 0 -222 -92t-78 -236q0 -140 78 -232t222 -92z" />
    <glyph glyph-name="yen.tf" horiz-adv-x="1400" 
d="M556 488h-384v260h384v284h-384v260h316l-400 1508h340l292 -1340l272 1340h320l-376 -1508h292v-260h-352v-284h352v-260h-352v-488h-320v488z" />
    <glyph glyph-name="florin.tf" horiz-adv-x="1400" 
d="M533 1224h-336v256h352l52 812q12 176 38 302t82 208t146 120t222 38q76 0 160 -12t140 -36l-52 -268q-44 8 -90 18t-110 10q-92 0 -152 -72t-76 -280l-56 -840h372v-256h-388l-88 -1332q-8 -136 -34 -242t-84 -178t-150 -110t-236 -38q-64 0 -146 12t-134 36l52 268
q44 -8 90 -18t110 -10q48 0 88 8t70 38t48 92t26 166z" />
    <glyph glyph-name="uni2007.tf" horiz-adv-x="1400" 
 />
    <glyph glyph-name="Euro.tf" horiz-adv-x="1400" 
d="M60 1792h264q24 316 88 518t160 320t222 164t278 46q92 0 164 -6t128 -14v-264q-68 8 -146 10t-146 2q-88 0 -160 -36t-128 -126t-94 -238t-54 -376h544v-260h-556v-272h556v-260h-544q16 -224 54 -372t94 -236t128 -124t160 -36q72 0 150 6t146 18v-268
q-64 -12 -140 -20t-156 -8q-152 0 -278 44t-222 162t-160 320t-88 514h-264v260h252v272h-252v260z" />
    <glyph glyph-name="parenleft.case" horiz-adv-x="928" 
d="M604 -264q-108 216 -188 480q-68 228 -126 530t-58 658q0 376 58 680t126 520q80 252 188 456h260q-96 -220 -168 -484q-64 -228 -114 -526t-50 -646q0 -324 50 -620t114 -532q72 -276 168 -516h-260z" />
    <glyph glyph-name="parenright.case" horiz-adv-x="924" 
d="M64 -264q92 240 164 516q60 236 112 532t52 620q0 348 -52 646t-112 526q-72 264 -164 484h256q104 -204 184 -456q68 -216 128 -520t60 -680q0 -356 -60 -658t-128 -530q-80 -264 -184 -480h-256z" />
    <glyph glyph-name="hyphen.case" horiz-adv-x="1156" 
d="M936 1256h-716v284h716v-284z" />
    <glyph glyph-name="bracketleft.case" horiz-adv-x="996" 
d="M248 3080h628v-264h-344v-2836h344v-264h-628v3364z" />
    <glyph glyph-name="bracketright.case" horiz-adv-x="996" 
d="M744 -284h-624v264h340v2836h-340v264h624v-3364z" />
    <glyph glyph-name="braceleft.case" horiz-adv-x="1116" 
d="M368 1068q0 76 -48 132t-160 68v232q96 24 152 78t56 134v1004q0 116 38 188t98 110t134 52t146 14h212v-264h-216q-56 0 -96 -40t-40 -144v-1000q0 -84 -66 -138t-146 -78q88 -20 150 -84t62 -180v-952q0 -124 38 -172t86 -48h228v-264h-204q-88 0 -166 18t-134 62
t-90 124t-34 208v940z" />
    <glyph glyph-name="braceright.case" horiz-adv-x="1116" 
d="M748 1700q0 -76 48 -132t160 -68v-232q-96 -24 -152 -78t-56 -134v-976q0 -116 -38 -188t-98 -112t-134 -52t-146 -12h-212v264h216q56 0 96 40t40 144v972q0 84 66 138t146 78q-88 20 -150 84t-62 180v980q0 124 -38 172t-86 48h-228v264h204q88 0 166 -18t134 -62
t90 -126t34 -206v-968z" />
    <glyph glyph-name="guillemotleft.case" horiz-adv-x="1412" 
d="M1012 1400l232 -776h-252l-252 776l236 776h264zM472 1396l232 -776h-252l-252 776l236 776h264z" />
    <glyph glyph-name="uni00AD.case" horiz-adv-x="1156" 
d="M936 1256h-716v284h716v-284z" />
    <glyph glyph-name="guillemotright.case" horiz-adv-x="1412" 
d="M172 2176h264l236 -776l-252 -776h-252l232 776zM712 2172h264l236 -776l-252 -776h-252l232 776z" />
    <glyph glyph-name="gravecomb.case" horiz-adv-x="4" 
d="M-460 3032h-272l-392 400h396z" />
    <glyph glyph-name="acutecomb.case" horiz-adv-x="4" 
d="M-512 3432h396l-392 -400h-272z" />
    <glyph glyph-name="uni0302.case" horiz-adv-x="4" 
d="M-784 3432h284l276 -400h-276l-148 220l-148 -220h-260z" />
    <glyph glyph-name="tildecomb.case" horiz-adv-x="4" 
d="M-184 3416q0 -132 -26 -210t-66 -120t-86 -56t-94 -14q-64 0 -118 22t-122 94l-56 56q-28 28 -52 28q-36 0 -66 -40t-30 -144h-196q0 128 28 208t70 122t94 56t96 14q72 0 122 -32t106 -92t78 -72t42 -12q40 0 60 38t20 154h196z" />
    <glyph glyph-name="uni0304.case" horiz-adv-x="4" 
d="M-1008 3284h740v-252h-740v252z" />
    <glyph glyph-name="uni0306.case" horiz-adv-x="4" 
d="M-640 3000q-172 0 -282 98t-110 334h240q0 -120 42 -176t110 -56t110 56t42 176h240q0 -236 -114 -334t-278 -98z" />
    <glyph glyph-name="uni0307.case" horiz-adv-x="4" 
d="M-792 3424h304v-392h-304v392z" />
    <glyph glyph-name="uni0308.case" horiz-adv-x="4" 
d="M-1060 3424h304v-392h-304v392zM-520 3424h304v-392h-304v392z" />
    <glyph glyph-name="uni030A.case" horiz-adv-x="4" 
d="M-640 3140q52 0 76 30t24 74t-24 74t-76 30t-76 -30t-24 -74t24 -74t76 -30zM-640 3000q-116 0 -200 64t-84 180t84 182t200 66t200 -66t84 -182t-84 -180t-200 -64z" />
    <glyph glyph-name="uni030B.case" horiz-adv-x="4" 
d="M-860 3432h324l-196 -400h-200zM-332 3432h324l-316 -400h-200z" />
    <glyph glyph-name="uni030C.case" horiz-adv-x="4" 
d="M-504 3032h-284l-268 400h276l140 -220l156 220h260z" />
    <glyph glyph-name="endash.case" horiz-adv-x="1556" 
d="M1336 1272h-1116v256h1116v-256z" />
    <glyph glyph-name="emdash.case" horiz-adv-x="2024" 
d="M1792 1288h-1584v224h1584v-224z" />
    <glyph glyph-name="guilsinglleft.case" horiz-adv-x="872" 
d="M472 1400l232 -776h-252l-252 776l236 776h264z" />
    <glyph glyph-name="guilsinglright.case" horiz-adv-x="872" 
d="M172 2176h264l236 -776l-252 -776h-252l232 776z" />
    <glyph glyph-name="plus.liga" 
 />
    <glyph glyph-name="hyphen.liga" 
 />
    <glyph glyph-name="A.liga" 
d="M-2384 1376q0 105 27 202t76 181.5t117.5 154t152.5 119t181 76.5t202 27t202 -27t181.5 -76.5t154 -119t119 -154t76.5 -181.5t27 -202t-27 -202t-76.5 -181t-119 -152.5t-154 -117.5t-181.5 -76t-202 -27q-158 0 -295.5 59t-240 161.5t-161.5 240t-59 295.5z" />
    <glyph glyph-name="B.liga" 
d="M-2412 1376q0 109 28 210t79 188.5t123 159t159 123t187 79.5t208 28q109 0 210 -28t188.5 -79.5t159 -123t123 -159t79.5 -188.5t28 -210q0 -108 -28 -208t-79.5 -187t-123 -159t-159 -123t-188.5 -79t-210 -28q-108 0 -208 28t-187 79t-159 123t-123 159t-79 187
t-28 208z" />
    <glyph glyph-name="C.liga" 
d="M-2436 1376q0 112 28.5 215.5t81 194t126.5 164.5t163.5 127t193 82t215.5 29t215.5 -29t194 -82t164.5 -127t127 -164.5t82 -194t29 -215.5t-29 -215.5t-82 -193t-127 -163.5t-164.5 -126.5t-194 -81t-215.5 -28.5t-215.5 28.5t-193 81t-163.5 126.5t-126.5 163.5
t-81 193t-28.5 215.5z" />
    <glyph glyph-name="D.liga" 
d="M-2460 1376q0 116 29.5 223t84 200t130 169t168 130.5t199 84t221.5 29.5q116 0 223 -29.5t200 -84t169 -130.5t130.5 -169t84 -200t29.5 -223q0 -115 -29.5 -221.5t-84 -199t-130.5 -168t-169 -130t-200 -84t-223 -29.5q-115 0 -221.5 29.5t-199 84t-168 130t-130 168
t-84 199t-29.5 221.5z" />
    <glyph glyph-name="E.liga" 
d="M-2488 1376q0 119 30.5 229.5t86.5 206.5t134.5 174.5t174 135t205.5 87.5t229 31t229.5 -31t206.5 -87.5t174.5 -135t135 -174.5t87.5 -206.5t31 -229.5t-31 -229t-87.5 -205.5t-135 -174t-174.5 -134.5t-206.5 -86.5t-229.5 -30.5t-229 30.5t-205.5 86.5t-174 134.5
t-134.5 174t-86.5 205.5t-30.5 229z" />
    <glyph glyph-name="F.liga" 
d="M-2512 1376q0 123 31.5 236.5t89 212.5t138.5 179.5t179 138.5t211 89.5t235 31.5q123 0 236.5 -31.5t212.5 -89.5t179.5 -138.5t138.5 -179.5t89.5 -212.5t31.5 -236.5q0 -122 -31.5 -235t-89.5 -211t-138.5 -179t-179.5 -138.5t-212.5 -89t-236.5 -31.5
q-122 0 -235 31.5t-211 89t-179 138.5t-138.5 179t-89 211t-31.5 235z" />
    <glyph glyph-name="G.liga" 
d="M-2540 1376q0 126 32.5 243t92 218.5t142.5 185.5t184.5 143.5t218 92.5t242.5 33t243 -33t218.5 -92.5t185.5 -143.5t143.5 -185.5t92.5 -218.5t33 -243t-33 -242.5t-92.5 -218t-143.5 -184.5t-185.5 -142.5t-218.5 -92t-243 -32.5t-242.5 32.5t-218 92t-184.5 142.5
t-142.5 184.5t-92 218t-32.5 242.5z" />
    <glyph glyph-name="H.liga" 
d="M-2564 1376q0 130 33.5 250t94.5 224.5t146.5 190.5t189.5 147t223.5 94.5t248.5 33.5q130 0 250 -33.5t224.5 -94.5t190.5 -147t147 -190.5t94.5 -224.5t33.5 -250q0 -129 -33.5 -248.5t-94.5 -223.5t-147 -189.5t-190.5 -146.5t-224.5 -94.5t-250 -33.5
q-129 0 -248.5 33.5t-223.5 94.5t-189.5 146.5t-146.5 189.5t-94.5 223.5t-33.5 248.5z" />
    <glyph glyph-name="I.liga" 
d="M-2588 1376q0 133 34 256t96.5 230t150 195.5t194 151t229.5 97t256 34.5t256 -34.5t230 -97t195.5 -151t151 -195.5t97 -230t34.5 -256t-34.5 -256t-97 -229.5t-151 -194t-195.5 -150t-230 -96.5t-256 -34t-256 34t-229.5 96.5t-194 150t-150 194t-96.5 229.5t-34 256z
" />
    <glyph glyph-name="J.liga" 
d="M-2760 1376q0 157 40.5 302t114.5 271.5t177 230t229 177.5t270.5 114.5t300.5 40.5q157 0 302 -40.5t271.5 -114.5t230 -177.5t177.5 -230t114.5 -271.5t40.5 -302q0 -156 -40.5 -300.5t-114.5 -270.5t-177.5 -229t-230 -177t-271.5 -114.5t-302 -40.5
q-156 0 -300.5 40.5t-270.5 114.5t-229 177t-177 229t-114.5 270.5t-40.5 300.5z" />
    <glyph glyph-name="K.liga" 
d="M-2640 1376q0 140 36 269.5t102 242.5t158 206t204.5 159t242 102.5t269.5 36.5t269.5 -36.5t242.5 -102.5t206 -159t159 -206t102.5 -242.5t36.5 -269.5t-36.5 -269.5t-102.5 -242t-159 -204.5t-206 -158t-242.5 -102t-269.5 -36t-269.5 36t-242 102t-204.5 158
t-158 204.5t-102 242t-36 269.5z" />
    <glyph glyph-name="L.liga" 
d="M-2668 1376q0 144 37 277.5t104.5 249.5t162.5 211t210.5 163t248.5 105.5t277 37.5t277.5 -37.5t249.5 -105.5t211 -163t163 -211t105.5 -249.5t37.5 -277.5t-37.5 -277t-105.5 -248.5t-163 -210.5t-211 -162.5t-249.5 -104.5t-277.5 -37t-277 37t-248.5 104.5
t-210.5 162.5t-162.5 210.5t-104.5 248.5t-37 277z" />
    <glyph glyph-name="M.liga" 
d="M-2692 1376q0 147 38 283.5t107 255t166.5 216t215.5 167t254 108t283 38.5t283.5 -38.5t255 -108t216 -167t167 -216t108 -255t38.5 -283.5t-38.5 -283t-108 -254t-167 -215.5t-216 -166.5t-255 -107t-283.5 -38t-283 38t-254 107t-215.5 166.5t-166.5 215.5t-107 254
t-38 283z" />
    <glyph glyph-name="N.liga" 
d="M-2720 1376q0 151 39 291t110 261.5t170.5 222t221 172t261 110.5t290.5 39t291 -39t261.5 -110.5t222 -172t172 -222t110.5 -261.5t39 -291t-39 -290.5t-110.5 -261t-172 -221t-222 -170.5t-261.5 -110t-291 -39t-290.5 39t-261 110t-221 170.5t-170.5 221t-110 261
t-39 290.5z" />
    <glyph glyph-name="O.liga" 
d="M-2744 1376q0 155 40 298t112.5 267.5t174.5 227t226 175t266.5 112.5t296.5 40q155 0 298 -40t267.5 -112.5t227 -175t175 -227t112.5 -267.5t40 -298q0 -154 -40 -296.5t-112.5 -266.5t-175 -226t-227 -174.5t-267.5 -112.5t-298 -40q-154 0 -296.5 40t-266.5 112.5
t-226 174.5t-174.5 226t-112.5 266.5t-40 296.5z" />
    <glyph glyph-name="P.liga" 
d="M-2768 1376q0 158 40.5 304t114.5 273.5t178 231.5t230.5 178.5t272.5 115.5t304 41t304 -41t273.5 -115.5t231.5 -178.5t178.5 -231.5t115.5 -273.5t41 -304t-41 -304t-115.5 -272.5t-178.5 -230.5t-231.5 -178t-273.5 -114.5t-304 -40.5t-304 40.5t-272.5 114.5
t-230.5 178t-178 230.5t-114.5 272.5t-40.5 304z" />
    <glyph glyph-name="Q.liga" 
d="M-2796 1376q0 162 42 312t118 280t182.5 237t236.5 183t279 118t310 42q162 0 312 -42t280 -118t237 -183t183 -237t118 -280t42 -312q0 -161 -42 -310t-118 -279t-183 -236.5t-237 -182.5t-280 -118t-312 -42q-161 0 -310 42t-279 118t-236.5 182.5t-182.5 236.5
t-118 279t-42 310z" />
    <glyph glyph-name="R.liga" 
d="M-2820 1376q0 165 42.5 318t120 285.5t186 242t241 187t285 120.5t317.5 43t318 -43t285.5 -120.5t242 -187t187 -242t120.5 -285.5t43 -318t-43 -317.5t-120.5 -285t-187 -241t-242 -186t-285.5 -120t-318 -42.5t-317.5 42.5t-285 120t-241 186t-186 241t-120 285
t-42.5 317.5z" />
    <glyph glyph-name="S.liga" 
d="M-2848 1376q0 169 43.5 325.5t122.5 292.5t190.5 247.5t247 191.5t291.5 123.5t325 43.5t325.5 -43.5t292.5 -123.5t247.5 -191.5t191.5 -247.5t123.5 -292.5t43.5 -325.5t-43.5 -325t-123.5 -291.5t-191.5 -247t-247.5 -190.5t-292.5 -122.5t-325.5 -43.5t-325 43.5
t-291.5 122.5t-247 190.5t-190.5 247t-122.5 291.5t-43.5 325z" />
    <glyph glyph-name="T.liga" 
d="M-2872 1376q0 172 44.5 331.5t125.5 298t194 252.5t251.5 195.5t297.5 126t331 44.5t331.5 -44.5t298 -126t252.5 -195.5t195.5 -252.5t126 -298t44.5 -331.5t-44.5 -331t-126 -297.5t-195.5 -251.5t-252.5 -194t-298 -125.5t-331.5 -44.5t-331 44.5t-297.5 125.5
t-251.5 194t-194 251.5t-125.5 297.5t-44.5 331z" />
    <glyph glyph-name="U.liga" 
d="M-2896 1376q0 176 45 338.5t127.5 304t197.5 257.5t256 198.5t303.5 128t338.5 45.5t338.5 -45.5t304 -128t257.5 -198.5t198.5 -257.5t128 -304t45.5 -338.5t-45.5 -338.5t-128 -303.5t-198.5 -256t-257.5 -197.5t-304 -127.5t-338.5 -45t-338.5 45t-303.5 127.5
t-256 197.5t-197.5 256t-127.5 303.5t-45 338.5z" />
    <glyph glyph-name="V.liga" 
d="M-2924 1376q0 179 46.5 345t130.5 310.5t202.5 263t262.5 203.5t309.5 131.5t344.5 46.5t345 -46.5t310.5 -131.5t263 -203.5t203.5 -263t131.5 -310.5t46.5 -345t-46.5 -344.5t-131.5 -309.5t-203.5 -262.5t-263 -202.5t-310.5 -130.5t-345 -46.5t-344.5 46.5
t-309.5 130.5t-262.5 202.5t-202.5 262.5t-130.5 309.5t-46.5 344.5z" />
    <glyph glyph-name="W.liga" 
d="M-2948 1376q0 183 47 352t132.5 316.5t206 268t267 207t315.5 133.5t352 47t352 -47t316.5 -133.5t268 -207t207 -268t133.5 -316.5t47 -352t-47 -352t-133.5 -315.5t-207 -267t-268 -206t-316.5 -132.5t-352 -47t-352 47t-315.5 132.5t-267 206t-206 267t-132.5 315.5
t-47 352z" />
    <glyph glyph-name="X.liga" 
d="M-2976 1376q0 186 48 358.5t136 322.5t211 274t273 212t322 136.5t358 48.5t358.5 -48.5t322.5 -136.5t274 -212t212 -274t136.5 -322.5t48.5 -358.5t-48.5 -358t-136.5 -322t-212 -273t-274 -211t-322.5 -136t-358.5 -48t-358 48t-322 136t-273 211t-211 273t-136 322
t-48 358z" />
    <glyph glyph-name="Y.liga" 
d="M-3000 1376q0 190 49 366t138 328.5t214 278.5t277.5 215.5t328 138.5t365.5 49t366 -49t328.5 -138.5t278.5 -215.5t215.5 -278.5t138.5 -328.5t49 -366t-49 -365.5t-138.5 -328t-215.5 -277.5t-278.5 -214t-328.5 -138t-366 -49t-365.5 49t-328 138t-277.5 214
t-214 277.5t-138 328t-49 365.5z" />
    <glyph glyph-name="Z.liga" 
d="M-3028 1376q0 193 50 372t141.5 335t219 284.5t283 220t334.5 142t372 50.5t372 -50.5t335 -142t284.5 -220t220 -284.5t142 -335t50.5 -372t-50.5 -372t-142 -334.5t-220 -283t-284.5 -219t-335 -141.5t-372 -50t-372 50t-334.5 141.5t-283 219t-219 283t-141.5 334.5
t-50 372z" />
    <glyph glyph-name="a.liga" 
d="M-1716 1376q0 39 26 65.5t62 26.5q39 0 65.5 -26.5t26.5 -65.5q0 -36 -26.5 -62t-65.5 -26q-18 0 -34 7t-28 19t-19 28t-7 34z" />
    <glyph glyph-name="b.liga" 
d="M-1744 1376q0 25 9 47t25 38.5t37 25.5t45 9q25 0 47 -9t38.5 -25.5t25.5 -38.5t9 -47q0 -24 -9 -45t-25.5 -37t-38.5 -25t-47 -9q-24 0 -45 9t-37 25t-25 37t-9 45z" />
    <glyph glyph-name="c.liga" 
d="M-1768 1376q0 30 11 56t30.5 45.5t44.5 31t54 11.5q30 0 56 -11.5t45.5 -31t31 -45.5t11.5 -56q0 -29 -11.5 -54t-31 -44.5t-45.5 -30.5t-56 -11q-29 0 -54 11t-44.5 30.5t-30.5 44.5t-11 54z" />
    <glyph glyph-name="d.liga" 
d="M-1796 1376q0 36 13.5 67.5t36 54.5t53 36.5t65.5 13.5q36 0 67.5 -13.5t54.5 -36.5t36.5 -54.5t13.5 -67.5q0 -35 -13.5 -65.5t-36.5 -53t-54.5 -36t-67.5 -13.5q-35 0 -65.5 13.5t-53 36t-36 53t-13.5 65.5z" />
    <glyph glyph-name="e.liga" 
d="M-1820 1376q0 40 15.5 76t41.5 62.5t61 42t74 15.5q40 0 76 -15.5t62.5 -42t42 -62.5t15.5 -76q0 -39 -15.5 -74t-42 -61t-62.5 -41.5t-76 -15.5q-39 0 -74 15.5t-61 41.5t-41.5 61t-15.5 74z" />
    <glyph glyph-name="f.liga" 
d="M-1844 1376q0 46 17 86.5t46 70t68.5 46.5t84.5 17q46 0 86.5 -17t70 -46.5t46.5 -70t17 -86.5q0 -45 -17 -84.5t-46.5 -68.5t-70 -46t-86.5 -17q-45 0 -84.5 17t-68.5 46t-46 68.5t-17 84.5z" />
    <glyph glyph-name="g.liga" 
d="M-1872 1376q0 51 19.5 96t53 79t77.5 53.5t94 19.5q51 0 96 -19.5t79 -53.5t53.5 -79t19.5 -96q0 -50 -19.5 -94t-53.5 -77.5t-79 -53t-96 -19.5q-50 0 -94 19.5t-77.5 53t-53 77.5t-19.5 94z" />
    <glyph glyph-name="h.liga" 
d="M-1896 1376q0 57 21 106.5t57.5 86.5t85 58t104.5 21q57 0 106.5 -21t86.5 -58t58 -86.5t21 -106.5q0 -56 -21 -104.5t-58 -85t-86.5 -57.5t-106.5 -21q-56 0 -104.5 21t-85 57.5t-57.5 85t-21 104.5z" />
    <glyph glyph-name="i.liga" 
d="M-1924 1376q0 61 23 116t63.5 95.5t94 64.5t115.5 24q61 0 116 -24t95.5 -64.5t64.5 -95.5t24 -116q0 -62 -24 -115.5t-64.5 -94t-95.5 -63.5t-116 -23q-62 0 -115.5 23t-94 63.5t-63.5 94t-23 115.5z" />
    <glyph glyph-name="j.liga" 
d="M-1948 1376q0 67 25 126.5t68.5 103t102 69t124.5 25.5q67 0 126.5 -25.5t103 -69t69 -103t25.5 -126.5q0 -66 -25.5 -124.5t-69 -102t-103 -68.5t-126.5 -25q-66 0 -124.5 25t-102 68.5t-68.5 102t-25 124.5z" />
    <glyph glyph-name="k.liga" 
d="M-1972 1376q0 72 26.5 135.5t73 110.5t109.5 74.5t135 27.5t135.5 -27.5t110.5 -74.5t74.5 -110.5t27.5 -135.5t-27.5 -135t-74.5 -109.5t-110.5 -73t-135.5 -26.5t-135 26.5t-109.5 73t-73 109.5t-26.5 135z" />
    <glyph glyph-name="l.liga" 
d="M-2000 1376q0 78 29.5 146.5t80 119.5t118 80.5t144.5 29.5q78 0 146.5 -29.5t119.5 -80.5t80.5 -119.5t29.5 -146.5q0 -77 -29.5 -144.5t-80.5 -118t-119.5 -80t-146.5 -29.5q-77 0 -144.5 29.5t-118 80t-80 118t-29.5 144.5z" />
    <glyph glyph-name="m.liga" 
d="M-2024 1376q0 84 31 157t84.5 127t125.5 85t155 31q84 0 157 -31t127 -85t85 -127t31 -157q0 -83 -31 -155t-85 -125.5t-127 -84.5t-157 -31q-83 0 -155 31t-125.5 84.5t-84.5 125.5t-31 155z" />
    <glyph glyph-name="n.liga" 
d="M-2052 1376q0 88 33.5 166t91.5 136.5t135 92t164 33.5q88 0 166 -33.5t136.5 -92t92 -136.5t33.5 -166q0 -87 -33.5 -164t-92 -135t-136.5 -91.5t-166 -33.5q-87 0 -164 33.5t-135 91.5t-91.5 135t-33.5 164z" />
    <glyph glyph-name="o.liga" 
d="M-2076 1376q0 94 35 176.5t96 144t142.5 96.5t174.5 35q94 0 176.5 -35t144 -96.5t96.5 -144t35 -176.5q0 -93 -35 -174.5t-96.5 -142.5t-144 -96t-176.5 -35q-93 0 -174.5 35t-142.5 96t-96 142.5t-35 174.5z" />
    <glyph glyph-name="p.liga" 
d="M-2104 1376q0 99 38 186.5t102.5 152.5t151 103t184.5 38q99 0 186.5 -38t152.5 -103t103 -152.5t38 -186.5q0 -98 -38 -184.5t-103 -151t-152.5 -102.5t-186.5 -38q-65 0 -125.5 17t-113.5 48.5t-96.5 75t-75 96.5t-48.5 113.5t-17 125.5z" />
    <glyph glyph-name="q.liga" 
d="M-2128 1376q0 105 39.5 197t107 160t158.5 107.5t195 39.5q105 0 197 -39.5t160 -107.5t107.5 -160t39.5 -197q0 -104 -39.5 -195t-107.5 -158.5t-160 -107t-197 -39.5q-69 0 -133 18t-119.5 50.5t-101 78t-78 101t-50.5 119.5t-18 133z" />
    <glyph glyph-name="r.liga" 
d="M-2152 1376q0 109 41 205.5t111.5 168t166 113t205.5 41.5q109 0 205.5 -41.5t168 -113t113 -168t41.5 -205.5q0 -110 -41.5 -205.5t-113 -166t-168 -111.5t-205.5 -41q-73 0 -140 18.5t-125.5 52.5t-106 81.5t-81.5 106t-52.5 125.5t-18.5 140z" />
    <glyph glyph-name="s.liga" 
d="M-2180 1376q0 115 43.5 216.5t118.5 177t175.5 119t214.5 43.5q115 0 216.5 -43.5t177 -119t119 -177t43.5 -216.5q0 -114 -43.5 -214.5t-119 -175.5t-177 -118.5t-216.5 -43.5q-114 0 -214.5 43.5t-175.5 118.5t-118.5 175.5t-43.5 214.5z" />
    <glyph glyph-name="t.liga" 
d="M-2204 1376q0 120 45 225.5t123 184.5t183 124.5t225 45.5t225.5 -45.5t184.5 -124.5t124.5 -184.5t45.5 -225.5t-45.5 -225t-124.5 -183t-184.5 -123t-225.5 -45t-225 45t-183 123t-123 183t-45 225z" />
    <glyph glyph-name="u.liga" 
d="M-2232 1376q0 126 47.5 236.5t130 193t192 130.5t234.5 48q126 0 236.5 -48t193 -130.5t130.5 -193t48 -236.5q0 -125 -48 -234.5t-130.5 -192t-193 -130t-236.5 -47.5q-125 0 -234.5 47.5t-192 130t-130 192t-47.5 234.5z" />
    <glyph glyph-name="v.liga" 
d="M-2256 1376q0 87 22.5 167.5t63 151t98 128t127 99t150 64t167.5 22.5t167.5 -22.5t151 -64t128 -99t99 -128t64 -151t22.5 -167.5t-22.5 -167.5t-64 -150t-99 -127t-128 -98t-151 -63t-167.5 -22.5q-131 0 -245 49t-199.5 134.5t-134.5 199.5t-49 245z" />
    <glyph glyph-name="w.liga" 
d="M-2280 1376q0 91 23.5 175t65.5 157t102 132.5t132 102t155.5 66t173.5 23.5q91 0 175 -23.5t157 -66t132.5 -102t102 -132.5t66 -157t23.5 -175q0 -90 -23.5 -173.5t-66 -155.5t-102 -132t-132.5 -102t-157 -65.5t-175 -23.5q-135 0 -254 51t-207.5 139.5t-139.5 207.5
t-51 254z" />
    <glyph glyph-name="x.liga" 
d="M-2308 1376q0 94 24.5 181t68.5 163t106 139t137.5 107.5t162.5 69t181 24.5q141 0 265.5 -54t217.5 -147t147 -217.5t54 -265.5q0 -94 -24.5 -181t-69 -162.5t-107.5 -137.5t-139 -106t-163 -68.5t-181 -24.5t-181 24.5t-162.5 68.5t-137.5 106t-106 137.5t-68.5 162.5
t-24.5 181z" />
    <glyph glyph-name="y.liga" 
d="M-2332 1376q0 98 25 188.5t71 169t110.5 143.5t142.5 111t168 71t187 25q147 0 276 -55.5t225 -151.5t151.5 -225t55.5 -276q0 -97 -25 -187t-71 -168t-111 -142.5t-143.5 -110.5t-169 -71t-188.5 -25q-97 0 -187 25t-168 71t-142.5 110.5t-110.5 142.5t-71 168t-25 187z
" />
    <glyph glyph-name="z.liga" 
d="M-2360 1376q0 102 26 196t74 176t114.5 149t148 115t175 74t194.5 26q102 0 196 -26t176 -74t149 -115t115 -149t74 -176t26 -196q0 -101 -26 -194.5t-74 -175t-115 -148t-149 -114.5t-176 -74t-196 -26q-152 0 -285 57.5t-232.5 157t-157 232.5t-57.5 285z" />
    <glyph glyph-name="zero.zero" 
 />
    <glyph glyph-name="one.zero" horiz-adv-x="3252" 
d="M1624 2804q45 0 90 -3l-90 -1425v1428z" />
    <glyph glyph-name="two.zero" horiz-adv-x="3252" 
d="M1624 2804q46 0 91 -3t90 -8l-181 -1417v1428z" />
    <glyph glyph-name="three.zero" horiz-adv-x="3252" 
d="M1624 2804q69 0 135.5 -6.5t131.5 -18.5l-267 -1403v1428z" />
    <glyph glyph-name="four.zero" horiz-adv-x="3252" 
d="M1624 2804q93 0 181.5 -11.5t174.5 -33.5l-356 -1383v1428z" />
    <glyph glyph-name="five.zero" horiz-adv-x="3252" 
d="M1624 2804q116 0 226 -17.5t216 -52.5l-442 -1358v1428z" />
    <glyph glyph-name="six.zero" horiz-adv-x="3252" 
d="M1624 2804q140 0 271.5 -26t254.5 -74l-526 -1328v1428z" />
    <glyph glyph-name="seven.zero" horiz-adv-x="3252" 
d="M1624 1376v1428q164 0 316.5 -35t291.5 -101z" />
    <glyph glyph-name="eight.zero" horiz-adv-x="3252" 
d="M1624 2804q188 0 361 -45.5t327 -130.5l-688 -1252v1428z" />
    <glyph glyph-name="nine.zero" horiz-adv-x="3252" 
d="M1624 2804q212 0 405 -58t360 -164l-765 -1206v1428z" />
    <glyph glyph-name="eighteen.zero" horiz-adv-x="3252" 
d="M1624 2804q143 0 278 -27t259.5 -78t236.5 -123.5t208 -163.5t174.5 -199t135.5 -229l-1292 -608v1428z" />
    <glyph glyph-name="eighty.zero" horiz-adv-x="3252" 
d="M1624 2804q197 0 379.5 -51t341 -144t289 -223.5t223.5 -289t144 -341t51 -379.5t-51 -379t-144 -340.5t-223.5 -288t-289 -222t-341 -143.5t-379.5 -51t-379 51t-340.5 143.5t-288 222t-222 288t-143.5 340.5t-51 379q0 116 17.5 226t52.5 216l1354 -442v1428z" />
    <glyph glyph-name="eightyeight.zero" horiz-adv-x="3252" 
d="M1624 1376v1428q197 0 379.5 -51t341 -144t289 -223.5t223.5 -289t144 -341t51 -379.5t-51 -379t-144 -340.5t-223.5 -288t-289 -222t-341 -143.5t-379.5 -51t-379 51t-340.5 143.5t-288 222t-222 288t-143.5 340.5t-51 379q0 154 31 299t89.5 277t141 249t186.5 215z
" />
    <glyph glyph-name="eightyfive.zero" horiz-adv-x="3252" 
d="M1624 1376v1428q197 0 379.5 -51t341 -144t289 -223.5t223.5 -289t144 -341t51 -379.5t-51 -379t-144 -340.5t-223.5 -288t-289 -222t-341 -143.5t-379.5 -51t-379 51t-340.5 143.5t-288 222t-222 288t-143.5 340.5t-51 379q0 236 71 448t200 390z" />
    <glyph glyph-name="eightyfour.zero" horiz-adv-x="3252" 
d="M1624 2804q197 0 379.5 -51t341 -144t289 -223.5t223.5 -289t144 -341t51 -379.5t-51 -379t-144 -340.5t-223.5 -288t-289 -222t-341 -143.5t-379.5 -51t-379 51t-340.5 143.5t-288 222t-222 288t-143.5 340.5t-51 379q0 211 57.5 403.5t162.5 359.5l1204 -763v1428z" />
    <glyph glyph-name="eightynine.zero" horiz-adv-x="3252" 
d="M1624 1376v1428q197 0 379.5 -51t341 -144t289 -223.5t223.5 -289t144 -341t51 -379.5t-51 -379t-144 -340.5t-223.5 -288t-289 -222t-341 -143.5t-379.5 -51t-379 51t-340.5 143.5t-288 222t-222 288t-143.5 340.5t-51 379q0 166 36 321.5t103 295.5t162.5 262
t213.5 220z" />
    <glyph glyph-name="eightyone.zero" horiz-adv-x="3252" 
d="M1624 2804q197 0 379.5 -51t341 -144t289 -223.5t223.5 -289t144 -341t51 -379.5t-51 -379t-144 -340.5t-223.5 -288t-289 -222t-341 -143.5t-379.5 -51t-379 51t-340.5 143.5t-288 222t-222 288t-143.5 340.5t-51 379q0 140 25.5 271t73.5 253l1325 -524v1428z" />
    <glyph glyph-name="eightyseven.zero" horiz-adv-x="3252" 
d="M1624 2804q197 0 379.5 -51t341 -144t289 -223.5t223.5 -289t144 -341t51 -379.5t-51 -379t-144 -340.5t-223.5 -288t-289 -222t-341 -143.5t-379.5 -51t-379 51t-340.5 143.5t-288 222t-222 288t-143.5 340.5t-51 379q0 142 26.5 276t76.5 258t121 235t161 207
l1039 -976v1428z" />
    <glyph glyph-name="eightysix.zero" horiz-adv-x="3252" 
d="M1624 2804q197 0 379.5 -51t341 -144t289 -223.5t223.5 -289t144 -341t51 -379.5t-51 -379t-144 -340.5t-223.5 -288t-289 -222t-341 -143.5t-379.5 -51t-379 51t-340.5 143.5t-288 222t-222 288t-143.5 340.5t-51 379q0 129 22 252.5t64 238.5t102.5 220t137.5 198
l1098 -909v1428z" />
    <glyph glyph-name="eightythree.zero" horiz-adv-x="3252" 
d="M1624 1376v1428q197 0 379.5 -51t341 -144t289 -223.5t223.5 -289t144 -341t51 -379.5t-51 -379t-144 -340.5t-223.5 -288t-289 -222t-341 -143.5t-379.5 -51t-379 51t-340.5 143.5t-288 222t-222 288t-143.5 340.5t-51 379q0 188 45.5 360.5t129.5 325.5z" />
    <glyph glyph-name="eightytwo.zero" horiz-adv-x="3252" 
d="M1624 1376v1428q197 0 379.5 -51t341 -144t289 -223.5t223.5 -289t144 -341t51 -379.5t-51 -379t-144 -340.5t-223.5 -288t-289 -222t-341 -143.5t-379.5 -51t-379 51t-340.5 143.5t-288 222t-222 288t-143.5 340.5t-51 379q0 164 34.5 316t99.5 291z" />
    <glyph glyph-name="eleven.zero" horiz-adv-x="3252" 
d="M1624 2804q129 0 252.5 -22.5t238.5 -64.5t220.5 -103t198.5 -138l-910 -1100v1428z" />
    <glyph glyph-name="fifteen.zero" horiz-adv-x="3252" 
d="M1624 2804q178 0 344 -42t313.5 -118.5t273.5 -185.5t224 -242l-1155 -840v1428z" />
    <glyph glyph-name="fifty.zero" horiz-adv-x="3252" 
d="M1624 2804q197 0 379.5 -51t341 -144t289 -223.5t223.5 -289t144 -341t51 -379.5t-51 -379t-144 -340.5t-223.5 -288t-289 -222t-341 -143.5t-379.5 -51v2852z" />
    <glyph glyph-name="fiftyeight.zero" horiz-adv-x="3252" 
d="M1624 -48q-188 0 -360.5 45.5t-325.5 130.5l686 1248v1428q197 0 379.5 -51t341 -144t289 -223.5t223.5 -289t144 -341t51 -379.5t-51 -379t-144 -340.5t-223.5 -288t-289 -222t-341 -143.5t-379.5 -51z" />
    <glyph glyph-name="fiftyfive.zero" horiz-adv-x="3252" 
d="M1624 -48q-116 0 -226 17.5t-215 51.5l441 1355v1428q197 0 379.5 -51t341 -144t289 -223.5t223.5 -289t144 -341t51 -379.5t-51 -379t-144 -340.5t-223.5 -288t-289 -222t-341 -143.5t-379.5 -51z" />
    <glyph glyph-name="fiftyfour.zero" horiz-adv-x="3252" 
d="M1624 -48q-92 0 -180.5 11.5t-173.5 32.5l354 1380v1428q197 0 379.5 -51t341 -144t289 -223.5t223.5 -289t144 -341t51 -379.5t-51 -379t-144 -340.5t-223.5 -288t-289 -222t-341 -143.5t-379.5 -51z" />
    <glyph glyph-name="fiftynine.zero" horiz-adv-x="3252" 
d="M1624 -48q-213 0 -405 57.5t-359 163.5l764 1203v1428q197 0 379.5 -51t341 -144t289 -223.5t223.5 -289t144 -341t51 -379.5t-51 -379t-144 -340.5t-223.5 -288t-289 -222t-341 -143.5t-379.5 -51z" />
    <glyph glyph-name="fiftyone.zero" horiz-adv-x="3252" 
d="M1624 -48q-45 0 -90 3l90 1421v1428q197 0 379.5 -51t341 -144t289 -223.5t223.5 -289t144 -341t51 -379.5t-51 -379t-144 -340.5t-223.5 -288t-289 -222t-341 -143.5t-379.5 -51z" />
    <glyph glyph-name="fiftyseven.zero" horiz-adv-x="3252" 
d="M1624 -48q-164 0 -316 34.5t-290 99.5l606 1290v1428q197 0 379.5 -51t341 -144t289 -223.5t223.5 -289t144 -341t51 -379.5t-51 -379t-144 -340.5t-223.5 -288t-289 -222t-341 -143.5t-379.5 -51z" />
    <glyph glyph-name="fiftysix.zero" horiz-adv-x="3252" 
d="M1624 -48q-140 0 -271 26t-254 74l525 1324v1428q197 0 379.5 -51t341 -144t289 -223.5t223.5 -289t144 -341t51 -379.5t-51 -379t-144 -340.5t-223.5 -288t-289 -222t-341 -143.5t-379.5 -51z" />
    <glyph glyph-name="fiftythree.zero" horiz-adv-x="3252" 
d="M1624 -48q-69 0 -135.5 6.5t-131.5 18.5l267 1399v1428q197 0 379.5 -51t341 -144t289 -223.5t223.5 -289t144 -341t51 -379.5t-51 -379t-144 -340.5t-223.5 -288t-289 -222t-341 -143.5t-379.5 -51z" />
    <glyph glyph-name="fiftytwo.zero" horiz-adv-x="3252" 
d="M1624 -48q-45 0 -89.5 3t-88.5 8l178 1413v1428q197 0 379.5 -51t341 -144t289 -223.5t223.5 -289t144 -341t51 -379.5t-51 -379t-144 -340.5t-223.5 -288t-289 -222t-341 -143.5t-379.5 -51z" />
    <glyph glyph-name="fourteen.zero" horiz-adv-x="3252" 
d="M1624 2804q166 0 321.5 -36.5t296 -104t262.5 -163.5t220 -214l-1100 -910v1428z" />
    <glyph glyph-name="fourty.zero" horiz-adv-x="3252" 
d="M1624 1376v1428q197 0 379.5 -51t341 -144t289 -223.5t223.5 -289t144 -341t51 -379.5q0 -178 -42 -344t-119 -313.5t-186 -273t-243 -222.5z" />
    <glyph glyph-name="fourtyeight.zero" horiz-adv-x="3252" 
d="M1624 1376v1428q197 0 379.5 -51t341 -144t289 -223.5t223.5 -289t144 -341t51 -379.5q0 -182 -43.5 -351.5t-124 -319t-193.5 -276t-252 -223t-300 -159t-337 -84.5z" />
    <glyph glyph-name="fourtyfive.zero" horiz-adv-x="3252" 
d="M1624 1376v1428q197 0 379.5 -51t341 -144t289 -223.5t223.5 -289t144 -341t51 -379.5q0 -159 -33.5 -308t-95 -284t-150 -254t-198 -216.5t-238.5 -172t-272 -120.5z" />
    <glyph glyph-name="fourtyfour.zero" horiz-adv-x="3252" 
d="M1624 1376v1428q197 0 379.5 -51t341 -144t289 -223.5t223.5 -289t144 -341t51 -379.5q0 -151 -30 -293t-86.5 -272t-136.5 -245.5t-180.5 -212.5t-219 -173.5t-250.5 -128.5z" />
    <glyph glyph-name="fourtynine.zero" horiz-adv-x="3252" 
d="M1624 1376v1428q197 0 379.5 -51t341 -144t289 -223.5t223.5 -289t144 -341t51 -379.5q0 -189 -47.5 -365t-134 -330t-208 -282.5t-270.5 -223t-320.5 -152t-358.5 -68.5z" />
    <glyph glyph-name="fourtyone.zero" horiz-adv-x="3252" 
d="M1624 1376v1428q197 0 379.5 -51t341 -144t289 -223.5t223.5 -289t144 -341t51 -379.5q0 -190 -47.5 -366.5t-134.5 -331t-209.5 -283t-272.5 -222.5z" />
    <glyph glyph-name="fourtyseven.zero" horiz-adv-x="3252" 
d="M1624 1376v1428q197 0 379.5 -51t341 -144t289 -223.5t223.5 -289t144 -341t51 -379.5q0 -174 -40 -337t-114 -308t-178.5 -269.5t-233.5 -221.5t-279.5 -164.5t-315.5 -98.5z" />
    <glyph glyph-name="fourtysix.zero" horiz-adv-x="3252" 
d="M1624 1376v1428q197 0 379.5 -51t341 -144t289 -223.5t223.5 -289t144 -341t51 -379.5q0 -166 -36.5 -322.5t-104.5 -296.5t-164.5 -262t-216 -219.5t-259 -169t-293.5 -110.5z" />
    <glyph glyph-name="fourtythree.zero" horiz-adv-x="3252" 
d="M1624 1376v1428q197 0 379.5 -51t341 -144t289 -223.5t223.5 -289t144 -341t51 -379.5q0 -143 -27 -278t-78 -259.5t-124 -236t-164 -207.5t-199.5 -174t-229.5 -135z" />
    <glyph glyph-name="fourtytwo.zero" horiz-adv-x="3252" 
d="M1624 1376v1428q197 0 379.5 -51t341 -144t289 -223.5t223.5 -289t144 -341t51 -379.5q0 -202 -54 -388.5t-151.5 -347.5t-234 -292t-302.5 -221z" />
    <glyph glyph-name="hundred.zero" horiz-adv-x="3252" 
d="M200 1376q0 197 51 379.5t143.5 341t222 289t288 223.5t340.5 144t379 51t379.5 -51t341 -144t289 -223.5t223.5 -289t144 -341t51 -379.5t-51 -379t-144 -340.5t-223.5 -288t-289 -222t-341 -143.5t-379.5 -51t-379 51t-340.5 143.5t-288 222t-222 288t-143.5 340.5
t-51 379z" />
    <glyph glyph-name="nineteen.zero" horiz-adv-x="3252" 
d="M1624 2804q226 0 432 -66.5t379 -186.5t305.5 -285.5t211.5 -363.5l-1328 -526v1428z" />
    <glyph glyph-name="ninety.zero" horiz-adv-x="3252" 
d="M1624 2804q197 0 379.5 -51t341 -144t289 -223.5t223.5 -289t144 -341t51 -379.5t-51 -379t-144 -340.5t-223.5 -288t-289 -222t-341 -143.5t-379.5 -51t-379 51t-340.5 143.5t-288 222t-222 288t-143.5 340.5t-51 379q0 178 41.5 344t118 313.5t185 273.5t241.5 224
l838 -1155v1428z" />
    <glyph glyph-name="ninetyeight.zero" horiz-adv-x="3252" 
d="M1624 1376v1428q197 0 379.5 -51t341 -144t289 -223.5t223.5 -289t144 -341t51 -379.5t-51 -379t-144 -340.5t-223.5 -288t-289 -222t-341 -143.5t-379.5 -51t-379 51t-340.5 143.5t-288 222t-222 288t-143.5 340.5t-51 379q0 182 43.5 351.5t123 319.5t192 277
t250.5 223.5t298 159.5t336 85z" />
    <glyph glyph-name="ninetyfive.zero" horiz-adv-x="3252" 
d="M1624 1376v1428q197 0 379.5 -51t341 -144t289 -223.5t223.5 -289t144 -341t51 -379.5t-51 -379t-144 -340.5t-223.5 -288t-289 -222t-341 -143.5t-379.5 -51t-379 51t-340.5 143.5t-288 222t-222 288t-143.5 340.5t-51 379q0 159 33 308t94.5 284.5t149.5 254.5t197 217
t237 172.5t271 121.5z" />
    <glyph glyph-name="ninetyfour.zero" horiz-adv-x="3252" 
d="M1624 2804q197 0 379.5 -51t341 -144t289 -223.5t223.5 -289t144 -341t51 -379.5t-51 -379t-144 -340.5t-223.5 -288t-289 -222t-341 -143.5t-379.5 -51t-379 51t-340.5 143.5t-288 222t-222 288t-143.5 340.5t-51 379q0 151 30 293t86 272t136 246t179.5 213t217 174
t249.5 129l526 -1327v1428z" />
    <glyph glyph-name="ninetynine.zero" horiz-adv-x="3252" 
d="M1624 1376v1428q197 0 379.5 -51t341 -144t289 -223.5t223.5 -289t144 -341t51 -379.5t-51 -379t-144 -340.5t-223.5 -288t-289 -222t-341 -143.5t-379.5 -51t-379 51t-340.5 143.5t-288 222t-222 288t-143.5 340.5t-51 379q0 189 47 365t133 330.5t207 283.5t269.5 224
t319.5 152.5t358 69.5z" />
    <glyph glyph-name="ninetyone.zero" horiz-adv-x="3252" 
d="M1624 2804q197 0 379.5 -51t341 -144t289 -223.5t223.5 -289t144 -341t51 -379.5t-51 -379t-144 -340.5t-223.5 -288t-289 -222t-341 -143.5t-379.5 -51t-379 51t-340.5 143.5t-288 222t-222 288t-143.5 340.5t-51 379q0 190 47.5 366.5t134 331t208 283.5t270.5 224
l764 -1205v1428z" />
    <glyph glyph-name="ninetyseven.zero" horiz-adv-x="3252" 
d="M1624 1376v1428q197 0 379.5 -51t341 -144t289 -223.5t223.5 -289t144 -341t51 -379.5t-51 -379t-144 -340.5t-223.5 -288t-289 -222t-341 -143.5t-379.5 -51t-379 51t-340.5 143.5t-288 222t-222 288t-143.5 340.5t-51 379q0 174 40 337t113.5 308t177.5 270
t232.5 222.5t278.5 165.5t315 99z" />
    <glyph glyph-name="ninetysix.zero" horiz-adv-x="3252" 
d="M1624 2804q197 0 379.5 -51t341 -144t289 -223.5t223.5 -289t144 -341t51 -379.5t-51 -379t-144 -340.5t-223.5 -288t-289 -222t-341 -143.5t-379.5 -51t-379 51t-340.5 143.5t-288 222t-222 288t-143.5 340.5t-51 379q0 166 36.5 322t104 296.5t163 262.5t214 220.5
t257.5 170t293 111.5l356 -1383v1428z" />
    <glyph glyph-name="ninetythree.zero" horiz-adv-x="3252" 
d="M200 1376q0 214 59.5 410.5t167.5 363.5t258 299.5t331 218.5l608 -1292v1428q197 0 379.5 -51t341 -144t289 -223.5t223.5 -289t144 -341t51 -379.5t-51 -379t-144 -340.5t-223.5 -288t-289 -222t-341 -143.5t-379.5 -51t-379 51t-340.5 143.5t-288 222t-222 288
t-143.5 340.5t-51 379z" />
    <glyph glyph-name="ninetytwo.zero" horiz-adv-x="3252" 
d="M1624 1376v1428q197 0 379.5 -51t341 -144t289 -223.5t223.5 -289t144 -341t51 -379.5t-51 -379t-144 -340.5t-223.5 -288t-289 -222t-341 -143.5t-379.5 -51t-379 51t-340.5 143.5t-288 222t-222 288t-143.5 340.5t-51 379q0 202 53.5 388.5t150 347.5t232.5 292.5
t301 222.5z" />
    <glyph glyph-name="seventeen.zero" horiz-adv-x="3252" 
d="M1624 2804q202 0 388.5 -53.5t348 -151t292.5 -234t222 -301.5l-1251 -688v1428z" />
    <glyph glyph-name="seventy.zero" horiz-adv-x="3252" 
d="M1624 -48q-159 0 -308 33t-284 95t-254 149.5t-216.5 197t-172 238t-120.5 271.5l1355 440v1428q197 0 379.5 -51t341 -144t289 -223.5t223.5 -289t144 -341t51 -379.5t-51 -379t-144 -340.5t-223.5 -288t-289 -222t-341 -143.5t-379.5 -51z" />
    <glyph glyph-name="seventyeight.zero" horiz-adv-x="3252" 
d="M1624 2804q197 0 379.5 -51t341 -144t289 -223.5t223.5 -289t144 -341t51 -379.5t-51 -379t-144 -340.5t-223.5 -288t-289 -222t-341 -143.5t-379.5 -51t-379 51t-340.5 143.5t-288 222t-222 288t-143.5 340.5t-51 379q0 69 6.5 135.5t18.5 131.5l1399 -267v1428z" />
    <glyph glyph-name="seventyfive.zero" horiz-adv-x="3252" 
d="M1624 1376v1428q197 0 379.5 -51t341 -144t289 -223.5t223.5 -289t144 -341t51 -379.5t-51 -379t-144 -340.5t-223.5 -288t-289 -222t-341 -143.5t-379.5 -51t-379 51t-340.5 143.5t-288 222t-222 288t-143.5 340.5t-51 379h1424z" />
    <glyph glyph-name="seventyfour.zero" horiz-adv-x="3252" 
d="M1624 -48q-189 0 -365 47t-330 133t-282 207t-223 269t-152 319.5t-69 357.5l1421 91v1428q197 0 379.5 -51t341 -144t289 -223.5t223.5 -289t144 -341t51 -379.5t-51 -379t-144 -340.5t-223.5 -288t-289 -222t-341 -143.5t-379.5 -51z" />
    <glyph glyph-name="seventynine.zero" horiz-adv-x="3252" 
d="M1624 2804q197 0 379.5 -51t341 -144t289 -223.5t223.5 -289t144 -341t51 -379.5t-51 -379t-144 -340.5t-223.5 -288t-289 -222t-341 -143.5t-379.5 -51t-379 51t-340.5 143.5t-288 222t-222 288t-143.5 340.5t-51 379q0 183 44 354l1380 -354v1428z" />
    <glyph glyph-name="seventyone.zero" horiz-adv-x="3252" 
d="M1624 -48q-167 0 -323 36.5t-296 104t-262 163.5t-219.5 214.5t-169 257.5t-110.5 293l1380 355v1428q197 0 379.5 -51t341 -144t289 -223.5t223.5 -289t144 -341t51 -379.5t-51 -379t-144 -340.5t-223.5 -288t-289 -222t-341 -143.5t-379.5 -51z" />
    <glyph glyph-name="seventyseven.zero" horiz-adv-x="3252" 
d="M1624 1376v1428q197 0 379.5 -51t341 -144t289 -223.5t223.5 -289t144 -341t51 -379.5t-51 -379t-144 -340.5t-223.5 -288t-289 -222t-341 -143.5t-379.5 -51t-379 51t-340.5 143.5t-288 222t-222 288t-143.5 340.5t-51 379q0 45 3 89.5t8 88.5z" />
    <glyph glyph-name="seventysix.zero" horiz-adv-x="3252" 
d="M1624 1376v1428q197 0 379.5 -51t341 -144t289 -223.5t223.5 -289t144 -341t51 -379.5t-51 -379t-144 -340.5t-223.5 -288t-289 -222t-341 -143.5t-379.5 -51t-379 51t-340.5 143.5t-288 222t-222 288t-143.5 340.5t-51 379q0 45 3 89z" />
    <glyph glyph-name="seventythree.zero" horiz-adv-x="3252" 
d="M1624 -48q-182 0 -351.5 43.5t-319 123t-276 192.5t-223 251.5t-159 299t-84.5 336.5l1413 178v1428q197 0 379.5 -51t341 -144t289 -223.5t223.5 -289t144 -341t51 -379.5t-51 -379t-144 -340.5t-223.5 -288t-289 -222t-341 -143.5t-379.5 -51z" />
    <glyph glyph-name="seventytwo.zero" horiz-adv-x="3252" 
d="M1624 -48q-174 0 -336.5 40t-307.5 113.5t-269.5 177.5t-222 232.5t-165 278t-98.5 314.5l1399 268v1428q197 0 379.5 -51t341 -144t289 -223.5t223.5 -289t144 -341t51 -379.5t-51 -379t-144 -340.5t-223.5 -288t-289 -222t-341 -143.5t-379.5 -51z" />
    <glyph glyph-name="sixteen.zero" horiz-adv-x="3252" 
d="M1624 2804q190 0 366.5 -47.5t331.5 -134.5t284 -209.5t224 -272.5l-1206 -764v1428z" />
    <glyph glyph-name="sixty.zero" horiz-adv-x="3252" 
d="M1624 -48q-237 0 -449 71.5t-389 200.5l838 1152v1428q197 0 379.5 -51t341 -144t289 -223.5t223.5 -289t144 -341t51 -379.5t-51 -379t-144 -340.5t-223.5 -288t-289 -222t-341 -143.5t-379.5 -51z" />
    <glyph glyph-name="sixtyeight.zero" horiz-adv-x="3252" 
d="M1624 -48q-214 0 -410.5 59.5t-363 167.5t-298.5 258.5t-217 331.5l1289 607v1428q197 0 379.5 -51t341 -144t289 -223.5t223.5 -289t144 -341t51 -379.5t-51 -379t-144 -340.5t-223.5 -288t-289 -222t-341 -143.5t-379.5 -51z" />
    <glyph glyph-name="sixtyfive.zero" horiz-adv-x="3252" 
d="M1624 -48q-178 0 -344 41.5t-313.5 118.5t-273 185t-222.5 242l1153 837v1428q197 0 379.5 -51t341 -144t289 -223.5t223.5 -289t144 -341t51 -379.5t-51 -379t-144 -340.5t-223.5 -288t-289 -222t-341 -143.5t-379.5 -51z" />
    <glyph glyph-name="sixtyfour.zero" horiz-adv-x="3252" 
d="M1624 -48q-166 0 -321.5 36.5t-295.5 103.5t-261.5 162.5t-219.5 213.5l1098 908v1428q197 0 379.5 -51t341 -144t289 -223.5t223.5 -289t144 -341t51 -379.5t-51 -379t-144 -340.5t-223.5 -288t-289 -222t-341 -143.5t-379.5 -51z" />
    <glyph glyph-name="sixtynine.zero" horiz-adv-x="3252" 
d="M1624 -48q-226 0 -431.5 66.5t-378 185.5t-304.5 284t-210 363l1324 525v1428q197 0 379.5 -51t341 -144t289 -223.5t223.5 -289t144 -341t51 -379.5t-51 -379t-144 -340.5t-223.5 -288t-289 -222t-341 -143.5t-379.5 -51z" />
    <glyph glyph-name="sixtyone.zero" horiz-adv-x="3252" 
d="M1624 -48q-130 0 -253.5 22t-238 64t-219.5 102.5t-197 137.5l908 1098v1428q197 0 379.5 -51t341 -144t289 -223.5t223.5 -289t144 -341t51 -379.5t-51 -379t-144 -340.5t-223.5 -288t-289 -222t-341 -143.5t-379.5 -51z" />
    <glyph glyph-name="sixtyseven.zero" horiz-adv-x="3252" 
d="M1624 -48q-202 0 -388.5 53.5t-347.5 150.5t-291.5 233t-221.5 301l1249 686v1428q197 0 379.5 -51t341 -144t289 -223.5t223.5 -289t144 -341t51 -379.5t-51 -379t-144 -340.5t-223.5 -288t-289 -222t-341 -143.5t-379.5 -51z" />
    <glyph glyph-name="sixtysix.zero" horiz-adv-x="3252" 
d="M1624 -48q-190 0 -366 47.5t-330.5 134t-283 208t-223.5 270.5l1203 764v1428q197 0 379.5 -51t341 -144t289 -223.5t223.5 -289t144 -341t51 -379.5t-51 -379t-144 -340.5t-223.5 -288t-289 -222t-341 -143.5t-379.5 -51z" />
    <glyph glyph-name="sixtythree.zero" horiz-adv-x="3252" 
d="M1624 -48q-154 0 -299 31t-277 89.5t-249 141.5t-214 187l1039 975v1428q197 0 379.5 -51t341 -144t289 -223.5t223.5 -289t144 -341t51 -379.5t-51 -379t-144 -340.5t-223.5 -288t-289 -222t-341 -143.5t-379.5 -51z" />
    <glyph glyph-name="sixtytwo.zero" horiz-adv-x="3252" 
d="M1624 -48q-142 0 -276 26.5t-258 76.5t-235 121.5t-207 161.5l976 1038v1428q197 0 379.5 -51t341 -144t289 -223.5t223.5 -289t144 -341t51 -379.5t-51 -379t-144 -340.5t-223.5 -288t-289 -222t-341 -143.5t-379.5 -51z" />
    <glyph glyph-name="ten.zero" horiz-adv-x="3252" 
d="M1624 2804q236 0 448.5 -71.5t390.5 -200.5l-839 -1156v1428z" />
    <glyph glyph-name="thirteen.zero" horiz-adv-x="3252" 
d="M1624 2804q154 0 299 -31.5t277 -90t249 -141.5t215 -187l-1040 -978v1428z" />
    <glyph glyph-name="thirty.zero" horiz-adv-x="3252" 
d="M1624 1376v1428q197 0 379.5 -51t341 -144t289 -223.5t223.5 -289t144 -341t51 -379.5q0 -116 -17.5 -226t-52.5 -215z" />
    <glyph glyph-name="thirtyeight.zero" horiz-adv-x="3252" 
d="M1624 2804q197 0 379.5 -51t341 -144t289 -223.5t223.5 -289t144 -341t51 -379.5q0 -154 -31.5 -299t-90 -277t-142 -249t-187.5 -214l-977 1039v1428z" />
    <glyph glyph-name="thirtyfive.zero" horiz-adv-x="3252" 
d="M1624 2804q197 0 379.5 -51t341 -144t289 -223.5t223.5 -289t144 -341t51 -379.5q0 -237 -71.5 -449t-201.5 -389l-1155 838v1428z" />
    <glyph glyph-name="thirtyfour.zero" horiz-adv-x="3252" 
d="M1624 2804q197 0 379.5 -51t341 -144t289 -223.5t223.5 -289t144 -341t51 -379.5q0 -213 -58.5 -405.5t-164.5 -359.5l-1205 765v1428z" />
    <glyph glyph-name="thirtynine.zero" horiz-adv-x="3252" 
d="M1624 2804q197 0 379.5 -51t341 -144t289 -223.5t223.5 -289t144 -341t51 -379.5q0 -166 -36.5 -322t-104 -296t-163.5 -261.5t-215 -218.5l-909 1098v1428z" />
    <glyph glyph-name="thirtyone.zero" horiz-adv-x="3252" 
d="M1624 2804q197 0 379.5 -51t341 -144t289 -223.5t223.5 -289t144 -341t51 -379.5q0 -140 -26 -272t-74 -254l-1328 526v1428z" />
    <glyph glyph-name="thirtyseven.zero" horiz-adv-x="3252" 
d="M1624 1376v1428q197 0 379.5 -51t341 -144t289 -223.5t223.5 -289t144 -341t51 -379.5q0 -142 -27 -276t-77 -258t-122 -235t-162 -207z" />
    <glyph glyph-name="thirtysix.zero" horiz-adv-x="3252" 
d="M1624 2804q197 0 379.5 -51t341 -144t289 -223.5t223.5 -289t144 -341t51 -379.5q0 -130 -22.5 -253.5t-64.5 -238t-103 -219.5t-138 -198l-1100 909v1428z" />
    <glyph glyph-name="thirtythree.zero" horiz-adv-x="3252" 
d="M1624 2804q197 0 379.5 -51t341 -144t289 -223.5t223.5 -289t144 -341t51 -379.5q0 -188 -46 -361t-131 -326l-1251 687v1428z" />
    <glyph glyph-name="thirtytwo.zero" horiz-adv-x="3252" 
d="M1624 2804q197 0 379.5 -51t341 -144t289 -223.5t223.5 -289t144 -341t51 -379.5q0 -165 -35 -317t-101 -291l-1292 608v1428z" />
    <glyph glyph-name="twelve.zero" horiz-adv-x="3252" 
d="M1624 2804q142 0 276 -26.5t258 -77t235.5 -122t207.5 -161.5l-977 -1041v1428z" />
    <glyph glyph-name="twenty.zero" horiz-adv-x="3252" 
d="M1624 2804q158 0 307.5 -33t284.5 -95t254 -150t217.5 -197.5t173 -238t121.5 -271.5l-1358 -443v1428z" />
    <glyph glyph-name="twentyeight.zero" horiz-adv-x="3252" 
d="M1624 2804q197 0 379.5 -51t341 -144t289 -223.5t223.5 -289t144 -341t51 -379.5q0 -69 -6 -136t-19 -132l-1403 268v1428z" />
    <glyph glyph-name="twentyfive.zero" horiz-adv-x="3252" 
d="M1624 2804q197 0 379.5 -51t341 -144t289 -223.5t223.5 -289t144 -341t51 -379.5h-1428v1428z" />
    <glyph glyph-name="twentyfour.zero" horiz-adv-x="3252" 
d="M1624 2804q189 0 365.5 -47.5t331 -134t283 -208t224 -270.5t152.5 -320.5t69 -358.5l-1425 -89v1428z" />
    <glyph glyph-name="twentynine.zero" horiz-adv-x="3252" 
d="M1624 2804q197 0 379.5 -51t341 -144t289 -223.5t223.5 -289t144 -341t51 -379.5q0 -93 -11.5 -181.5t-33.5 -174.5l-1383 356v1428z" />
    <glyph glyph-name="twentyone.zero" horiz-adv-x="3252" 
d="M1624 2804q166 0 322.5 -36.5t297 -104.5t263 -164.5t220.5 -215.5t169.5 -258.5t111.5 -293.5l-1384 -355v1428z" />
    <glyph glyph-name="twentyseven.zero" horiz-adv-x="3252" 
d="M1624 2804q197 0 379.5 -51t341 -144t289 -223.5t223.5 -289t144 -341t51 -379.5q0 -45 -3 -89.5t-8 -89.5l-1417 179v1428z" />
    <glyph glyph-name="twentysix.zero" horiz-adv-x="3252" 
d="M1624 2804q197 0 379.5 -51t341 -144t289 -223.5t223.5 -289t144 -341t51 -379.5q0 -46 -3 -91l-1425 91v1428z" />
    <glyph glyph-name="twentythree.zero" horiz-adv-x="3252" 
d="M1624 2804q182 0 351.5 -43.5t319.5 -124t277.5 -193.5t224 -252t159.5 -299.5t85 -336.5l-1417 -179v1428z" />
    <glyph glyph-name="twentytwo.zero" horiz-adv-x="3252" 
d="M1624 2804q174 0 337 -40t308 -114t270 -178.5t223 -233.5t165.5 -279t99.5 -315l-1403 -268v1428z" />
    <glyph glyph-name="hidden.alpha" 
 />
    <glyph glyph-name="f.comp" horiz-adv-x="1028" 
d="M792 2684q-36 0 -70 -14t-58 -50t-40 -102t-16 -170v-96h348v-256h-348v-1996h-304v1996h-256v256h256v136q0 284 102 428t362 144q56 0 126 -14t118 -34l-52 -256q-40 12 -76 20t-92 8z" />
    <glyph glyph-name="one.eight" 
d="M-940 2627q20 -11 39 -22t38 -23l-765 -1206z" />
    <glyph glyph-name="two.eight" 
d="M-940 2627q41 -22 79 -46t74 -51l-841 -1154z" />
    <glyph glyph-name="three.eight" 
d="M-940 2627q60 -32 115.5 -70.5t106.5 -80.5l-910 -1100z" />
    <glyph glyph-name="four.eight" 
d="M-940 2627q81 -45 153 -97.5t137 -112.5l-978 -1041z" />
    <glyph glyph-name="five.eight" 
d="M-940 2627q102 -56 190 -124.5t163 -148.5l-1041 -978z" />
    <glyph glyph-name="six.eight" 
d="M-940 2627q122 -67 225 -153t187 -188l-1100 -910z" />
    <glyph glyph-name="seven.eight" 
d="M-1628 1376l688 1251q143 -78 260 -182t208 -229z" />
    <glyph glyph-name="eight.eight" 
d="M-940 2627q165 -91 294.5 -214t223.5 -271l-1206 -766z" />
    <glyph glyph-name="nine.eight" 
d="M-940 2627q186 -102 327 -245.5t236 -317.5l-1251 -688z" />
    <glyph glyph-name="eighteen.eight" 
d="M-940 2627q187 -103 330.5 -250t238 -322.5t137.5 -371t31 -396.5l-1425 89z" />
    <glyph glyph-name="eighty.eight" 
d="M-940 2627q172 -95 307.5 -227.5t229.5 -290.5t145.5 -335t56.5 -361t-38 -368.5t-138 -356.5t-227.5 -307t-290 -229t-334.5 -145t-360.5 -56t-368 38.5t-356.5 138.5q-173 95 -308 227.5t-229 289.5t-145.5 333.5t-56 360t38.5 367t138 356.5q56 102 124.5 190
t149.5 164l974 -1040z" />
    <glyph glyph-name="eightyeight.eight" 
d="M-1628 1376l688 1251q172 -95 307.5 -227.5t229.5 -290.5t145.5 -335t56.5 -361t-38 -368.5t-138 -356.5t-227.5 -307t-290 -229t-334.5 -145t-360.5 -56t-368 38.5t-356.5 138.5q-173 95 -308 227.5t-229 289.5t-145.5 333.5t-56 360t38.5 367t138 356.5
q74 135 171.5 247t212 199.5t243.5 150.5t267 99z" />
    <glyph glyph-name="eightyfive.eight" 
d="M-1628 1376l688 1251q172 -95 307.5 -227.5t229.5 -290.5t145.5 -335t56.5 -361t-38 -368.5t-138 -356.5t-227.5 -307t-290 -229t-334.5 -145t-360.5 -56t-368 38.5t-356.5 138.5q-173 95 -308 227.5t-229 289.5t-145.5 333.5t-56 360t38.5 367t138 356.5
q114 207 278.5 358.5t362.5 245.5z" />
    <glyph glyph-name="eightyfour.eight" 
d="M-940 2627q172 -95 307.5 -227.5t229.5 -290.5t145.5 -335t56.5 -361t-38 -368.5t-138 -356.5t-227.5 -307t-290 -229t-334.5 -145t-360.5 -56t-368 38.5t-356.5 138.5q-173 95 -308 227.5t-229 289.5t-145.5 333.5t-56 360t38.5 367t138 356.5q102 186 245 326.5
t316 236.5l687 -1249z" />
    <glyph glyph-name="eightynine.eight" 
d="M-1628 1376l688 1251q172 -95 307.5 -227.5t229.5 -290.5t145.5 -335t56.5 -361t-38 -368.5t-138 -356.5t-227.5 -307t-290 -229t-334.5 -145t-360.5 -56t-368 38.5t-356.5 138.5q-173 95 -308 227.5t-229 289.5t-145.5 333.5t-56 360t38.5 367t138 356.5
q80 145 186.5 264t233 209.5t268.5 151.5t293 90z" />
    <glyph glyph-name="eightyone.eight" 
d="M-940 2627q172 -95 307.5 -227.5t229.5 -290.5t145.5 -335t56.5 -361t-38 -368.5t-138 -356.5t-227.5 -307t-290 -229t-334.5 -145t-360.5 -56t-368 38.5t-356.5 138.5q-173 95 -308 227.5t-229 289.5t-145.5 333.5t-56 360t38.5 367t138 356.5q67 122 152.5 224.5
t187.5 187.5l908 -1098z" />
    <glyph glyph-name="eightyseven.eight" 
d="M-940 2627q172 -95 307.5 -227.5t229.5 -290.5t145.5 -335t56.5 -361t-38 -368.5t-138 -356.5t-227.5 -307t-290 -229t-334.5 -145t-360.5 -56t-368 38.5t-356.5 138.5q-173 95 -308 227.5t-229 289.5t-145.5 333.5t-56 360t38.5 367t138 356.5q68 124 156 229
t191.5 189.5t219.5 147.5t241 104l440 -1356z" />
    <glyph glyph-name="eightysix.eight" 
d="M-940 2627q172 -95 307.5 -227.5t229.5 -290.5t145.5 -335t56.5 -361t-38 -368.5t-138 -356.5t-227.5 -307t-290 -229t-334.5 -145t-360.5 -56t-368 38.5t-356.5 138.5q-173 95 -308 227.5t-229 289.5t-145.5 333.5t-56 360t38.5 367t138 356.5q62 113 141 210.5
t171.5 178t196 143.5t214.5 108l525 -1326z" />
    <glyph glyph-name="eightythree.eight" 
d="M-1628 1376l688 1251q172 -95 307.5 -227.5t229.5 -290.5t145.5 -335t56.5 -361t-38 -368.5t-138 -356.5t-227.5 -307t-290 -229t-334.5 -145t-360.5 -56t-368 38.5t-356.5 138.5q-173 95 -308 227.5t-229 289.5t-145.5 333.5t-56 360t38.5 367t138 356.5
q91 165 213.5 294t270.5 223z" />
    <glyph glyph-name="eightytwo.eight" 
d="M-1628 1376l688 1251q172 -95 307.5 -227.5t229.5 -290.5t145.5 -335t56.5 -361t-38 -368.5t-138 -356.5t-227.5 -307t-290 -229t-334.5 -145t-360.5 -56t-368 38.5t-356.5 138.5q-173 95 -308 227.5t-229 289.5t-145.5 333.5t-56 360t38.5 367t138 356.5
q78 143 182 259.5t228 207.5z" />
    <glyph glyph-name="eleven.eight" 
d="M-940 2627q113 -62 210.5 -141.5t178 -171.5t143.5 -196t107 -216l-1327 -526z" />
    <glyph glyph-name="fifteen.eight" 
d="M-940 2627q156 -86 281.5 -202.5t218 -255t150 -294t78.5 -319.5l-1416 -180z" />
    <glyph glyph-name="fifty.eight" 
d="M-940 2627q172 -95 307.5 -227.5t229.5 -290.5t145.5 -335t56.5 -361t-38 -368.5t-138 -356.5t-227.5 -307t-290 -229t-334.5 -145t-360.5 -56t-368 38.5t-356.5 138.5z" />
    <glyph glyph-name="fiftyeight.eight" 
d="M-2314 128q-165 91 -294 213.5t-223 271.5l1203 763l688 1251q172 -95 307.5 -227.5t229.5 -290.5t145.5 -335t56.5 -361t-38 -368.5t-138 -356.5t-227.5 -307t-290 -229t-334.5 -145t-360.5 -56t-368 38.5t-356.5 138.5z" />
    <glyph glyph-name="fiftyfive.eight" 
d="M-2314 128q-102 56 -190 124.5t-163 148.5l1039 975l688 1251q172 -95 307.5 -227.5t229.5 -290.5t145.5 -335t56.5 -361t-38 -368.5t-138 -356.5t-227.5 -307t-290 -229t-334.5 -145t-360.5 -56t-368 38.5t-356.5 138.5z" />
    <glyph glyph-name="fiftyfour.eight" 
d="M-2314 128q-81 45 -153 97.5t-136 112.5l975 1038l688 1251q172 -95 307.5 -227.5t229.5 -290.5t145.5 -335t56.5 -361t-38 -368.5t-138 -356.5t-227.5 -307t-290 -229t-334.5 -145t-360.5 -56t-368 38.5t-356.5 138.5z" />
    <glyph glyph-name="fiftynine.eight" 
d="M-2314 128q-186 103 -327 246t-236 316l1249 686l688 1251q172 -95 307.5 -227.5t229.5 -290.5t145.5 -335t56.5 -361t-38 -368.5t-138 -356.5t-227.5 -307t-290 -229t-334.5 -145t-360.5 -56t-368 38.5t-356.5 138.5z" />
    <glyph glyph-name="fiftyone.eight" 
d="M-2314 128q-20 11 -39 22.5t-38 23.5l763 1202l688 1251q172 -95 307.5 -227.5t229.5 -290.5t145.5 -335t56.5 -361t-38 -368.5t-138 -356.5t-227.5 -307t-290 -229t-334.5 -145t-360.5 -56t-368 38.5t-356.5 138.5z" />
    <glyph glyph-name="fiftyseven.eight" 
d="M-2314 128q-143 79 -259.5 182.5t-207.5 227.5l1153 838l688 1251q172 -95 307.5 -227.5t229.5 -290.5t145.5 -335t56.5 -361t-38 -368.5t-138 -356.5t-227.5 -307t-290 -229t-334.5 -145t-360.5 -56t-368 38.5t-356.5 138.5z" />
    <glyph glyph-name="fiftysix.eight" 
d="M-2314 128q-123 68 -225 153.5t-187 186.5l1098 908l688 1251q172 -95 307.5 -227.5t229.5 -290.5t145.5 -335t56.5 -361t-38 -368.5t-138 -356.5t-227.5 -307t-290 -229t-334.5 -145t-360.5 -56t-368 38.5t-356.5 138.5z" />
    <glyph glyph-name="fiftythree.eight" 
d="M-2314 128q-60 33 -115.5 71t-106.5 80l908 1097l688 1251q172 -95 307.5 -227.5t229.5 -290.5t145.5 -335t56.5 -361t-38 -368.5t-138 -356.5t-227.5 -307t-290 -229t-334.5 -145t-360.5 -56t-368 38.5t-356.5 138.5z" />
    <glyph glyph-name="fiftytwo.eight" 
d="M-2314 128q-40 22 -77.5 46t-73.5 50l837 1152l688 1251q172 -95 307.5 -227.5t229.5 -290.5t145.5 -335t56.5 -361t-38 -368.5t-138 -356.5t-227.5 -307t-290 -229t-334.5 -145t-360.5 -56t-368 38.5t-356.5 138.5z" />
    <glyph glyph-name="fourteen.eight" 
d="M-940 2627q145 -80 264 -187t209.5 -233.5t151 -269t89.5 -293.5l-1402 -268z" />
    <glyph glyph-name="fourty.eight" 
d="M-1628 1376l688 1251q172 -95 307.5 -227.5t229.5 -290.5t145.5 -335t56.5 -361t-38 -368.5t-138 -356.5q-86 -156 -202.5 -281.5t-255 -217.5t-294.5 -149.5t-320 -77.5z" />
    <glyph glyph-name="fourtyeight.eight" 
d="M-1628 1376l688 1251q172 -95 307.5 -227.5t229.5 -290.5t145.5 -335t56.5 -361t-38 -368.5t-138 -356.5q-87 -159 -207 -286.5t-262.5 -220t-302.5 -149t-328 -74t-339 5t-336 88.5z" />
    <glyph glyph-name="fourtyfive.eight" 
d="M-1628 1376l688 1251q172 -95 307.5 -227.5t229.5 -290.5t145.5 -335t56.5 -361t-38 -368.5t-138 -356.5q-76 -139 -177 -253.5t-220.5 -203.5t-254 -150.5t-277.5 -94t-292 -36t-296 25.5z" />
    <glyph glyph-name="fourtyfour.eight" 
d="M-1628 1376l688 1251q172 -95 307.5 -227.5t229.5 -290.5t145.5 -335t56.5 -361t-38 -368.5t-138 -356.5q-72 -132 -167 -242t-207 -197t-238 -149t-260.5 -99t-275 -47t-281.5 8z" />
    <glyph glyph-name="fourtynine.eight" 
d="M-1628 1376l688 1251q172 -95 307.5 -227.5t229.5 -290.5t145.5 -335t56.5 -361t-38 -368.5t-138 -356.5q-91 -166 -217 -297t-276 -224.5t-318.5 -147.5t-344.5 -65.5t-354 21.5t-347 113z" />
    <glyph glyph-name="fourtyone.eight" 
d="M-1628 1376l688 1251q172 -95 307.5 -227.5t229.5 -290.5t145.5 -335t56.5 -361t-38 -368.5t-138 -356.5q-92 -167 -218.5 -298t-277 -224.5t-319.5 -147t-346 -64.5z" />
    <glyph glyph-name="fourtyseven.eight" 
d="M-1628 1376l688 1251q172 -95 307.5 -227.5t229.5 -290.5t145.5 -335t56.5 -361t-38 -368.5t-138 -356.5q-84 -152 -197.5 -275.5t-248 -215t-286 -150t-311.5 -82t-324 -10t-324 65.5z" />
    <glyph glyph-name="fourtysix.eight" 
d="M-1628 1376l688 1251q172 -95 307.5 -227.5t229.5 -290.5t145.5 -335t56.5 -361t-38 -368.5t-138 -356.5q-80 -146 -187.5 -265t-234.5 -209.5t-270 -150.5t-294.5 -88.5t-308.5 -23.5t-311 45z" />
    <glyph glyph-name="fourtythree.eight" 
d="M-1628 1376l688 1251q172 -95 307.5 -227.5t229.5 -290.5t145.5 -335t56.5 -361t-38 -368.5t-138 -356.5q-69 -125 -158 -230.5t-193 -190t-222 -147t-244 -102.5t-258 -56.5t-266 -7.5z" />
    <glyph glyph-name="fourtytwo.eight" 
d="M-1628 1376l688 1251q172 -95 307.5 -227.5t229.5 -290.5t145.5 -335t56.5 -361t-38 -368.5t-138 -356.5q-97 -177 -234 -314.5t-300 -231.5t-345.5 -142.5t-371.5 -48.5v1425z" />
    <glyph glyph-name="nineteen.eight" 
d="M-940 2627q132 -73 242.5 -167.5t197 -206.5t149.5 -238t100 -261t47.5 -275.5t-7.5 -281.5l-1417 179z" />
    <glyph glyph-name="ninety.eight" 
d="M-940 2627q172 -95 307.5 -227.5t229.5 -290.5t145.5 -335t56.5 -361t-38 -368.5t-138 -356.5t-227.5 -307t-290 -229t-334.5 -145t-360.5 -56t-368 38.5t-356.5 138.5q-173 95 -308 227.5t-229 289.5t-145.5 333.5t-56 360t38.5 367t138 356.5q86 156 202.5 281.5
t255 218t293.5 151t319 79.5l178 -1416z" />
    <glyph glyph-name="ninetyone.eight" 
d="M-940 2627q172 -95 307.5 -227.5t229.5 -290.5t145.5 -335t56.5 -361t-38 -368.5t-138 -356.5t-227.5 -307t-290 -229t-334.5 -145t-360.5 -56t-368 38.5t-356.5 138.5q-173 95 -308 227.5t-229 289.5t-145.5 333.5t-56 360t38.5 367t138 356.5q91 166 217.5 298t277 226
t319.5 148t345 66l89 -1424z" />
    <glyph glyph-name="ninetytwo.eight" 
d="M-1628 1376l688 1251q172 -95 307.5 -227.5t229.5 -290.5t145.5 -335t56.5 -361t-38 -368.5t-138 -356.5t-227.5 -307t-290 -229t-334.5 -145t-360.5 -56t-368 38.5t-356.5 138.5q-173 95 -308 227.5t-229 289.5t-145.5 333.5t-56 360t38.5 367t138 356.5q97 177 234 315
t299.5 232.5t344.5 144t370 49.5v-1427z" />
    <glyph glyph-name="seventeen.eight" 
d="M-940 2627q177 -97 314.5 -234t232 -300t144 -345.5t49.5 -371.5h-1428z" />
    <glyph glyph-name="seventy.eight" 
d="M-2314 128q-139 76 -254 177t-203.5 220.5t-150.5 253.5t-95 277t-36 291t25 296l1400 -267l688 1251q172 -95 307.5 -227.5t229.5 -290.5t145.5 -335t56.5 -361t-38 -368.5t-138 -356.5t-227.5 -307t-290 -229t-334.5 -145t-360.5 -56t-368 38.5t-356.5 138.5z" />
    <glyph glyph-name="seventyeight.eight" 
d="M-940 2627q172 -95 307.5 -227.5t229.5 -290.5t145.5 -335t56.5 -361t-38 -368.5t-138 -356.5t-227.5 -307t-290 -229t-334.5 -145t-360.5 -56t-368 38.5t-356.5 138.5q-173 95 -308 227.5t-229 289.5t-145.5 333.5t-56 360t38.5 367t138 356.5q33 60 71 115.5t80 106.5
l1097 -908z" />
    <glyph glyph-name="seventyfive.eight" 
d="M-1628 1376l688 1251q172 -95 307.5 -227.5t229.5 -290.5t145.5 -335t56.5 -361t-38 -368.5t-138 -356.5t-227.5 -307t-290 -229t-334.5 -145t-360.5 -56t-368 38.5t-356.5 138.5q-173 95 -308 227.5t-229 289.5t-145.5 333.5t-56 360t38.5 367t138 356.5z" />
    <glyph glyph-name="seventyfour.eight" 
d="M-2314 128q-166 91 -297.5 217t-225 275.5t-147.5 317.5t-65.5 343.5t20.5 353t112 346.5l1289 -605l688 1251q172 -95 307.5 -227.5t229.5 -290.5t145.5 -335t56.5 -361t-38 -368.5t-138 -356.5t-227.5 -307t-290 -229t-334.5 -145t-360.5 -56t-368 38.5t-356.5 138.5z
" />
    <glyph glyph-name="seventynine.eight" 
d="M-940 2627q172 -95 307.5 -227.5t229.5 -290.5t145.5 -335t56.5 -361t-38 -368.5t-138 -356.5t-227.5 -307t-290 -229t-334.5 -145t-360.5 -56t-368 38.5t-356.5 138.5q-173 95 -308 227.5t-229 289.5t-145.5 333.5t-56 360t38.5 367t138 356.5q45 81 97 153t112 136
l1039 -975z" />
    <glyph glyph-name="seventyone.eight" 
d="M-2314 128q-146 80 -265 187.5t-209.5 234t-151 269t-89 294t-24 307.5t44.5 310l1380 -354l688 1251q172 -95 307.5 -227.5t229.5 -290.5t145.5 -335t56.5 -361t-38 -368.5t-138 -356.5t-227.5 -307t-290 -229t-334.5 -145t-360.5 -56t-368 38.5t-356.5 138.5z" />
    <glyph glyph-name="seventyseven.eight" 
d="M-1628 1376l688 1251q172 -95 307.5 -227.5t229.5 -290.5t145.5 -335t56.5 -361t-38 -368.5t-138 -356.5t-227.5 -307t-290 -229t-334.5 -145t-360.5 -56t-368 38.5t-356.5 138.5q-173 95 -308 227.5t-229 289.5t-145.5 333.5t-56 360t38.5 367t138 356.5q22 40 46 77.5
t50 73.5z" />
    <glyph glyph-name="seventysix.eight" 
d="M-1628 1376l688 1251q172 -95 307.5 -227.5t229.5 -290.5t145.5 -335t56.5 -361t-38 -368.5t-138 -356.5t-227.5 -307t-290 -229t-334.5 -145t-360.5 -56t-368 38.5t-356.5 138.5q-173 95 -308 227.5t-229 289.5t-145.5 333.5t-56 360t38.5 367t138 356.5q11 20 22.5 39
t23.5 38z" />
    <glyph glyph-name="seventythree.eight" 
d="M-2314 128q-160 88 -287 207.5t-220 261.5t-149.5 302t-74.5 327.5t4.5 338t88.5 335.5l1324 -524l688 1251q172 -95 307.5 -227.5t229.5 -290.5t145.5 -335t56.5 -361t-38 -368.5t-138 -356.5t-227.5 -307t-290 -229t-334.5 -145t-360.5 -56t-368 38.5t-356.5 138.5z
" />
    <glyph glyph-name="seventytwo.eight" 
d="M-2314 128q-153 84 -276 197.5t-214.5 247.5t-150.5 285t-82.5 310.5t-10.5 323t65 323.5l1355 -439l688 1251q172 -95 307.5 -227.5t229.5 -290.5t145.5 -335t56.5 -361t-38 -368.5t-138 -356.5t-227.5 -307t-290 -229t-334.5 -145t-360.5 -56t-368 38.5t-356.5 138.5z
" />
    <glyph glyph-name="sixteen.eight" 
d="M-940 2627q166 -92 298 -218.5t225.5 -277.5t148 -320t65.5 -346l-1425 -89z" />
    <glyph glyph-name="sixty.eight" 
d="M-2314 128q-208 114 -359 279t-245 363l1290 606l688 1251q172 -95 307.5 -227.5t229.5 -290.5t145.5 -335t56.5 -361t-38 -368.5t-138 -356.5t-227.5 -307t-290 -229t-334.5 -145t-360.5 -56t-368 38.5t-356.5 138.5z" />
    <glyph glyph-name="sixtyeight.eight" 
d="M-2314 128q-188 103 -331 250t-237.5 322t-137.5 370t-30 395l1422 -89l688 1251q172 -95 307.5 -227.5t229.5 -290.5t145.5 -335t56.5 -361t-38 -368.5t-138 -356.5t-227.5 -307t-290 -229t-334.5 -145t-360.5 -56t-368 38.5t-356.5 138.5z" />
    <glyph glyph-name="sixtyfive.eight" 
d="M-2314 128q-156 86 -281.5 202.5t-217.5 254.5t-150 293.5t-79 319.5l1414 178l688 1251q172 -95 307.5 -227.5t229.5 -290.5t145.5 -335t56.5 -361t-38 -368.5t-138 -356.5t-227.5 -307t-290 -229t-334.5 -145t-360.5 -56t-368 38.5t-356.5 138.5z" />
    <glyph glyph-name="sixtyfour.eight" 
d="M-2314 128q-146 80 -264.5 187t-209 233.5t-151 268.5t-89.5 293l1400 266l688 1251q172 -95 307.5 -227.5t229.5 -290.5t145.5 -335t56.5 -361t-38 -368.5t-138 -356.5t-227.5 -307t-290 -229t-334.5 -145t-360.5 -56t-368 38.5t-356.5 138.5z" />
    <glyph glyph-name="sixtynine.eight" 
d="M-2314 128q-132 72 -242 167t-197 206.5t-149.5 237.5t-99.5 260t-47.5 274t7.5 281l1414 -178l688 1251q172 -95 307.5 -227.5t229.5 -290.5t145.5 -335t56.5 -361t-38 -368.5t-138 -356.5t-227.5 -307t-290 -229t-334.5 -145t-360.5 -56t-368 38.5t-356.5 138.5z" />
    <glyph glyph-name="sixtyone.eight" 
d="M-2314 128q-114 63 -211.5 142t-177.5 171t-143 195.5t-107 215.5l1325 524l688 1251q172 -95 307.5 -227.5t229.5 -290.5t145.5 -335t56.5 -361t-38 -368.5t-138 -356.5t-227.5 -307t-290 -229t-334.5 -145t-360.5 -56t-368 38.5t-356.5 138.5z" />
    <glyph glyph-name="sixtyseven.eight" 
d="M-2314 128q-177 97 -314.5 234t-232 299.5t-143.5 344.5t-49 370h1425l688 1251q172 -95 307.5 -227.5t229.5 -290.5t145.5 -335t56.5 -361t-38 -368.5t-138 -356.5t-227.5 -307t-290 -229t-334.5 -145t-360.5 -56t-368 38.5t-356.5 138.5z" />
    <glyph glyph-name="sixtysix.eight" 
d="M-2314 128q-167 91 -298.5 217.5t-225 276.5t-147.5 319t-65 345l1422 90l688 1251q172 -95 307.5 -227.5t229.5 -290.5t145.5 -335t56.5 -361t-38 -368.5t-138 -356.5t-227.5 -307t-290 -229t-334.5 -145t-360.5 -56t-368 38.5t-356.5 138.5z" />
    <glyph glyph-name="sixtythree.eight" 
d="M-2314 128q-135 74 -247 171.5t-199.5 212t-150 243.5t-97.5 267l1380 354l688 1251q172 -95 307.5 -227.5t229.5 -290.5t145.5 -335t56.5 -361t-38 -368.5t-138 -356.5t-227.5 -307t-290 -229t-334.5 -145t-360.5 -56t-368 38.5t-356.5 138.5z" />
    <glyph glyph-name="sixtytwo.eight" 
d="M-2314 128q-125 68 -230 156t-189 191.5t-147 219.5t-103 241l1355 440l688 1251q172 -95 307.5 -227.5t229.5 -290.5t145.5 -335t56.5 -361t-38 -368.5t-138 -356.5t-227.5 -307t-290 -229t-334.5 -145t-360.5 -56t-368 38.5t-356.5 138.5z" />
    <glyph glyph-name="ten.eight" 
d="M-940 2627q207 -114 358.5 -279t245.5 -364l-1292 -608z" />
    <glyph glyph-name="thirteen.eight" 
d="M-940 2627q135 -74 247 -171.5t199.5 -212t150 -244t98.5 -267.5l-1383 -356z" />
    <glyph glyph-name="thirty.eight" 
d="M-1628 1376l688 1251q172 -95 307.5 -227.5t229.5 -290.5t145.5 -335t56.5 -361t-38 -368.5t-138 -356.5q-56 -102 -124.5 -190t-148.5 -163z" />
    <glyph glyph-name="thirtyeight.eight" 
d="M-940 2627q172 -95 307.5 -227.5t229.5 -290.5t145.5 -335t56.5 -361t-38 -368.5t-138 -356.5q-74 -135 -171.5 -247t-212 -199.5t-244.5 -149.5t-268 -97l-355 1381z" />
    <glyph glyph-name="thirtyfive.eight" 
d="M-940 2627q172 -95 307.5 -227.5t229.5 -290.5t145.5 -335t56.5 -361t-38 -368.5t-138 -356.5q-114 -208 -279 -359t-364 -244l-608 1291z" />
    <glyph glyph-name="thirtyfour.eight" 
d="M-940 2627q172 -95 307.5 -227.5t229.5 -290.5t145.5 -335t56.5 -361t-38 -368.5t-138 -356.5q-102 -186 -246 -327t-318 -236l-687 1251z" />
    <glyph glyph-name="thirtynine.eight" 
d="M-940 2627q172 -95 307.5 -227.5t229.5 -290.5t145.5 -335t56.5 -361t-38 -368.5t-138 -356.5q-80 -146 -187 -264.5t-234 -208.5t-269.5 -150.5t-293.5 -88.5l-267 1400z" />
    <glyph glyph-name="thirtyone.eight" 
d="M-940 2627q172 -95 307.5 -227.5t229.5 -290.5t145.5 -335t56.5 -361t-38 -368.5t-138 -356.5q-67 -123 -153 -226t-188 -187l-910 1101z" />
    <glyph glyph-name="thirtyseven.eight" 
d="M-1628 1376l688 1251q172 -95 307.5 -227.5t229.5 -290.5t145.5 -335t56.5 -361t-38 -368.5t-138 -356.5q-68 -125 -156.5 -229.5t-192 -188.5t-220 -147t-241.5 -103z" />
    <glyph glyph-name="thirtysix.eight" 
d="M-940 2627q172 -95 307.5 -227.5t229.5 -290.5t145.5 -335t56.5 -361t-38 -368.5t-138 -356.5q-62 -114 -141.5 -211.5t-171.5 -177.5t-196 -142.5t-216 -106.5l-526 1326z" />
    <glyph glyph-name="thirtythree.eight" 
d="M-940 2627q172 -95 307.5 -227.5t229.5 -290.5t145.5 -335t56.5 -361t-38 -368.5t-138 -356.5q-91 -165 -214 -294t-272 -223l-765 1205z" />
    <glyph glyph-name="thirtytwo.eight" 
d="M-940 2627q172 -95 307.5 -227.5t229.5 -290.5t145.5 -335t56.5 -361t-38 -368.5t-138 -356.5q-79 -144 -183 -260.5t-229 -206.5l-839 1155z" />
    <glyph glyph-name="twelve.eight" 
d="M-940 2627q124 -68 229 -156t189.5 -191.5t147.5 -220t104 -241.5l-1358 -442z" />
    <glyph glyph-name="twenty.eight" 
d="M-940 2627q139 -76 253.5 -177t203.5 -220.5t151 -254t95 -277.5t37 -291.5t-24 -296.5l-1404 266z" />
    <glyph glyph-name="twentyeight.eight" 
d="M-940 2627q172 -95 307.5 -227.5t229.5 -290.5t145.5 -335t56.5 -361t-38 -368.5t-138 -356.5q-66 -119 -151 -223l-1100 911z" />
    <glyph glyph-name="twentyfive.eight" 
d="M-940 2627q172 -95 307.5 -227.5t229.5 -290.5t145.5 -335t56.5 -361t-38 -368.5t-138 -356.5l-1251 688z" />
    <glyph glyph-name="twentyfour.eight" 
d="M-940 2627q166 -91 297.5 -217.5t225 -276.5t148 -319t66.5 -345t-20.5 -354t-112.5 -347l-1292 608z" />
    <glyph glyph-name="twentynine.eight" 
d="M-940 2627q172 -95 307.5 -227.5t229.5 -290.5t145.5 -335t56.5 -361t-38 -368.5t-138 -356.5q-45 -81 -97.5 -153t-112.5 -137l-1041 978z" />
    <glyph glyph-name="twentyone.eight" 
d="M-940 2627q146 -80 265 -187.5t209.5 -234.5t151 -270t89.5 -295t24.5 -309t-44.5 -311l-1383 356z" />
    <glyph glyph-name="twentyseven.eight" 
d="M-940 2627q172 -95 307.5 -227.5t229.5 -290.5t145.5 -335t56.5 -361t-38 -368.5t-138 -356.5q-44 -81 -95 -151l-1156 839z" />
    <glyph glyph-name="twentysix.eight" 
d="M-940 2627q172 -95 307.5 -227.5t229.5 -290.5t145.5 -335t56.5 -361t-38 -368.5t-138 -356.5q-11 -20 -22.5 -39.5t-23.5 -38.5l-1205 766z" />
    <glyph glyph-name="twentythree.eight" 
d="M-940 2627q159 -87 287 -207t221 -262.5t149.5 -303t74.5 -328.5t-4.5 -339.5t-87.5 -336.5l-1328 526z" />
    <glyph glyph-name="twentytwo.eight" 
d="M-940 2627q152 -84 275.5 -197.5t215.5 -248t151 -286.5t82.5 -312t10.5 -324t-65 -324l-1358 441z" />
    <glyph glyph-name="one.eighteen" 
d="M-336 1984q10 -20 19 -41t17 -41l-1328 -526z" />
    <glyph glyph-name="two.eighteen" 
d="M-336 1984q20 -42 36.5 -84t30.5 -84l-1359 -440z" />
    <glyph glyph-name="three.eighteen" 
d="M-336 1984q29 -62 51.5 -125t39.5 -127l-1383 -356z" />
    <glyph glyph-name="four.eighteen" 
d="M-336 1984q39 -84 66.5 -169t44.5 -172l-1403 -267z" />
    <glyph glyph-name="five.eighteen" 
d="M-336 1984q50 -105 80.5 -212.5t44.5 -216.5l-1417 -179z" />
    <glyph glyph-name="six.eighteen" 
d="M-336 1984q60 -127 92.5 -257t40.5 -261l-1425 -90z" />
    <glyph glyph-name="seven.eighteen" 
d="M-1628 1376l1292 608q69 -148 103 -301t33 -307h-1428z" />
    <glyph glyph-name="eight.eighteen" 
d="M-336 1984q80 -171 112 -346.5t21 -350.5l-1425 89z" />
    <glyph glyph-name="nine.eighteen" 
d="M-336 1984q91 -192 120.5 -391t3.5 -396l-1416 179z" />
    <glyph glyph-name="eighteen.eighteen" 
d="M-336 1984q91 -194 120.5 -397t3 -400.5t-106.5 -381.5t-208 -339l-1101 910z" />
    <glyph glyph-name="eighty.eighteen" 
d="M-336 1984q84 -178 115.5 -365t15 -370t-79 -356.5t-166.5 -325t-247.5 -275.5t-321.5 -208t-364.5 -115.5t-369.5 -14.5t-356 79.5t-324 167t-274.5 248t-207.5 321.5t-115.5 364.5t-15.5 369t78.5 355t166 324t247 274.5t321.5 207q105 50 212.5 81t216.5 45l177 -1414
z" />
    <glyph glyph-name="eightyone.eighteen" 
d="M-336 1984q84 -178 115.5 -365t15 -370t-79 -356.5t-166.5 -325t-247.5 -275.5t-321.5 -208t-364.5 -115.5t-369.5 -14.5t-356 79.5t-324 167t-274.5 248t-207.5 321.5t-115.5 364.5t-15.5 369t78.5 355t166 324t247 274.5t321.5 207q126 60 255.5 93t260.5 41l90 -1422z
" />
    <glyph glyph-name="eightytwo.eighteen" 
d="M-1628 1376l1292 608q84 -178 115.5 -365t15 -370t-79 -356.5t-166.5 -325t-247.5 -275.5t-321.5 -208t-364.5 -115.5t-369.5 -14.5t-356 79.5t-324 167t-274.5 248t-207.5 321.5t-115.5 364.5t-15.5 369t78.5 355t166 324t247 274.5t321.5 207q148 70 300.5 103.5
t305.5 33.5v-1425z" />
    <glyph glyph-name="eleven.eighteen" 
d="M-336 1984q55 -117 87.5 -238.5t43 -243.5t0.5 -243t-40 -237l-1383 354z" />
    <glyph glyph-name="fifteen.eighteen" 
d="M-336 1984q76 -161 108.5 -329t26 -334.5t-51.5 -327t-124 -305.5l-1251 688z" />
    <glyph glyph-name="fifty.eighteen" 
d="M-336 1984q84 -178 115.5 -365t15 -370t-79 -356.5t-166.5 -325t-247.5 -275.5t-321.5 -208t-364.5 -115.5t-369.5 -14.5t-356 79.5t-324 167t-274.5 248t-207.5 321.5z" />
    <glyph glyph-name="fiftyeight.eighteen" 
d="M-2916 770q-80 170 -112.5 345.5t-21.5 350.5l1422 -90l1292 608q84 -178 115.5 -365t15 -370t-79 -356.5t-166.5 -325t-247.5 -275.5t-321.5 -208t-364.5 -115.5t-369.5 -14.5t-356 79.5t-324 167t-274.5 248t-207.5 321.5z" />
    <glyph glyph-name="fiftyfive.eighteen" 
d="M-2916 770q-50 105 -81 212t-45 216l1414 178l1292 608q84 -178 115.5 -365t15 -370t-79 -356.5t-166.5 -325t-247.5 -275.5t-321.5 -208t-364.5 -115.5t-369.5 -14.5t-356 79.5t-324 167t-274.5 248t-207.5 321.5z" />
    <glyph glyph-name="fiftyfour.eighteen" 
d="M-2916 770q-78 164 -111 339l1399 267l1292 608q84 -178 115.5 -365t15 -370t-79 -356.5t-166.5 -325t-247.5 -275.5t-321.5 -208t-364.5 -115.5t-369.5 -14.5t-356 79.5t-324 167t-274.5 248t-207.5 321.5z" />
    <glyph glyph-name="fiftynine.eighteen" 
d="M-2916 770q-91 192 -120.5 391t-5.5 394l1414 -179l1292 608q84 -178 115.5 -365t15 -370t-79 -356.5t-166.5 -325t-247.5 -275.5t-321.5 -208t-364.5 -115.5t-369.5 -14.5t-356 79.5t-324 167t-274.5 248t-207.5 321.5z" />
    <glyph glyph-name="fiftyone.eighteen" 
d="M-2916 770q-10 20 -19 40.5t-17 41.5l1324 524l1292 608q84 -178 115.5 -365t15 -370t-79 -356.5t-166.5 -325t-247.5 -275.5t-321.5 -208t-364.5 -115.5t-369.5 -14.5t-356 79.5t-324 167t-274.5 248t-207.5 321.5z" />
    <glyph glyph-name="fiftyseven.eighteen" 
d="M-2916 770q-70 148 -103.5 300.5t-33.5 305.5h1425l1292 608q84 -178 115.5 -365t15 -370t-79 -356.5t-166.5 -325t-247.5 -275.5t-321.5 -208t-364.5 -115.5t-369.5 -14.5t-356 79.5t-324 167t-274.5 248t-207.5 321.5z" />
    <glyph glyph-name="fiftysix.eighteen" 
d="M-2916 770q-60 127 -92.5 256.5t-41.5 260.5l1422 89l1292 608q84 -178 115.5 -365t15 -370t-79 -356.5t-166.5 -325t-247.5 -275.5t-321.5 -208t-364.5 -115.5t-369.5 -14.5t-356 79.5t-324 167t-274.5 248t-207.5 321.5z" />
    <glyph glyph-name="fiftythree.eighteen" 
d="M-2916 770q-30 62 -52.5 125t-39.5 127l1380 354l1292 608q84 -178 115.5 -365t15 -370t-79 -356.5t-166.5 -325t-247.5 -275.5t-321.5 -208t-364.5 -115.5t-369.5 -14.5t-356 79.5t-324 167t-274.5 248t-207.5 321.5z" />
    <glyph glyph-name="fiftytwo.eighteen" 
d="M-2916 770q-20 41 -36 82.5t-30 83.5l1354 440l1292 608q84 -178 115.5 -365t15 -370t-79 -356.5t-166.5 -325t-247.5 -275.5t-321.5 -208t-364.5 -115.5t-369.5 -14.5t-356 79.5t-324 167t-274.5 248t-207.5 321.5z" />
    <glyph glyph-name="fourteen.eighteen" 
d="M-336 1984q70 -150 103.5 -306.5t32 -312t-36 -307t-99.5 -290.5l-1292 608z" />
    <glyph glyph-name="fourty.eighteen" 
d="M-1628 1376l1292 608q84 -178 115.5 -365t15 -370t-79 -356.5t-166.5 -325t-247.5 -275.5t-321.5 -208q-161 -76 -329.5 -108.5t-334.5 -25.5t-326 52t-305 125z" />
    <glyph glyph-name="fourtyeight.eighteen" 
d="M-1628 1376l1292 608q84 -178 115.5 -365t15 -370t-79 -356.5t-166.5 -325t-247.5 -275.5t-321.5 -208q-165 -77 -336.5 -110t-341 -24t-332 57.5t-309 133t-271.5 203.5t-220 269z" />
    <glyph glyph-name="fourtyfive.eighteen" 
d="M-1628 1376l1292 608q84 -178 115.5 -365t15 -370t-79 -356.5t-166.5 -325t-247.5 -275.5t-321.5 -208q-143 -67 -292.5 -100.5t-298 -35t-293.5 27.5t-280 87t-257 142.5t-225 194.5z" />
    <glyph glyph-name="fourtyfour.eighteen" 
d="M-1628 1376l1292 608q84 -178 115.5 -365t15 -370t-79 -356.5t-166.5 -325t-247.5 -275.5t-321.5 -208q-205 -96 -419.5 -123.5t-421.5 7.5t-397 129t-345 240z" />
    <glyph glyph-name="fourtynine.eighteen" 
d="M-1628 1376l1292 608q84 -178 115.5 -365t15 -370t-79 -356.5t-166.5 -325t-247.5 -275.5t-321.5 -208q-171 -81 -350.5 -113t-355.5 -19.5t-344 68t-317 150t-274 225.5t-215 295z" />
    <glyph glyph-name="fourtyone.eighteen" 
d="M-1628 1376l1292 608q84 -178 115.5 -365t15 -370t-79 -356.5t-166.5 -325t-247.5 -275.5t-321.5 -208q-172 -81 -352 -113t-356.5 -19t-345 69t-317.5 151z" />
    <glyph glyph-name="fourtyseven.eighteen" 
d="M-1628 1376l1292 608q84 -178 115.5 -365t15 -370t-79 -356.5t-166.5 -325t-247.5 -275.5t-321.5 -208q-158 -74 -322 -107t-326.5 -28t-320 46.5t-300.5 117t-268 182.5t-223 243z" />
    <glyph glyph-name="fourtysix.eighteen" 
d="M-1628 1376l1292 608q84 -178 115.5 -365t15 -370t-79 -356.5t-166.5 -325t-247.5 -275.5t-321.5 -208q-151 -71 -307.5 -104.5t-312.5 -31.5t-307 37t-290.5 101.5t-263.5 162.5t-225 219z" />
    <glyph glyph-name="fourtythree.eighteen" 
d="M-1628 1376l1292 608q84 -178 115.5 -365t15 -370t-79 -356.5t-166.5 -325t-247.5 -275.5t-321.5 -208q-194 -91 -397 -120t-400.5 -2t-381 107.5t-338.5 208.5z" />
    <glyph glyph-name="fourtytwo.eighteen" 
d="M-1628 1376l1292 608q84 -178 115.5 -365t15 -370t-79 -356.5t-166.5 -325t-247.5 -275.5t-321.5 -208q-183 -86 -374.5 -117t-379 -11t-363.5 88t-329 179z" />
    <glyph glyph-name="nineteen.eighteen" 
d="M-336 1984q64 -136 97.5 -278t38 -283.5t-19 -280.5t-72.5 -269.5t-123.5 -250.5t-171.5 -224l-1041 978z" />
    <glyph glyph-name="seventeen.eighteen" 
d="M-336 1984q86 -183 117 -374.5t11.5 -379t-87 -364t-178.5 -329.5l-1155 839z" />
    <glyph glyph-name="seventy.eighteen" 
d="M-2916 770q-68 144 -101.5 293t-35 297.5t27 293t86 279.5t142 257t194.5 225l975 -1039l1292 608q84 -178 115.5 -365t15 -370t-79 -356.5t-166.5 -325t-247.5 -275.5t-321.5 -208t-364.5 -115.5t-369.5 -14.5t-356 79.5t-324 167t-274.5 248t-207.5 321.5z" />
    <glyph glyph-name="seventyeight.eighteen" 
d="M-336 1984q84 -178 115.5 -365t15 -370t-79 -356.5t-166.5 -325t-247.5 -275.5t-321.5 -208t-364.5 -115.5t-369.5 -14.5t-356 79.5t-324 167t-274.5 248t-207.5 321.5t-115.5 364.5t-15.5 369t78.5 355t166 324t247 274.5t321.5 207q124 59 252 92l354 -1380z" />
    <glyph glyph-name="seventyfive.eighteen" 
d="M-1628 1376l1292 608q84 -178 115.5 -365t15 -370t-79 -356.5t-166.5 -325t-247.5 -275.5t-321.5 -208t-364.5 -115.5t-369.5 -14.5t-356 79.5t-324 167t-274.5 248t-207.5 321.5t-115.5 364.5t-15.5 369t78.5 355t166 324t247 274.5t321.5 207z" />
    <glyph glyph-name="seventyfour.eighteen" 
d="M-2916 770q-81 171 -113 350t-20 355t67 343.5t148.5 316.5t224 273.5t294.5 214.5l687 -1247l1292 608q84 -178 115.5 -365t15 -370t-79 -356.5t-166.5 -325t-247.5 -275.5t-321.5 -208t-364.5 -115.5t-369.5 -14.5t-356 79.5t-324 167t-274.5 248t-207.5 321.5z" />
    <glyph glyph-name="seventynine.eighteen" 
d="M-336 1984q84 -178 115.5 -365t15 -370t-79 -356.5t-166.5 -325t-247.5 -275.5t-321.5 -208t-364.5 -115.5t-369.5 -14.5t-356 79.5t-324 167t-274.5 248t-207.5 321.5t-115.5 364.5t-15.5 369t78.5 355t166 324t247 274.5t321.5 207q164 78 339 111l267 -1399z" />
    <glyph glyph-name="seventyone.eighteen" 
d="M-2916 770q-71 150 -104.5 307t-32.5 312.5t36 306.5t101 290t161.5 262.5t218.5 224.5l908 -1097l1292 608q84 -178 115.5 -365t15 -370t-79 -356.5t-166.5 -325t-247.5 -275.5t-321.5 -208t-364.5 -115.5t-369.5 -14.5t-356 79.5t-324 167t-274.5 248t-207.5 321.5z
" />
    <glyph glyph-name="seventyseven.eighteen" 
d="M-1628 1376l1292 608q84 -178 115.5 -365t15 -370t-79 -356.5t-166.5 -325t-247.5 -275.5t-321.5 -208t-364.5 -115.5t-369.5 -14.5t-356 79.5t-324 167t-274.5 248t-207.5 321.5t-115.5 364.5t-15.5 369t78.5 355t166 324t247 274.5t321.5 207q41 20 82.5 36t83.5 30z
" />
    <glyph glyph-name="seventysix.eighteen" 
d="M-1628 1376l1292 608q84 -178 115.5 -365t15 -370t-79 -356.5t-166.5 -325t-247.5 -275.5t-321.5 -208t-364.5 -115.5t-369.5 -14.5t-356 79.5t-324 167t-274.5 248t-207.5 321.5t-115.5 364.5t-15.5 369t78.5 355t166 324t247 274.5t321.5 207q20 10 40.5 19t41.5 17z
" />
    <glyph glyph-name="seventythree.eighteen" 
d="M-2916 770q-78 164 -110.5 336t-24 341.5t56.5 331.5t132 308.5t202.5 271t268.5 219.5l763 -1202l1292 608q84 -178 115.5 -365t15 -370t-79 -356.5t-166.5 -325t-247.5 -275.5t-321.5 -208t-364.5 -115.5t-369.5 -14.5t-356 79.5t-324 167t-274.5 248t-207.5 321.5z
" />
    <glyph glyph-name="seventytwo.eighteen" 
d="M-2916 770q-74 157 -107.5 321.5t-28.5 327t46 319t116 299.5t181.5 267.5t242.5 223.5l838 -1152l1292 608q84 -178 115.5 -365t15 -370t-79 -356.5t-166.5 -325t-247.5 -275.5t-321.5 -208t-364.5 -115.5t-369.5 -14.5t-356 79.5t-324 167t-274.5 248t-207.5 321.5z
" />
    <glyph glyph-name="sixteen.eighteen" 
d="M-336 1984q81 -172 113 -352t19.5 -357t-68.5 -346t-151 -319l-1205 766z" />
    <glyph glyph-name="sixty.eighteen" 
d="M-2916 770q-101 214 -127 436t15 438l1400 -268l1292 608q84 -178 115.5 -365t15 -370t-79 -356.5t-166.5 -325t-247.5 -275.5t-321.5 -208t-364.5 -115.5t-369.5 -14.5t-356 79.5t-324 167t-274.5 248t-207.5 321.5z" />
    <glyph glyph-name="sixtyeight.eighteen" 
d="M-2916 770q-61 129 -94.5 263t-40.5 267.5t11 265.5t59 257.5t105.5 241.5t149.5 219l1098 -908l1292 608q84 -178 115.5 -365t15 -370t-79 -356.5t-166.5 -325t-247.5 -275.5t-321.5 -208t-364.5 -115.5t-369.5 -14.5t-356 79.5t-324 167t-274.5 248t-207.5 321.5z" />
    <glyph glyph-name="sixtyfive.eighteen" 
d="M-2916 770q-76 161 -109 329t-26.5 334t51 325.5t124.5 304.5l1248 -687l1292 608q84 -178 115.5 -365t15 -370t-79 -356.5t-166.5 -325t-247.5 -275.5t-321.5 -208t-364.5 -115.5t-369.5 -14.5t-356 79.5t-324 167t-274.5 248t-207.5 321.5z" />
    </font>
</defs>
</svg>
