<svg width="80" height="32" viewBox="0 0 80 32" fill="none" xmlns="http://www.w3.org/2000/svg">
<path fill-rule="evenodd" clip-rule="evenodd" d="M32.9546 2.33869C32.9546 3.63102 31.9082 4.67737 30.6159 4.67737C29.3254 4.67737 28.2772 3.62919 28.2772 2.33869C28.2772 1.04819 29.3254 0 30.6159 0C31.9064 0 32.9546 1.04635 32.9546 2.33869ZM12.9509 21.0922C11.6053 22.1771 9.78063 22.8031 7.85865 22.8031C3.30427 22.8031 0 19.2896 0 14.4507C0 9.61174 3.5888 6.09821 8.53603 6.09821C13.4833 6.09821 17.0739 9.60991 17.0739 14.4507V22.5259H12.9509V21.0922ZM12.9509 14.4507C12.9509 11.7687 11.1078 9.82101 8.56723 9.82101C6.04497 9.82101 4.21478 11.7246 4.21478 14.4507C4.21478 17.1767 5.98623 19.0803 8.56723 19.0803C11.1482 19.0803 12.9509 17.1326 12.9509 14.4507ZM47.7742 14.2488C47.5778 11.8018 45.8027 10.0707 43.4089 10.0707C41.0317 10.0707 39.2694 11.8018 39.0748 14.2488H34.8508C35.0675 9.64481 38.5865 6.34972 43.3777 6.34972C48.1689 6.34972 51.6879 9.64481 51.9045 14.2488H47.7742ZM47.5613 16.2864L47.5607 16.2882H47.5594L47.5613 16.2864ZM47.5607 16.2882H51.9009V22.5571C51.899 23.8513 51.8495 24.5544 51.8164 24.8701H51.8219L51.8054 24.9729C51.7962 25.0463 51.7907 25.0794 51.7907 25.0794H51.7889C51.1537 29.1638 47.8844 32 43.3649 32C38.8453 32 35.4585 29.0665 34.9078 24.8701H39.1776C39.6439 26.9004 41.2685 28.2772 43.3942 28.2772C45.52 28.2772 47.1574 26.9133 47.6347 24.8958C47.754 24.3139 47.7779 23.1886 47.7779 23.1886V21.3713C46.4323 22.4562 44.6076 23.0821 42.6856 23.0821C38.6379 23.0821 35.5778 20.3047 34.9482 16.2882H39.2804C39.8366 18.1386 41.3805 19.3318 43.4089 19.3318C45.1694 19.3318 46.5682 18.4452 47.2786 17.017C47.2914 16.9931 47.3024 16.9692 47.3135 16.9454C47.3171 16.9371 47.3208 16.9294 47.3244 16.9216L47.3296 16.9105L47.3355 16.8977C47.4233 16.7036 47.4984 16.5005 47.5607 16.2882ZM32.6774 6.3754H28.5544V22.5259H32.6774V6.3754ZM76.2717 18.111C76.7379 18.5479 77.4906 18.7389 78.5094 18.6746L78.5112 18.6728L79.3043 18.6232V22.5186L78.6434 22.5957C78.2983 22.6361 77.9605 22.6563 77.6338 22.6563C76.0037 22.6563 74.5938 22.1624 73.5145 21.2024C72.1781 20.0128 71.4713 18.2083 71.4713 15.9853V1.59154H75.587V5.2758H78.3681V9.05001H75.587V15.9853C75.587 16.9674 75.8164 17.6833 76.2717 18.111ZM25.4924 18.7132C24.6498 18.7536 24.0404 18.5975 23.6769 18.2506C23.3318 17.922 23.1574 17.3603 23.1574 16.5801V0.223951H19.0583V16.6627C19.0583 18.6783 19.7044 20.3194 20.927 21.408C21.9128 22.2854 23.2253 22.7499 24.7214 22.7499C25.0188 22.7499 25.3272 22.7315 25.6393 22.6948L26.4378 22.603V18.6673L25.4943 18.7113L25.4924 18.7132ZM62.4947 5.84306C66.0083 5.84306 68.9032 8.4828 69.3089 11.888H69.3107C69.3419 12.156 69.3603 12.4296 69.3603 12.7068V22.5259H65.1308L65.1271 12.8922C65.1271 11.0748 63.6531 9.60258 61.8357 9.60258C59.6861 9.60258 58.5443 11.0748 58.5443 12.8922V22.5259H54.2965V0.332273H58.5259V7.10786C59.6476 6.313 61.0152 5.84306 62.4947 5.84306Z" fill="{{ include.fill }}"/>
</svg>
