<svg viewBox="0 0 193 350" fill="none" xmlns="http://www.w3.org/2000/svg">
<path d="M61.69 -671.89C61.69 -672.76 62.39 -673.46 63.26 -673.46C97.6 -673.46 125.54 -701.4 125.54 -735.74C125.54 -736.61 126.24 -737.31 127.11 -737.31C127.98 -737.31 128.68 -736.61 128.68 -735.74C128.68 -699.67 99.34 -670.33 63.27 -670.33C62.4 -670.33 61.7 -671.03 61.7 -671.9L61.69 -671.89Z" />
<path d="M61.69 -655.93C61.69 -656.8 62.39 -657.5 63.26 -657.5C106.4 -657.5 141.5 -692.6 141.5 -735.74C141.5 -736.61 142.2 -737.31 143.07 -737.31C143.94 -737.31 144.64 -736.61 144.64 -735.74C144.64 -690.87 108.14 -654.36 63.26 -654.36C62.39 -654.36 61.69 -655.06 61.69 -655.93Z" />
<path d="M61.69 -639.97C61.69 -640.84 62.39 -641.54 63.26 -641.54C115.2 -641.54 157.46 -683.8 157.46 -735.74C157.46 -736.61 158.16 -737.31 159.03 -737.31C159.9 -737.31 160.6 -736.61 160.6 -735.74C160.6 -682.07 116.93 -638.4 63.26 -638.4C62.39 -638.4 61.69 -639.1 61.69 -639.97Z" />
<path d="M61.69 -624.01C61.69 -624.88 62.39 -625.58 63.26 -625.58C124 -625.58 173.42 -675 173.42 -735.74C173.42 -736.61 174.12 -737.31 174.99 -737.31C175.86 -737.31 176.56 -736.61 176.56 -735.74C176.56 -673.27 125.73 -622.44 63.26 -622.44C62.39 -622.44 61.69 -623.14 61.69 -624.01Z" />
<path d="M61.69 -608.05C61.69 -608.92 62.39 -609.62 63.26 -609.62C132.81 -609.62 189.38 -666.2 189.38 -735.74C189.38 -736.61 190.08 -737.31 190.95 -737.31C191.82 -737.31 192.52 -736.61 192.52 -735.74C192.52 -701.21 179.07 -668.75 154.66 -644.34C130.25 -619.93 97.79 -606.48 63.26 -606.48C62.39 -606.48 61.69 -607.18 61.69 -608.05Z" />
<path d="M63.26 -608.05H-0.589996C-0.589996 -643.31 27.99 -671.9 63.26 -671.9V-608.05Z" />
<path d="M-2.15 -608.05C-2.15 -644.12 27.19 -673.46 63.26 -673.46C64.13 -673.46 64.83 -672.76 64.83 -671.89V-608.04C64.83 -607.17 64.13 -606.47 63.26 -606.47H-0.589996C-1.46 -606.47 -2.16 -607.17 -2.16 -608.04L-2.15 -608.05ZM61.69 -670.31C28.59 -669.49 1.82 -642.72 1 -609.62H61.69L61.69 -670.31Z" />
<path d="M63.26 -288.82L63.26 -224.97C28 -224.97 -0.589996 -253.55 -0.589996 -288.82H63.26Z" />
<path d="M-2.15 -288.82C-2.15 -289.69 -1.45 -290.39 -0.580002 -290.39H63.27C64.14 -290.39 64.84 -289.69 64.84 -288.82L64.84 -224.97C64.84 -224.1 64.14 -223.4 63.27 -223.4C27.2 -223.4 -2.14 -252.74 -2.14 -288.81L-2.15 -288.82ZM61.69 -287.25H1C1.82 -254.15 28.59 -227.38 61.69 -226.56V-287.25Z" />
<path d="M-18.12 -608.05C-18.12 -652.92 18.38 -689.43 63.26 -689.43C64.13 -689.43 64.83 -688.73 64.83 -687.86C64.83 -686.99 64.13 -686.29 63.26 -686.29C20.12 -686.29 -14.98 -651.19 -14.98 -608.05C-14.98 -607.18 -15.68 -606.48 -16.55 -606.48C-17.42 -606.48 -18.12 -607.18 -18.12 -608.05Z" />
<path d="M-34.08 -608.05C-34.08 -661.72 9.59 -705.39 63.26 -705.39C64.13 -705.39 64.83 -704.69 64.83 -703.82C64.83 -702.95 64.13 -702.25 63.26 -702.25C11.32 -702.25 -30.94 -659.99 -30.94 -608.05C-30.94 -607.18 -31.64 -606.48 -32.51 -606.48C-33.38 -606.48 -34.08 -607.18 -34.08 -608.05Z" />
<path d="M-0.589996 -608.05C-0.589996 -572.79 27.99 -544.2 63.26 -544.2V-480.35C-7.26 -480.35 -64.43 -537.52 -64.43 -608.04H-0.580002L-0.589996 -608.05Z" />
<path d="M-66 -608.05C-66 -608.92 -65.3 -609.62 -64.43 -609.62H-0.580002C0.289998 -609.62 0.989998 -608.92 0.989998 -608.05C0.989998 -573.71 28.93 -545.77 63.27 -545.77C64.14 -545.77 64.84 -545.07 64.84 -544.2V-480.35C64.84 -479.48 64.14 -478.78 63.27 -478.78C-8.00999 -478.79 -66 -536.77 -66 -608.05ZM-62.85 -606.48C-62.02 -538.17 -6.61 -482.77 61.7 -481.93V-542.65C26.87 -543.47 -1.3 -571.65 -2.13 -606.48H-62.85Z" />
<path d="M61.69 -432.47C61.69 -433.34 62.39 -434.04 63.26 -434.04C72.93 -434.04 80.79 -426.18 80.79 -416.51C80.79 -415.64 80.09 -414.94 79.22 -414.94C78.35 -414.94 77.65 -415.64 77.65 -416.51C77.65 -424.45 71.19 -430.9 63.26 -430.9C62.39 -430.9 61.69 -431.6 61.69 -432.47Z" />
<path d="M61.69 -448.43C61.69 -449.3 62.39 -450 63.26 -450C81.73 -450 96.75 -434.98 96.75 -416.51C96.75 -415.64 96.05 -414.94 95.18 -414.94C94.31 -414.94 93.61 -415.64 93.61 -416.51C93.61 -433.25 79.99 -446.87 63.26 -446.87C62.39 -446.87 61.69 -447.57 61.69 -448.44V-448.43Z" />
<path d="M61.69 -464.39C61.69 -465.26 62.39 -465.96 63.26 -465.96C90.53 -465.96 112.71 -443.78 112.71 -416.51C112.71 -415.64 112.01 -414.94 111.14 -414.94C110.27 -414.94 109.57 -415.64 109.57 -416.51C109.57 -442.05 88.79 -462.83 63.25 -462.83C62.38 -462.83 61.68 -463.53 61.68 -464.4L61.69 -464.39Z" />
<path d="M61.69 -480.36C61.69 -481.23 62.39 -481.93 63.26 -481.93C99.33 -481.93 128.67 -452.59 128.67 -416.52C128.67 -415.65 127.97 -414.95 127.1 -414.95C126.23 -414.95 125.53 -415.65 125.53 -416.52C125.53 -450.86 97.59 -478.8 63.25 -478.8C62.38 -478.8 61.68 -479.5 61.68 -480.37L61.69 -480.36Z" />
<path d="M61.69 -400.55C61.69 -401.42 62.39 -402.12 63.26 -402.12C71.2 -402.12 77.65 -408.58 77.65 -416.51C77.65 -417.38 78.35 -418.08 79.22 -418.08C80.09 -418.08 80.79 -417.38 80.79 -416.51C80.79 -406.84 72.93 -398.98 63.26 -398.98C62.39 -398.98 61.69 -399.68 61.69 -400.55Z" />
<path d="M61.69 -384.59C61.69 -385.46 62.39 -386.16 63.26 -386.16C80 -386.16 93.61 -399.78 93.61 -416.52C93.61 -417.39 94.31 -418.09 95.18 -418.09C96.05 -418.09 96.75 -417.39 96.75 -416.52C96.75 -398.05 81.73 -383.03 63.26 -383.03C62.39 -383.03 61.69 -383.73 61.69 -384.6V-384.59Z" />
<path d="M61.69 -368.63C61.69 -369.5 62.39 -370.2 63.26 -370.2C88.8 -370.2 109.58 -390.98 109.58 -416.52C109.58 -417.39 110.28 -418.09 111.15 -418.09C112.02 -418.09 112.72 -417.39 112.72 -416.52C112.72 -389.25 90.54 -367.07 63.27 -367.07C62.4 -367.07 61.7 -367.77 61.7 -368.64L61.69 -368.63Z" />
<path d="M61.69 -352.66C61.69 -353.53 62.39 -354.23 63.26 -354.23C97.6 -354.23 125.54 -382.17 125.54 -416.51C125.54 -417.38 126.24 -418.08 127.11 -418.08C127.98 -418.08 128.68 -417.38 128.68 -416.51C128.68 -380.44 99.34 -351.1 63.27 -351.1C62.4 -351.1 61.7 -351.8 61.7 -352.67L61.69 -352.66Z" />
<path d="M61.69 -496.32C61.69 -497.19 62.39 -497.89 63.26 -497.89C108.13 -497.89 144.64 -461.39 144.64 -416.51C144.64 -415.64 143.94 -414.94 143.07 -414.94C142.2 -414.94 141.5 -415.64 141.5 -416.51C141.5 -459.65 106.4 -494.75 63.26 -494.75C62.39 -494.75 61.69 -495.45 61.69 -496.32Z" />
<path d="M61.69 -512.28C61.69 -513.15 62.39 -513.85 63.26 -513.85C116.93 -513.85 160.6 -470.19 160.6 -416.51C160.6 -415.64 159.9 -414.94 159.03 -414.94C158.16 -414.94 157.46 -415.64 157.46 -416.51C157.46 -468.45 115.2 -510.71 63.26 -510.71C62.39 -510.71 61.69 -511.41 61.69 -512.28Z" />
<path d="M61.69 -528.24C61.69 -529.11 62.39 -529.81 63.26 -529.81C125.73 -529.81 176.56 -478.98 176.56 -416.51C176.56 -415.64 175.86 -414.94 174.99 -414.94C174.12 -414.94 173.42 -415.64 173.42 -416.51C173.42 -477.25 124 -526.67 63.26 -526.67C62.39 -526.67 61.69 -527.37 61.69 -528.24Z" />
<path d="M61.69 -544.2C61.69 -545.07 62.39 -545.77 63.26 -545.77C97.79 -545.77 130.25 -532.32 154.66 -507.91C179.07 -483.5 192.52 -451.04 192.52 -416.51C192.52 -415.64 191.82 -414.94 190.95 -414.94C190.08 -414.94 189.38 -415.64 189.38 -416.51C189.38 -486.06 132.8 -542.63 63.26 -542.63C62.39 -542.63 61.69 -543.33 61.69 -544.2Z" />
<path d="M61.69 -288.82C61.69 -289.69 62.39 -290.39 63.26 -290.39C108.13 -290.39 144.64 -253.89 144.64 -209.01C144.64 -208.14 143.94 -207.44 143.07 -207.44C142.2 -207.44 141.5 -208.14 141.5 -209.01C141.5 -252.15 106.4 -287.25 63.26 -287.25C62.39 -287.25 61.69 -287.95 61.69 -288.82Z" />
<path d="M61.69 -304.78C61.69 -305.65 62.39 -306.35 63.26 -306.35C116.93 -306.35 160.6 -262.68 160.6 -209.01C160.6 -208.14 159.9 -207.44 159.03 -207.44C158.16 -207.44 157.46 -208.14 157.46 -209.01C157.46 -260.95 115.2 -303.21 63.26 -303.21C62.39 -303.21 61.69 -303.91 61.69 -304.78Z" />
<path d="M61.69 -320.74C61.69 -321.61 62.39 -322.31 63.26 -322.31C125.73 -322.31 176.56 -271.48 176.56 -209.01C176.56 -208.14 175.86 -207.44 174.99 -207.44C174.12 -207.44 173.42 -208.14 173.42 -209.01C173.42 -269.75 124 -319.17 63.26 -319.17C62.39 -319.17 61.69 -319.87 61.69 -320.74Z" />
<path d="M61.69 -336.7C61.69 -337.57 62.39 -338.27 63.26 -338.27C97.79 -338.27 130.25 -324.82 154.66 -300.41C179.07 -276 192.52 -243.54 192.52 -209.01C192.52 -208.14 191.82 -207.44 190.95 -207.44C190.08 -207.44 189.38 -208.14 189.38 -209.01C189.38 -278.56 132.8 -335.13 63.26 -335.13C62.39 -335.13 61.69 -335.83 61.69 -336.7Z" />
<path d="M-2.15 -288.82C-2.15 -324.89 27.19 -354.23 63.26 -354.23C64.13 -354.23 64.83 -353.53 64.83 -352.66C64.83 -351.79 64.13 -351.09 63.26 -351.09C28.92 -351.09 0.980003 -323.15 0.980003 -288.81C0.980003 -287.94 0.280004 -287.24 -0.589996 -287.24C-1.46 -287.24 -2.16 -287.94 -2.16 -288.81L-2.15 -288.82Z" />
<path d="M-18.12 -288.82C-18.12 -333.69 18.38 -370.2 63.26 -370.2C64.13 -370.2 64.83 -369.5 64.83 -368.63C64.83 -367.76 64.13 -367.06 63.26 -367.06C20.12 -367.06 -14.98 -331.96 -14.98 -288.82C-14.98 -287.95 -15.68 -287.25 -16.55 -287.25C-17.42 -287.25 -18.12 -287.95 -18.12 -288.82Z" />
<path d="M-34.08 -288.82C-34.08 -342.49 9.59 -386.16 63.26 -386.16C64.13 -386.16 64.83 -385.46 64.83 -384.59C64.83 -383.72 64.13 -383.02 63.26 -383.02C11.32 -383.02 -30.94 -340.76 -30.94 -288.82C-30.94 -287.95 -31.64 -287.25 -32.51 -287.25C-33.38 -287.25 -34.08 -287.95 -34.08 -288.82Z" />
<path d="M-50.04 -288.82C-50.04 -351.29 0.789993 -402.12 63.26 -402.12C64.13 -402.12 64.83 -401.42 64.83 -400.55C64.83 -399.68 64.13 -398.98 63.26 -398.98C2.51999 -398.98 -46.9 -349.56 -46.9 -288.82C-46.9 -287.95 -47.6 -287.25 -48.47 -287.25C-49.34 -287.25 -50.04 -287.95 -50.04 -288.82Z" />
<path d="M-66 -288.82C-66 -323.34 -52.55 -355.8 -28.14 -380.22C-3.73 -404.63 28.73 -418.08 63.26 -418.08C64.13 -418.08 64.83 -417.38 64.83 -416.51C64.83 -415.64 64.13 -414.94 63.26 -414.94C-6.29001 -414.94 -62.86 -358.36 -62.86 -288.82C-62.86 -287.95 -63.56 -287.25 -64.43 -287.25C-65.3 -287.25 -66 -287.95 -66 -288.82Z" />
<path d="M63.26 -863.43C133.78 -863.43 190.95 -806.26 190.95 -735.74H127.1C127.1 -771 98.52 -799.59 63.25 -799.59V-863.43H63.26Z" />
<path d="M61.69 -799.59L61.69 -863.43C61.69 -864.3 62.39 -865 63.26 -865C97.79 -865 130.25 -851.55 154.66 -827.14C179.07 -802.73 192.52 -770.27 192.52 -735.74C192.52 -734.87 191.82 -734.17 190.95 -734.17H127.1C126.23 -734.17 125.53 -734.87 125.53 -735.74C125.53 -770.08 97.59 -798.02 63.25 -798.02C62.38 -798.02 61.68 -798.72 61.68 -799.59H61.69ZM64.83 -861.85V-801.13C99.66 -800.31 127.83 -772.13 128.66 -737.3H189.38C188.55 -805.61 133.14 -861.01 64.83 -861.85Z" />
<path d="M80.79 460.43C80.79 461.3 80.09 462 79.22 462C78.35 462 77.65 461.3 77.65 460.43C77.65 452.49 71.19 446.04 63.26 446.04C62.39 446.04 61.69 445.34 61.69 444.47C61.69 443.6 62.39 442.9 63.26 442.9C72.93 442.9 80.79 450.76 80.79 460.43Z" />
<path d="M96.75 460.43C96.75 461.3 96.05 462 95.18 462C94.31 462 93.61 461.3 93.61 460.43C93.61 443.69 79.99 430.07 63.26 430.07C62.39 430.07 61.69 429.37 61.69 428.5C61.69 427.63 62.39 426.93 63.26 426.93C81.73 426.93 96.75 441.95 96.75 460.42V460.43Z" />
<path d="M112.71 460.43C112.71 461.3 112.01 462 111.14 462C110.27 462 109.57 461.3 109.57 460.43C109.57 434.89 88.79 414.11 63.25 414.11C62.38 414.11 61.68 413.41 61.68 412.54C61.68 411.67 62.38 410.97 63.25 410.97C90.52 410.97 112.7 433.15 112.7 460.42L112.71 460.43Z" />
<path d="M128.67 460.43C128.67 461.3 127.97 462 127.1 462C126.23 462 125.53 461.3 125.53 460.43C125.53 426.09 97.59 398.15 63.25 398.15C62.38 398.15 61.68 397.45 61.68 396.58C61.68 395.71 62.38 395.01 63.25 395.01C99.32 395.01 128.66 424.35 128.66 460.42L128.67 460.43Z" />
<path d="M144.64 460.43C144.64 461.3 143.94 462 143.07 462C142.2 462 141.5 461.3 141.5 460.43C141.5 417.29 106.4 382.19 63.26 382.19C62.39 382.19 61.69 381.49 61.69 380.62C61.69 379.75 62.39 379.05 63.26 379.05C108.13 379.05 144.64 415.55 144.64 460.43Z" />
<path d="M160.6 460.43C160.6 461.3 159.9 462 159.03 462C158.16 462 157.46 461.3 157.46 460.43C157.46 408.49 115.2 366.23 63.26 366.23C62.39 366.23 61.69 365.53 61.69 364.66C61.69 363.79 62.39 363.09 63.26 363.09C116.93 363.09 160.6 406.75 160.6 460.43Z" />
<path d="M176.56 460.43C176.56 461.3 175.86 462 174.99 462C174.12 462 173.42 461.3 173.42 460.43C173.42 399.69 124 350.27 63.26 350.27C62.39 350.27 61.69 349.57 61.69 348.7C61.69 347.83 62.39 347.13 63.26 347.13C125.73 347.13 176.56 397.96 176.56 460.43Z" />
<path d="M192.52 460.43C192.52 461.3 191.82 462 190.95 462C190.08 462 189.38 461.3 189.38 460.43C189.38 390.88 132.8 334.31 63.26 334.31C62.39 334.31 61.69 333.61 61.69 332.74C61.69 331.87 62.39 331.17 63.26 331.17C134.53 331.17 192.52 389.16 192.52 460.43Z" />
<path d="M64.83 253.07C64.83 252.2 64.13 251.5 63.26 251.5C27.19 251.5 -2.15 280.84 -2.15 316.91C-2.15 317.78 -1.45 318.48 -0.580002 318.48C0.289998 318.48 0.989998 317.78 0.989998 316.91C0.989998 282.57 28.93 254.63 63.27 254.63C64.14 254.63 64.84 253.93 64.84 253.06L64.83 253.07Z" />
<path d="M64.83 237.11C64.83 236.24 64.13 235.54 63.26 235.54C18.39 235.54 -18.12 272.04 -18.12 316.92C-18.12 317.79 -17.42 318.49 -16.55 318.49C-15.68 318.49 -14.98 317.79 -14.98 316.92C-14.98 273.78 20.12 238.68 63.26 238.68C64.13 238.68 64.83 237.98 64.83 237.11Z" />
<path d="M64.83 221.15C64.83 220.28 64.13 219.58 63.26 219.58C9.59 219.58 -34.08 263.24 -34.08 316.92C-34.08 317.79 -33.38 318.49 -32.51 318.49C-31.64 318.49 -30.94 317.79 -30.94 316.92C-30.94 264.98 11.32 222.72 63.26 222.72C64.13 222.72 64.83 222.02 64.83 221.15Z" />
<path d="M64.83 205.19C64.83 204.32 64.13 203.62 63.26 203.62C0.789993 203.62 -50.04 254.45 -50.04 316.92C-50.04 317.79 -49.34 318.49 -48.47 318.49C-47.6 318.49 -46.9 317.79 -46.9 316.92C-46.9 256.18 2.51999 206.76 63.26 206.76C64.13 206.76 64.83 206.06 64.83 205.19Z" />
<path d="M64.83 189.23C64.83 188.36 64.13 187.66 63.26 187.66C28.73 187.66 -3.73 201.11 -28.14 225.52C-52.55 249.93 -66 282.39 -66 316.92C-66 317.79 -65.3 318.49 -64.43 318.49C-63.56 318.49 -62.86 317.79 -62.86 316.92C-62.86 247.38 -6.28001 190.8 63.26 190.8C64.13 190.8 64.83 190.1 64.83 189.23Z" />
<path d="M63.26 189.23H127.11C127.11 224.49 98.53 253.08 63.26 253.08V189.23Z" />
<path d="M63.26 254.64C62.39 254.64 61.69 253.94 61.69 253.07L61.69 189.22C61.69 188.35 62.39 187.65 63.26 187.65H127.11C127.98 187.65 128.68 188.35 128.68 189.22C128.68 225.29 99.34 254.63 63.27 254.63L63.26 254.64ZM64.83 251.49C97.93 250.67 124.7 223.9 125.52 190.8H64.83V251.49Z" />
<path d="M144.64 189.23C144.64 188.36 143.94 187.66 143.07 187.66C142.2 187.66 141.5 188.36 141.5 189.23C141.5 232.37 106.4 267.47 63.26 267.47C62.39 267.47 61.69 268.17 61.69 269.04C61.69 269.91 62.39 270.61 63.26 270.61C108.13 270.61 144.64 234.11 144.64 189.23Z" />
<path d="M160.6 189.23C160.6 188.36 159.9 187.66 159.03 187.66C158.16 187.66 157.46 188.36 157.46 189.23C157.46 241.17 115.2 283.43 63.26 283.43C62.39 283.43 61.69 284.13 61.69 285C61.69 285.87 62.39 286.57 63.26 286.57C116.93 286.57 160.6 242.91 160.6 189.23Z" />
<path d="M127.11 189.23C127.11 153.97 98.53 125.38 63.26 125.38L63.26 61.53C133.78 61.53 190.95 118.7 190.95 189.22H127.1L127.11 189.23Z" />
<path d="M190.95 190.79H127.1C126.23 190.79 125.53 190.09 125.53 189.22C125.53 154.88 97.59 126.94 63.25 126.94C62.38 126.94 61.68 126.24 61.68 125.37L61.68 61.52C61.68 60.65 62.38 59.95 63.25 59.95C134.52 59.95 192.51 117.94 192.51 189.21C192.51 190.08 191.81 190.78 190.94 190.78L190.95 190.79ZM64.83 123.83C99.66 124.65 127.83 152.83 128.66 187.66H189.38C188.55 119.35 133.14 63.95 64.83 63.11L64.83 123.83Z" />
<path d="M64.83 13.65C64.83 12.78 64.13 12.08 63.26 12.08C55.32 12.08 48.87 5.62 48.87 -2.31C48.87 -3.18 48.17 -3.88 47.3 -3.88C46.43 -3.88 45.73 -3.18 45.73 -2.31C45.73 7.36 53.59 15.22 63.26 15.22C64.13 15.22 64.83 14.52 64.83 13.65Z" />
<path d="M64.83 29.61C64.83 28.74 64.13 28.04 63.26 28.04C46.52 28.04 32.91 14.42 32.91 -2.32001C32.91 -3.19001 32.21 -3.89001 31.34 -3.89001C30.47 -3.89001 29.77 -3.19001 29.77 -2.32001C29.77 16.15 44.79 31.17 63.26 31.17C64.13 31.17 64.83 30.47 64.83 29.6V29.61Z" />
<path d="M64.83 45.57C64.83 44.7 64.13 44 63.26 44C37.72 44 16.94 23.22 16.94 -2.32001C16.94 -3.19001 16.24 -3.89001 15.37 -3.89001C14.5 -3.89001 13.8 -3.19001 13.8 -2.32001C13.8 24.95 35.98 47.13 63.25 47.13C64.12 47.13 64.82 46.43 64.82 45.56L64.83 45.57Z" />
<path d="M64.83 61.53C64.83 60.66 64.13 59.96 63.26 59.96C28.92 59.96 0.980003 32.02 0.980003 -2.32001C0.980003 -3.19001 0.280004 -3.89001 -0.589996 -3.89001C-1.46 -3.89001 -2.16 -3.19001 -2.16 -2.32001C-2.16 33.75 27.18 63.09 63.25 63.09C64.12 63.09 64.82 62.39 64.82 61.52L64.83 61.53Z" />
<path d="M64.83 -18.27C64.83 -19.14 64.13 -19.84 63.26 -19.84C53.59 -19.84 45.73 -11.98 45.73 -2.31C45.73 -1.44 46.43 -0.73999 47.3 -0.73999C48.17 -0.73999 48.87 -1.44 48.87 -2.31C48.87 -10.25 55.33 -16.7 63.26 -16.7C64.13 -16.7 64.83 -17.4 64.83 -18.27Z" />
<path d="M64.83 -34.23C64.83 -35.1 64.13 -35.8 63.26 -35.8C44.79 -35.8 29.77 -20.78 29.77 -2.31C29.77 -1.44 30.47 -0.73999 31.34 -0.73999C32.21 -0.73999 32.91 -1.44 32.91 -2.31C32.91 -19.05 46.53 -32.67 63.26 -32.67C64.13 -32.67 64.83 -33.37 64.83 -34.24V-34.23Z" />
<path d="M64.83 -50.2C64.83 -51.07 64.13 -51.77 63.26 -51.77C35.99 -51.77 13.81 -29.59 13.81 -2.32001C13.81 -1.45001 14.51 -0.75 15.38 -0.75C16.25 -0.75 16.95 -1.45001 16.95 -2.32001C16.95 -27.86 37.73 -48.64 63.27 -48.64C64.14 -48.64 64.84 -49.34 64.84 -50.21L64.83 -50.2Z" />
<path d="M64.83 -66.16C64.83 -67.03 64.13 -67.73 63.26 -67.73C27.19 -67.73 -2.15 -38.39 -2.15 -2.32001C-2.15 -1.45001 -1.45 -0.75 -0.580002 -0.75C0.289998 -0.75 0.989998 -1.45001 0.989998 -2.32001C0.989998 -36.66 28.93 -64.6 63.27 -64.6C64.14 -64.6 64.84 -65.3 64.84 -66.17L64.83 -66.16Z" />
<path d="M64.83 77.5C64.83 76.63 64.13 75.93 63.26 75.93C20.12 75.93 -14.98 40.83 -14.98 -2.31C-14.98 -3.18 -15.68 -3.88 -16.55 -3.88C-17.42 -3.88 -18.12 -3.18 -18.12 -2.31C-18.12 42.56 18.38 79.07 63.26 79.07C64.13 79.07 64.83 78.37 64.83 77.5Z" />
<path d="M64.83 93.46C64.83 92.59 64.13 91.89 63.26 91.89C11.32 91.89 -30.94 49.63 -30.94 -2.31C-30.94 -3.18 -31.64 -3.88 -32.51 -3.88C-33.38 -3.88 -34.08 -3.18 -34.08 -2.31C-34.08 51.36 9.59 95.03 63.26 95.03C64.13 95.03 64.83 94.33 64.83 93.46Z" />
<path d="M64.83 109.42C64.83 108.55 64.13 107.85 63.26 107.85C2.51999 107.85 -46.9 58.43 -46.9 -2.31C-46.9 -3.18 -47.6 -3.88 -48.47 -3.88C-49.34 -3.88 -50.04 -3.18 -50.04 -2.31C-50.04 60.16 0.789993 110.99 63.26 110.99C64.13 110.99 64.83 110.29 64.83 109.42Z" />
<path d="M64.83 125.38C64.83 124.51 64.13 123.81 63.26 123.81C-6.29001 123.81 -62.86 67.23 -62.86 -2.31C-62.86 -3.18 -63.56 -3.88 -64.43 -3.88C-65.3 -3.88 -66 -3.18 -66 -2.31C-66 32.22 -52.55 64.68 -28.14 89.09C-3.73 113.5 28.73 126.95 63.26 126.95C64.13 126.95 64.83 126.25 64.83 125.38Z" />
<path d="M61.71 -130C61.71 -130.87 62.41 -131.57 63.28 -131.57C106.42 -131.57 141.52 -166.67 141.52 -209.81C141.52 -210.68 142.22 -211.38 143.09 -211.38C143.96 -211.38 144.66 -210.68 144.66 -209.81C144.66 -164.94 108.16 -128.43 63.28 -128.43C62.41 -128.43 61.71 -129.13 61.71 -130Z" />
<path d="M61.71 -114.04C61.71 -114.91 62.41 -115.61 63.28 -115.61C115.22 -115.61 157.48 -157.87 157.48 -209.81C157.48 -210.68 158.18 -211.38 159.05 -211.38C159.92 -211.38 160.62 -210.68 160.62 -209.81C160.62 -156.14 116.95 -112.47 63.28 -112.47C62.41 -112.47 61.71 -113.17 61.71 -114.04Z" />
<path d="M61.71 -98.08C61.71 -98.95 62.41 -99.65 63.28 -99.65C124.02 -99.65 173.44 -149.07 173.44 -209.81C173.44 -210.68 174.14 -211.38 175.01 -211.38C175.88 -211.38 176.58 -210.68 176.58 -209.81C176.58 -147.34 125.75 -96.51 63.28 -96.51C62.41 -96.51 61.71 -97.21 61.71 -98.08Z" />
<path d="M61.71 -82.12C61.71 -82.99 62.41 -83.69 63.28 -83.69C132.83 -83.69 189.4 -140.27 189.4 -209.81C189.4 -210.68 190.1 -211.38 190.97 -211.38C191.84 -211.38 192.54 -210.68 192.54 -209.81C192.54 -175.28 179.09 -142.82 154.68 -118.41C130.27 -94 97.81 -80.55 63.28 -80.55C62.41 -80.55 61.71 -81.25 61.71 -82.12Z" />
<path d="M63.26 444.61C-7.26 444.61 -64.43 387.44 -64.43 316.92H-0.580002C-0.580002 352.18 28 380.77 63.27 380.77V444.62L63.26 444.61Z" />
<path d="M63.26 446.18C28.73 446.18 -3.73 432.73 -28.14 408.32C-52.55 383.91 -66 351.45 -66 316.92C-66 316.05 -65.3 315.35 -64.43 315.35H-0.580002C0.289998 315.35 0.989998 316.05 0.989998 316.92C0.989998 351.26 28.93 379.2 63.27 379.2C64.14 379.2 64.84 379.9 64.84 380.77V444.62C64.84 445.49 64.14 446.19 63.27 446.19L63.26 446.18ZM-62.85 318.49C-62.02 386.8 -6.61 442.2 61.7 443.04L61.7 382.32C26.87 381.5 -1.3 353.32 -2.13 318.49H-62.85Z" />
<path d="M63.14 -2.07001V61.78C27.88 61.78 -0.709999 33.2 -0.709999 -2.07001H63.14Z" />
<path d="M-2.27 -2.07001C-2.27 -2.94001 -1.57 -3.64001 -0.699997 -3.64001H63.15C64.02 -3.64001 64.72 -2.94001 64.72 -2.07001V61.78C64.72 62.65 64.02 63.35 63.15 63.35C27.08 63.35 -2.26 34.01 -2.26 -2.06L-2.27 -2.07001ZM61.58 -0.5H0.889999C1.71 32.6 28.48 59.37 61.58 60.19V-0.5Z" />
<path d="M-2.27 -2.07001C-2.27 -38.14 27.07 -67.48 63.14 -67.48C64.01 -67.48 64.71 -66.78 64.71 -65.91C64.71 -65.04 64.01 -64.34 63.14 -64.34C28.8 -64.34 0.860001 -36.4 0.860001 -2.06C0.860001 -1.19 0.160001 -0.48999 -0.709999 -0.48999C-1.58 -0.48999 -2.28 -1.19 -2.28 -2.06L-2.27 -2.07001Z" />
<path d="M-18.23 -2.34998C-18.23 -47.22 18.27 -83.73 63.15 -83.73C64.02 -83.73 64.72 -83.03 64.72 -82.16C64.72 -81.29 64.02 -80.59 63.15 -80.59C20.01 -80.59 -15.09 -45.49 -15.09 -2.34998C-15.09 -1.47998 -15.79 -0.780029 -16.66 -0.780029C-17.53 -0.780029 -18.23 -1.47998 -18.23 -2.34998Z" />
<path d="M-34.15 -2.28998C-34.15 -55.96 9.52 -99.63 63.19 -99.63C64.06 -99.63 64.76 -98.93 64.76 -98.06C64.76 -97.19 64.06 -96.49 63.19 -96.49C11.25 -96.49 -31.01 -54.23 -31.01 -2.28998C-31.01 -1.41998 -31.71 -0.719971 -32.58 -0.719971C-33.45 -0.719971 -34.15 -1.41998 -34.15 -2.28998Z" />
</svg>
